<?xml version="1.0" encoding="UTF-8"?>
<svg id="Calque_2" xmlns="http://www.w3.org/2000/svg" version="1.1" viewBox="0 0 697.5 443.9">
  <!-- Generator: Adobe Illustrator 29.7.1, SVG Export Plug-In . SVG Version: 2.1.1 Build 8)  -->
  <defs>
    <style>
      .st0 {
        fill: #2c2636;
      }

      .st1 {
        fill: #ea344f;
      }

      .st2 {
        fill: #b2cb9e;
      }

      .st3 {
        fill: #ffa70e;
      }

      .st4 {
        fill: #c4493a;
      }

      .st5 {
        fill: #5d9133;
      }

      .st6 {
        fill: #f2819f;
      }

      .st7 {
        fill: #ecc1ba;
      }

      .st8 {
        fill: #460e54;
      }

      .st9 {
        fill: #de9595;
      }

      .st10 {
        fill: #d8d7b8;
      }

      .st11 {
        fill: #ff8752;
      }

      .st12 {
        fill: #89402d;
      }

      .st13 {
        fill: #9fc54d;
      }

      .st14 {
        fill: #f4f4e4;
      }

      .st15 {
        fill: #488419;
      }

      .st16 {
        fill: #f4e1d7;
      }

      .st17 {
        fill: #c0d5b0;
      }

      .st18 {
        fill: #561064;
      }

      .st19 {
        fill: #200633;
      }

      .st20 {
        fill: #301c1e;
      }

      .st21 {
        fill: #df7660;
      }

      .st22 {
        fill: #719f4c;
      }

      .st23 {
        fill: #ffb588;
      }

      .st24 {
        fill: #ce800d;
      }

      .st25 {
        fill: #6b4433;
      }

      .st26 {
        fill: #ba586a;
      }

      .st27 {
        fill: #fff;
      }

      .st28 {
        fill: #8e1711;
      }

      .st29 {
        fill: #fef4f2;
      }

      .st30 {
        fill: #39281c;
      }

      .st31 {
        fill: #c13127;
      }

      .st32 {
        fill: #8e5230;
      }

      .st33 {
        fill: #b8754b;
      }

      .st34 {
        fill: #ff6044;
      }

      .st35 {
        fill: #503426;
      }

      .st36 {
        fill: #c64e73;
      }

      .st37 {
        fill: #ffb03b;
      }

      .st38 {
        fill: #542218;
      }

      .st39 {
        fill: #b73423;
      }

      .st40 {
        fill: #6c4826;
      }

      .st41 {
        fill: #ffcab1;
      }

      .st42 {
        fill: #272525;
      }

      .st43 {
        fill: #347600;
      }

      .st44 {
        fill: #6e4635;
      }
    </style>
  </defs>
  <g id="OBJECTS">
    <g>
      <g>
        <path class="st29" d="M14.4,397.2s8-126.4,40-141.2c32-14.8,59.4-13,77.2-48.4C149.4,172.2,211.8-1,332.6,71.6c120.8,72.6,78.9,76.9,155.4,27.7,76.4-49.1,194.4,181.9,194.4,297.9H14.4Z"/>
        <g>
          <path class="st16" d="M526.9,222.6v-57.1h-57.9v57.1h-8.8v-21.9h-57.9v21.9h-7.6v-36.9h-92.6v36.9h-3.8v-67.3h-6.5v-36.7h-29.8v36.7h-24.1v67.3h-6.2v-43.9h-60.4v43.9h-7v-77.4h-2.4c-14.8,26.4-24.8,51.2-30.4,62.3-17.8,35.4-45.2,33.6-77.2,48.4-18.8,8.7-29.3,55.7-34.8,93.1h657.5c-7.8-39.9-23.6-85.1-43.8-126.4h-106.5,0Z"/>
          <path class="st17" d="M14.4,397.2h668c0-67.8-40.3-175-89.1-242.5-2-1-4-1.9-5.9-2.7-79.1-31.2-116.4,87.1-116.4,87.1-63.5-26.1-91.5,44.1-194.3,83.1-70.8,26.9-136.5-41.5-170.5-86.7-14.8,8.6-32.4,11.5-51.7,20.4-32,14.8-40,141.2-40,141.2h0Z"/>
          <g>
            <path class="st27" d="M392,175.8h91.9l-23.2-4s-8.9-15.3-22.8-7.3c0,0-8.3-11.3-20.3-2.3,0,0-19.7-13.2-25.7,13.6Z"/>
            <path class="st27" d="M187.1,135.9h126.8l-45.5-4.7s-9.9-31.3-26.8-23c0,0-23.9-12.3-35.9,7.7,0,0-18.7,0-18.7,20h0Z"/>
            <path class="st27" d="M274.2,248.8h109.8l-39.4-4s-8.6-27.1-23.2-19.9c0,0-20.6-10.7-31,6.6,0,0-16.1,0-16.1,17.3h0Z"/>
          </g>
          <path class="st22" d="M54.4,256c-32,14.8-40,141.2-40,141.2h668c0-49.6-21.5-120.1-52.2-180.9-61.6,8.7-163.7,151.2-230.8,160.4-70.9,9.7-96-52.5-149.8-114.2-53.8-61.7-79.6-2.2-79.6-2.2-15.8-20-30.1-34.5-43.1-44.6-17.8,27.1-43.2,26.7-72.5,40.3h0Z"/>
          <g>
            <path class="st43" d="M627.9,270.2c-16-2.5-14.5,20.4-14.5,20.4-20.5-8.1-26.1,21.8-26.1,21.8l82.5,5.7c-6.2-22.5-14.5-45.9-24.2-68.7-15.8.5-17.7,20.8-17.7,20.8h0Z"/>
            <path class="st43" d="M31.1,307.1s5.6-22.8,17.3-16.5c0,0,8.3-15.1,18.1-5.4,0,0,6.9-8.4,20.2,11,0,0,17.7-3,21.8,14.2l-77.5-3.3h0Z"/>
          </g>
          <g>
            <g>
              <path class="st40" d="M117.1,181.6c-1.3-.3-2.7.6-2.9,1.9,0,.4-6,28-19,45.6-1.3-.2-2.5-.9-3.5-2.1-6-6.9-4.4-27.6-3.3-35,.2-1.4-.7-2.6-2.1-2.8-1.3-.2-2.6.7-2.8,2.1-.4,2.9-4.1,29.1,4.5,39,1.1,1.3,2.4,2.3,3.9,2.9-4.9,5.4-10.7,9.3-17.4,10.1v-82.1c0-1.4-1.1-2.5-2.5-2.5s-2.5,1.1-2.5,2.5v69.6c-6.6-.6-12.3-3.4-17.2-8.8-24.7-26.5-19.4-102.6-19.3-103.3,0-1.4-.9-2.6-2.3-2.7-1.4,0-2.6.9-2.7,2.3-.2,3.2-5.5,78.9,20.6,107,5.8,6.3,12.9,9.8,20.9,10.3v76.7c0,1.4,1.1,2.5,2.5,2.5s2.5-1.1,2.5-2.5v-64.1c31.6-2.9,44.1-61.2,44.6-63.7.3-1.3-.6-2.7-1.9-2.9h0Z"/>
              <g>
                <ellipse class="st22" cx="68.4" cy="132.9" rx="38.1" ry="68.5"/>
                <ellipse class="st5" cx="85.9" cy="157.2" rx="28.9" ry="52.1"/>
                <ellipse class="st15" cx="120.2" cy="173.4" rx="28.6" ry="34.8"/>
                <ellipse class="st15" cx="24" cy="183" rx="24" ry="29.1"/>
                <ellipse class="st2" cx="27.3" cy="111.4" rx="19.6" ry="23.8"/>
              </g>
            </g>
            <g>
              <path class="st40" d="M542.3,155.3c1.8-.4,3.5.8,3.9,2.6.1.5,8,37.1,25.2,60.4,1.8-.3,3.3-1.2,4.6-2.7,7.9-9.2,5.8-36.6,4.4-46.4-.3-1.8,1-3.5,2.8-3.7,1.8-.3,3.5,1,3.7,2.8.6,3.9,5.4,38.6-5.9,51.7-1.5,1.7-3.2,3-5.1,3.9,6.5,7.2,14.2,12.3,23,13.4v-108.8c0-1.8,1.5-3.3,3.3-3.3s3.3,1.5,3.3,3.3v92.2c8.8-.8,16.3-4.6,22.8-11.6,32.7-35.2,25.7-135.9,25.6-136.9-.1-1.8,1.2-3.4,3-3.5,1.8-.1,3.4,1.2,3.5,3,.3,4.2,7.3,104.6-27.3,141.9-7.7,8.3-17,12.9-27.7,13.7v101.6c0,1.8-1.5,3.3-3.3,3.3s-3.3-1.5-3.3-3.3v-85c-41.8-3.9-58.4-81.1-59.1-84.5-.4-1.8.8-3.5,2.5-3.9h0Z"/>
              <g>
                <ellipse class="st22" cx="606.8" cy="90.8" rx="50.4" ry="90.8"/>
                <ellipse class="st5" cx="583.7" cy="123" rx="38.3" ry="69.1"/>
                <ellipse class="st15" cx="538.2" cy="144.4" rx="37.9" ry="46.1"/>
                <ellipse class="st15" cx="665.7" cy="157.2" rx="31.8" ry="38.6"/>
                <ellipse class="st2" cx="661.3" cy="62.3" rx="26" ry="31.6"/>
              </g>
            </g>
            <g>
              <path class="st40" d="M479.5,240c.8-.2,1.6.3,1.7,1.1,0,.2,3.5,16.5,11.2,26.9.8-.1,1.5-.5,2-1.2,3.5-4.1,2.6-16.3,2-20.7-.1-.8.4-1.5,1.2-1.7.8-.1,1.5.4,1.7,1.2.3,1.7,2.4,17.2-2.6,23-.7.8-1.4,1.4-2.3,1.7,2.9,3.2,6.3,5.5,10.2,6v-48.4c0-.8.7-1.5,1.5-1.5s1.5.7,1.5,1.5v41c3.9-.3,7.3-2,10.2-5.2,14.5-15.6,11.4-60.5,11.4-60.9,0-.8.5-1.5,1.3-1.6.8,0,1.5.6,1.6,1.4.1,1.9,3.2,46.6-12.2,63.1-3.5,3.7-7.6,5.8-12.3,6.1v45.2c0,.8-.7,1.5-1.5,1.5s-1.5-.7-1.5-1.5v-37.8c-18.6-1.7-26-36.1-26.3-37.6-.2-.8.3-1.6,1.1-1.7h0Z"/>
              <g>
                <ellipse class="st22" cx="508.2" cy="211.3" rx="22.4" ry="40.4"/>
                <ellipse class="st5" cx="497.9" cy="225.6" rx="17" ry="30.7"/>
                <ellipse class="st15" cx="477.7" cy="235.2" rx="16.9" ry="20.5"/>
                <ellipse class="st15" cx="534.5" cy="240.9" rx="14.1" ry="17.2"/>
                <ellipse class="st2" cx="532.5" cy="198.6" rx="11.6" ry="14.1"/>
              </g>
            </g>
          </g>
          <path class="st15" d="M666.4,306.1c-54.3-9.4-129.5,21.8-242.1,53.2-138.3,38.5-184.6-1.9-275.1-37.1-55.9-21.7-97.8-19.4-121.6-14.5-10,40.5-13.1,89.4-13.1,89.4h668c0-26-6-57.9-16-91.1h0Z"/>
          <path class="st13" d="M14.4,397.2h668s-109.3,9.8-78.5,13.2c102.9,11.5,19.1,25.8-99.2,25.8s-134.4-20.1-119.3-23c15-3-106.4-6-60.2,16s-362.3,19-260.8-7.2c44.8-11.6-50-24.9-50-24.9h0Z"/>
        </g>
      </g>
      <g>
        <g>
          <g>
            <g>
              <g>
                <path class="st12" d="M246.6,372.9s1.3,4,2.3,8.8c1,4.8-.2,10.7-1.2,14.1s-1.9,4.3-1.9,6.2h23.8s-.5-2.3-1.5-8-.6-19.8.6-22.5c1.1-2.7-24.8-9.5-22.2,1.3h0Z"/>
                <g>
                  <path class="st38" d="M248.4,399.2s-3.2-1.1-3.2,6.6h24.4s2.1-4-.6-6.7h-20.6Z"/>
                  <path class="st38" d="M268.9,396.3c-12.7-9.9-21.5-.8-21.6-.7-.2.2-.2.5,0,.7s.5.2.7,0c.3-.4,8.3-8.5,20.2.8,0,0,.2.1.3.1s.3,0,.4-.2c.2-.2.1-.5,0-.7h0Z"/>
                </g>
              </g>
              <g>
                <polygon class="st9" points="296.6 365.8 297.2 383.1 311.6 383.1 313.9 364.5 296.6 365.8"/>
                <path class="st12" d="M289,407.8h24.4s1.2.1,1.2-5.1v-23.8s-14.1-5.8-21.1,1.5l-.9,16.1s-3.7,1.4-3.7,11.3h0Z"/>
                <path class="st38" d="M314.4,406.1s-.8.8-3.2.5-18.9-4.9-21.7-1.1c-2.7,3.8.7,6.8.7,6.8h21.8s2.4-.1,2.4-6.2h0Z"/>
                <path class="st38" d="M312.3,398.3c-10.7-7.8-19.8-2.3-19.9-2.2-.2.1-.3.5-.2.7.1.2.5.3.7.2,0,0,8.6-5.2,18.8,2.2,0,0,.2,0,.3,0,.1,0,.3,0,.4-.2.2-.2.1-.5-.1-.7h0Z"/>
              </g>
            </g>
            <g>
              <path class="st23" d="M301.3,261.7s-5.7,7.2-6,18.1c0,0-19.4-1.2-26.9-15.5,0,0,12.1-5.9,14.1-15.5l18.8,12.9h0Z"/>
              <path class="st11" d="M282.5,248.8c-.6,3.1-2.3,5.8-4.3,8.1,11.1,13.3,21.9,5.3,21.9,5.3h.8c.2-.3.4-.5.4-.5l-18.8-12.9h0Z"/>
            </g>
            <g>
              <path class="st3" d="M298.2,267s18.5,3.9,24.4,9.2c6,5.3,22.4,49.9,26.7,61.5,4.3,11.6-8.7,23.2-20.1,32.7-11.4,9.4-15,12.1-15,12.1,0,0-11.4-3.5-11.7-15.9,0,0,16.9-16.8,23.2-23.6l-85.5-2.6,4.6-61.2s-35.6,15.5-42.8,17c-7.3,1.5-25.3.2-25.3.2l-6.6.2s-1.8-8.9-9.9-7.1c0,0,4.8-5.8,21.7-9.3s41.3-14,53.1-23c11.7-8.9,13.7-10.2,20.3-9.6,6.6.7,24,8,24,8,0,0-4.8,6.4,2.6,15.3,0,0,10.3,4.4,16.5-3.9h0Z"/>
              <g>
                <g>
                  <circle class="st24" cx="276.3" cy="310.4" r="3.6"/>
                  <circle class="st24" cx="277.1" cy="295.9" r="3.6"/>
                  <path class="st24" d="M283.5,280.1c0,2-1.6,3.6-3.6,3.6s-3.6-1.6-3.6-3.6,1.6-3.6,3.6-3.6,3.6,1.6,3.6,3.6Z"/>
                  <path class="st24" d="M280.2,325.9c0,2-1.6,3.6-3.6,3.6s-3.6-1.6-3.6-3.6,1.6-3.6,3.6-3.6,3.6,1.6,3.6,3.6Z"/>
                </g>
                <g>
                  <path class="st24" d="M332,336.8c-4.1.7-6.7,5.6-6.8,5.8-.1.2,0,.5.2.7,0,0,.1,0,.2,0,.2,0,.4-.1.4-.3,0,0,2.5-4.7,6.1-5.3.3,0,.5-.3.4-.6,0-.3-.3-.5-.6-.4Z"/>
                  <path class="st24" d="M305.9,289.5c0-.3-.3-.5-.5-.5-.3,0-.5.2-.5.5,0,1.1.6,17,2.6,30.6-5-8.1-8.6-25.6-8.6-25.8,0-.3-.3-.4-.6-.4-.3,0-.4.3-.4.6.2.8,4.3,20.6,10,27.8,1.2,7.6,2.9,14.2,5.2,16.6.1.1.2.1.4.1s.2,0,.4-.1c.2-.2.2-.5,0-.7-6.2-6.4-7.8-48.4-7.9-48.8h0Z"/>
                </g>
              </g>
            </g>
            <g>
              <path class="st34" d="M302.6,368.1s-4.6.9-6.6-1v-5.1l-2.2-5.1-15.6,3.1s-4.4,11.5-9,12.2v6.3s-18.5-4-23.3-6.3c0,0-6.6-6.4-5.8-17.8.7-11.4,4.5-24.4,12.3-25.2,7.8-.8,25,3.1,26.8,4s1.7,5,1.7,5c0,0,2.3-41.2,25.3-41.2s19.7,45.8,19.7,45.8l-23,25.3h0Z"/>
              <g>
                <path class="st31" d="M292.3,352.3c2,1.4,6.3,3.9,10.4,4h0c.2,0,.4-.2.4-.4,0-.2-.1-.4-.4-.4-5.1-.2-10.5-4.2-11.1-4.7-.2-.4-.4-.8-.6-1.1-.9-1.3-2.3-2.3-2.8-2.6-.6-13.2-1-33.3,0-35.1.1-.2,0-.4-.1-.5s-.4,0-.5.1c-1.4,2.6-.2,32.3,0,35.7,0,.1,0,.2.2.3,0,0,1.8,1.1,2.7,2.5,1,1.4,2.9,6.6,2.9,6.7,0,.1.2.2.4.2s0,0,.1,0c.2,0,.3-.3.2-.5,0-.1-.9-2.5-1.8-4.4h0Z"/>
                <path class="st31" d="M306.3,363.6c-5.4.9-10.1-1.9-10.2-1.9-.2-.1-.4,0-.5.1-.1.2,0,.4.1.5s3.8,2.2,8.4,2.2,1.5,0,2.3-.2c.2,0,.3-.2.3-.4,0-.2-.2-.3-.4-.3h0Z"/>
                <path class="st31" d="M280.6,337.8c-.2,0-.3.2-.3.4,0,0,1.7,8.4,1.5,11.4-.2,3-4,10.1-4,10.2,0,.2,0,.4.2.5,0,0,.1,0,.2,0,.1,0,.3,0,.3-.2.2-.3,3.8-7.4,4.1-10.5.2-3.1-1.4-11.2-1.5-11.6,0-.2-.2-.3-.4-.3Z"/>
                <path class="st31" d="M267.7,371.6c-.2,0-16.3,3.2-22.9-5.6-.1-.2-.4-.2-.5,0-.2.1-.2.4,0,.5,4.1,5.4,11.2,6.6,16.6,6.6s6.8-.6,7.1-.6c.2,0,.3-.2.3-.4,0-.2-.2-.3-.4-.3h0Z"/>
                <path class="st31" d="M243.2,360.9c-.8-2.2,0-5.7.1-6.3,1.6-1.5,3.6-2.9,5.1-3,.2,0,.4-.2.3-.4,0-.2-.2-.4-.4-.3-3.6.4-8.6,6.3-8.8,6.6-.1.2-.1.4,0,.5,0,0,.2,0,.2,0s.2,0,.3-.1c0,0,.9-1.1,2.3-2.4-.2,1.4-.5,3.9.1,5.7,0,.1.1.3.2.4,0,.1.2.2.3.2s.1,0,.2,0c.2,0,.3-.3.2-.5,0-.1,0-.2-.1-.3h0Z"/>
              </g>
            </g>
            <g>
              <g>
                <path class="st23" d="M313.3,260.2c.8-.5,1.6-1,2.2-1.6,1.8-1.6,2.8-3.5,2.6-5.2,0-.4-.2-.8-.4-1.2-1-1.8-3.6-2.3-6.5-1.5-.9.2-1.7.6-2.6,1.1-3.8,2.1-5.8,5.7-4.5,8,0,0,0,0,0,.1h0c1.4,2.2,5.4,2.3,9,.3h0Z"/>
                <path class="st23" d="M280.2,229.7c-2.6,0-4.8,3.4-4.9,7.7,0,3.9,1.7,7.1,4,7.7h0c.2,0,.5.1.7.1,2.6,0,4.8-3.4,4.9-7.7,0-1.1-.1-2.2-.4-3.1-.7-2.8-2.4-4.7-4.4-4.7h0Z"/>
              </g>
              <path class="st41" d="M286.5,260.7c2.9,1.8,6.2,2.6,9.4,2.3,4.8-.3,9.4-2.9,12.1-7.3l10.4-16.6-26.5-16.6-10.4,16.6c-1.9,3-2.6,6.4-2.3,9.6.4,4.7,2.9,9.2,7.2,11.9h0Z"/>
              <g>
                <g>
                  <path class="st4" d="M302.2,244.4s5,.4,6,4.2,1.8-1.2-.2-3.6c-2.1-2.3-3.7-2-3.7-2,0,0,0-.6-.4-.9-1-.8-3.8,1.9-1.7,2.3h0Z"/>
                  <path class="st4" d="M293.5,238.7s-2.4-4.4-6.3-3.7c-3.9.6.3-2.2,3.3-1.2,3,.9,3.4,2.5,3.4,2.5,0,0,.6-.2,1,0,1.1.6-.2,4.2-1.3,2.5Z"/>
                </g>
                <g>
                  <path class="st21" d="M293.2,261.2c-.5-1.3,1.2-3.1,3.7-4.1s5-.6,5.4.8c.5,1.3-1.2,3.1-3.7,4.1-2.5.9-5,.6-5.4-.8Z"/>
                  <path class="st21" d="M282.3,244.8c-1.4,0-2.5,2.3-2.4,4.9.1,2.7,1.4,4.8,2.8,4.7s2.5-2.3,2.4-4.9c-.1-2.7-1.4-4.8-2.8-4.7Z"/>
                </g>
                <path class="st1" d="M294.9,251.3h-.1c0,0-1.8-1.1-1.8-1.1l-.4-.2-1.8-1.1h-.1c-.2-.2-.4-.2-.4,0l-.6.9c0,.1,0,.3.2.4h.1c0,0,.6.5.5.9,0,0-.1.1.6.6.1,0,.2.1.4.2l.4.2c0,0,.2.1.4.2.7.4.8.2.8.2.3-.3,1,0,1,0h.1c.2.2.4.2.4,0l.6-.9c0-.1,0-.3-.2-.4h0Z"/>
                <path class="st1" d="M286.9,253.6l4.8,3s-5.3,3.2-4.8-3Z"/>
                <g>
                  <path class="st19" d="M287.5,245.9l-1.9-.9,1.4-3.1c.2-.5.9-.8,1.4-.5h0c.2.1.4.3.5.5.1.3.2.6,0,.9l-1.4,3.1h0Z"/>
                  <path class="st19" d="M299.4,253.6l-1.4-1.6,2.6-2.2c.5-.4,1.1-.3,1.5.1h0c.2.2.2.4.2.7,0,.3-.1.6-.4.8l-2.6,2.2h0Z"/>
                </g>
              </g>
              <path class="st19" d="M326.8,261.7c-1.4-7.1-.1-25.2-1-31s-10.9-17.5-22.8-17.7-23.1,15.6-30.7,22c-7.6,6.3-12.8,13.9-12.8,13.9l6.2,2s-5.3,38.2,14.3,39.8c0,0-2.5-1.5-4-5.5,0,0,8.4,0,7.6-5.4,0,0-4.2,1.7-7-5s-1.4-8.7-1.4-8.7c0,0,4.8.5,5.2-3,0,0-3.4-1.4-2.7-4.9,0-.2.1-.5.3-.7l2.5-3.7h0c-.7-1.6-1.2-3.3-1.3-5.1-.1-1.2,0-2.4.1-3.6-2.3-.6-4-3.8-4-7.7,0-4.3,2.2-7.8,4.9-7.7,1.4,0,2.6.9,3.4,2.4,0,.3.3,2.5-1.8,5.4-2.3,3.1-2.2,6.4-2.2,6.4,0,0,3.9-9.3,6.6-9.6h0c2.6-.1,7.5-.6,9.6-2.7l-4.3,4.6s9.4-.3,13.1-3.7c0,0-2.4,2.6-1.5,6.1l.7-1.2s-.3,1.8,2.1,6.4l.9-1.9s.9,3.1,3.2,6.8h0s-1.2,7.1-4.9,10.6c0,0,1.3-.7,4.4-4.5,2.5-3.1,3.3-4.2,4.2-4.4,1.9,0,3.4.6,4.1,1.8.2.4.3.8.4,1.2.2,1.6-.8,3.6-2.6,5.2-.6.6-1.4,1.1-2.2,1.6-3.7,2.1-7.7,1.9-9.1-.3h0c-1.3,1-2.7,1.7-4.1,2.2l-1.8,4.9s-5.6,5.9-12.5,4.4c0,0,4.4,5.1,10,3.8,0,0-4.7,4.3-10,2.4,0,0,1.3,6.5,9.5,3.4,0,0-5,5.6-10.3,4.3,0,0,5.1,6,16.5-1.1,11.4-7.1,13.4-12.2,13.4-12.2,0,0,6.5,2.8,7.8,4.3,0,0,5.5-7.4,4.1-14.5h0Z"/>
            </g>
          </g>
          <g>
            <g>
              <path class="st14" d="M265,279.1s3.5-2.8,4.8-7.7c1.3-4.9.2-10.3-2.1-11.1-2.2-.9-9.3-1.2-12.2-5.9-2.9-4.7-6.7-7.4-17.2-7.5s-21.9,3-24.2,6.9c-2.3,4-1.8,5.6-1.8,5.6,0,0-6.5,4.3-9,10.8s-8.3,23.5-22.4,25.6-54.6-1.9-72.1,4c-17.5,5.8-22.4,14.8-30.4,28.5s-28.9,42.7-52.6,33.4c0,0-5.2,24.6,22.6,27.4,27.8,2.9,43-38.2,43-38.2,0,0,5.9,8.2,3.5,21.2s-4.3,13.4-6.2,12.5c0,0-.1,5.5,3.8,15.5,4,10,3.1,23.2,5.8,23.2h37.1s-.9-7.8-8.4-9.2c-7.6-1.4-5.6-24.6-2.5-27.7s13.5-9.9,19.8-13.1c6.3-3.2,10.4-8.4,10.2-11.3,0,0,26.9,8.6,32.2,15.9s7.7,25.2,9.2,30.9c1.5,5.7.2,14.5,3.6,14.5h36.7s1-5.6-6.9-8.7-5.9-27.5-3.2-33.2,17.1-29.9,19.4-43.4c2.2-13.5,3-21.3,2.7-25.2,0,0,2.1,3.5,2.1,6.2,0,0,1.9-6.7-.5-12.3,0,0,2.5,1.9,3,4,0,0-.2-7.6-2-10.9,0,0,2.5.2,3.2,2,0,0-2-8.8-4.3-12.2s8.8-3.1,11.4-3c2.6.1,5.6-4.4,3.9-7.5h0Z"/>
              <g>
                <path class="st10" d="M133.9,369.9c-6.7,4.1-17.2,14.3-22.6,23.3s-1.2,21.3-1.2,21.3c7.6.2,9.6,8.8,9.6,8.8h15.9s-.9-7.8-8.4-9.2c-7.6-1.4-5.6-24.6-2.5-27.7s13.5-9.9,19.8-13.1c5.9-3,9.8-7.7,10.1-10.6v-.7s-7.2-2.7-7.2-2.7c-2,4-6.8,6.5-13.5,10.5h0Z"/>
                <path class="st10" d="M249.5,288.6c-5.7,2-8.4,39.1-13,53.2s-21.3,35.4-25.3,41.7c-4,6.3,0,31.1,0,31.1,7.8.3,7.9,8.7,7.9,8.7h17.2s1-5.6-6.9-8.7-5.9-27.5-3.2-33.2,17.1-29.9,19.4-43.4c2.2-13.5,3-21.3,2.7-25.2,0,0,2.1,3.5,2.1,6.2,0,0,1.9-6.7-.5-12.3,0,0,2.5,1.9,3,4,0,0-.2-7.6-2-10.9,0,0,2.5.2,3.2,2,0,0-2-8.8-4.3-12.2-.2-.4-.3-.7-.3-1h0Z"/>
                <path class="st10" d="M223.1,282c1.8,1.1,4.8,1.9,7.9,1.9s7-.9,9.2-3c3.3-3.2,0-10.5-2.3-15.9-.8-1.7-1.4-3.2-1.6-4.1-1-3.9-1.4-9.5-1-10.2.1-.2,0-.5-.2-.7-.2-.1-.5,0-.7.2-.6,1.1.1,7.6.9,10.9.2,1,.9,2.5,1.7,4.3,2.1,4.8,5.3,12.1,2.5,14.8-3.9,3.9-12.4,3.3-15.9,1-2.9-1.9-8.8-16.4-10.8-21.8,0-.3-.4-.4-.6-.3s-.4.4-.3.6c.3.8,7.4,19.9,11.2,22.3h0Z"/>
                <path class="st10" d="M266.5,277.7s-11.9,3.4-16.9-.6c0,0,3,3,9,3.2,5.6.2,6.8,1.9,6.6,2.9.5-1.3.6-2.8-.1-4,0,0,.6-.5,1.5-1.5h0Z"/>
                <path class="st10" d="M88.3,337.5c0-.3-.1-.5-.4-.6-.2,0-.5,0-.6.3l-1.9,5.9c-.8-4.7-2.4-17.1,2.1-23,.2-.2.1-.5,0-.7-.2-.2-.5-.1-.7,0-5.9,7.7-2.1,25-1.9,25.7,0,.2.2.4.5.4.2,0,.4-.1.5-.4l1.5-4.6c.6,4.9,3.6,10.2,3.8,10.5,0,0,0,.1.2.1-5.8,8.2-25.2,23.9-25.2,23.9l4-1.4s-6.5,9.8-24.9,10.7c-18.5.9-19.2-22.8-19.2-22.8,0,0-5.2,24.6,22.6,27.4,26.1,2.7,41.1-33.3,42.9-37.8,0,0,.1,0,.2,0s.2,0,.2,0c.2-.1.3-.4.2-.7,0,0-4.6-8.1-3.6-13.2h0Z"/>
              </g>
            </g>
            <g>
              <path class="st18" d="M250.5,260c0,1.4-.4,2.5-.9,2.5s-.9-1.1-.9-2.5.4-2.5.9-2.5.9,1.1.9,2.5Z"/>
              <path class="st26" d="M257.6,280.1s6.8.7,7.9,3.2,3.1,2.4,2.9-.2-2.8-4.5-2.8-4.5c0,0-8.6,1.3-12,.1,0,0,1.9,1.2,4,1.4h0Z"/>
              <path class="st18" d="M266.5,261.1s1.6-1.4,2.9-.5c1.2.9,3.1,6,1.8,6.7s-1.7-.3-1.8-1.3c-.1-1.1-1.2-1.3-2.2-1.1s-2.4-2.9-.6-3.7h0Z"/>
              <path class="st18" d="M201.2,275.7s16.5,25.6,48.2,12.9l1.7,3.5s-23.8,16.7-52-12.1l2.1-4.4Z"/>
            </g>
          </g>
          <g>
            <g>
              <g>
                <polygon class="st6" points="286.2 364 284.3 361.3 283.1 362.2 279.6 357.2 273 361.9 276.5 366.9 275.3 367.7 277.2 370.4 275.6 371.5 294.4 397.9 306.5 389.2 287.8 362.9 286.2 364"/>
                <g>
                  <path class="st39" d="M285.9,363.6l-9,6.4c-.2.2-.3.5-.1.7s.5.3.7.1l9-6.4c.2-.2.3-.5.1-.7s-.5-.3-.7-.1Z"/>
                  <path class="st39" d="M276.8,367.3l6.6-4.7c.2-.2.3-.5.1-.7s-.5-.3-.7-.1l-6.6,4.7c-.2.2-.3.5-.1.7s.5.3.7.1Z"/>
                  <path class="st39" d="M285.4,366.5c-.2.2-.3.5-.1.7l17.5,24.7c.2.2.5.3.7.1s.3-.5.1-.7l-17.5-24.7c-.2-.2-.5-.3-.7-.1Z"/>
                </g>
              </g>
              <g>
                <path class="st7" d="M302.6,368.1s-7.6,1.2-9.5,2.2l.7,1.7s-4.1,1.1-5.2,1.8c-1.1.7-5.5,7.2-5,7.8.5.6.8.7,2.1,0s5.4-3.6,6.4-4c1-.5,2.8-1.2,2.8-1.2,0,0-11,10.9-10.8,11.9s.9,2.5,3.3.9c0,0-1.5,1.2-.8,2.1.7.8,1.2,1.6,2.6,1.1,1.5-.5,7.8-4.3,8.8-5.3,0,0-6.9,7.7-6.5,8.4s1.4,2,3.1,1.2c1.7-.7,6.4-5.3,8.4-8.1,2-2.8,7.1-8.1,6.3-8.7-3.7-2.5-6.8-11.7-6.8-11.7h0Z"/>
                <g>
                  <path class="st11" d="M297.3,381.7l-9.9,7.2c-.1,0-.1.2,0,.4,0,0,.1.1.2.1s.1,0,.1,0l9.9-7.2c.1,0,.1-.2,0-.4,0-.1-.2-.1-.4,0h0Z"/>
                  <path class="st11" d="M300,384.4c-.1,0-.3,0-.4,0l-1.8,2.4c0,.1,0,.3,0,.4,0,0,.1,0,.1,0,0,0,.1,0,.2-.1l1.8-2.4c0-.1,0-.3,0-.4h0Z"/>
                  <path class="st11" d="M293.9,372.3s0,0,0,0l2.9-1.1c.1,0,.2-.2.1-.3s-.2-.2-.3-.1l-2.9,1.1c-.1,0-.2.2-.1.3,0,.1.1.2.2.2h0Z"/>
                </g>
              </g>
            </g>
            <g>
              <path class="st7" d="M170,296.5s-2.6,3.9-5.6,4.8-4.3,1.7-4.8,0,.5-2.6.5-2.6c0,0-5.8,2.6-8.3,5.7s-4.1,9.5-5.7,9.5-3.1-.7-2.6-2.7c.5-2,2.7-7,2.7-7,0,0-4.8,9.7-6.9,9.7s-2-.8-1.9-1.5,1.7-4.7,1.7-4.7c0,0-1.4,1.6-2.7.9-1.3-.8-.9-2.3,0-3.6s4.1-5.1,4.1-5.1c0,0-4.3,2.5-5,2.3s-1.6-1.9-1.1-2.3c.5-.4,7.7-4.5,10.8-5.1s10.6-2.1,14.9-5.3c0,0,7.3-3.4,9.9,7.1h0Z"/>
              <g>
                <path class="st11" d="M152,298.2c-2.9,1.4-5.9,5.7-6,5.9,0,.1,0,.3,0,.3,0,0,0,0,.1,0,0,0,.2,0,.2-.1,0,0,3-4.4,5.8-5.8.1,0,.2-.2.1-.3s-.2-.2-.3-.1h0Z"/>
                <path class="st11" d="M148.2,297.4c0-.1-.2-.2-.3-.1-5.1,2.2-8.9,9.9-9,10.2,0,.1,0,.3.1.3,0,0,0,0,.1,0,0,0,.2,0,.2-.1,0,0,3.8-7.8,8.8-10,.1,0,.2-.2.1-.3h0Z"/>
                <path class="st11" d="M165,296.2c-2.6.5-5,2.2-5.1,2.3-.1,0-.1.2,0,.4,0,0,.1.1.2.1s.1,0,.1,0c0,0,2.3-1.7,4.9-2.2.1,0,.2-.2.2-.3,0-.1-.2-.2-.3-.2h0Z"/>
                <path class="st11" d="M140.5,300.1c0,0,.1,0,.2-.1,0,0,2-2.5,3.6-3.3.1,0,.2-.2.1-.3s-.2-.2-.3-.1c-1.8.9-3.7,3.4-3.8,3.5,0,.1,0,.3,0,.4,0,0,.1,0,.1,0h0Z"/>
              </g>
            </g>
          </g>
        </g>
        <g>
          <g>
            <g>
              <path class="st37" d="M446.9,299.3c-.2,0-.4,0-.5-.1-.5-.3-.6-.9-.3-1.4,11.4-18,26.2-42,35.9-58.9-5.2-2.4-7.8-11.1-7.1-18.3,0-.4,0-.7.1-1-.7-5.9,1.2-12,3.7-14.2,1-.9,2.2-1.2,3.3-.8,5.3,1.9,11.1,6.9,11.8,13.7,2.9,4.3,2.2,10.3,0,14.7-2.4,4.7-6.3,7.2-10,6.6-12.6,22.1-32.9,54.3-36.2,59.4-.2.3-.5.5-.8.5h0ZM487.8,232.5c-.9,1.6-1.8,3.3-2.8,5.1,3.1,0,5.7-2.9,7.1-5.6,1.6-3.1,2.4-7.2,1.2-10.6,0,.2-.2.5-.3.7,1,3.2,1,6.5-.6,8.6-.8,1-2.2,1.9-4.6,1.9h0ZM477,225.8c.6,5.1,2.7,10,6,11.3,1-1.7,1.9-3.4,2.8-5-.3,0-.7-.2-1-.3-4-1.2-6.3-3.6-7.8-6.1h0ZM491.6,225.1c-.8,1.6-1.7,3.3-2.7,5.3.8-.1,1.4-.4,1.9-1,.7-.9,1-2.4.8-4.2h0ZM477,219.6c0,.5.1,1,.3,1.4.7,3.2,2.7,7.4,8,9,.5.1,1,.3,1.5.4,1.8-3.4,3.3-6.2,4.2-8.2-.4-1.1-.9-2.2-1.5-3.4-2.2-3.9-5.1-6.2-7.6-5.9-2.4.3-4.2,2.8-4.8,6.8h0ZM491.4,218.2c.2.4.4.7.5,1.1,0-.2,0-.3,0-.4-.2-.2-.4-.5-.6-.7h0ZM482.3,210.8c3,0,5.7,2.3,7.7,5.1,0,0,0,0,0-.1.3-.4.8-.5,1.2-.3-1.7-4.5-5.9-7.8-9.8-9.1-.1,0-.6-.2-1.4.5-1.2,1.1-2.4,3.7-3,6.9,1.1-1.6,2.7-2.7,4.5-2.9.2,0,.5,0,.7,0h0Z"/>
              <path class="st34" d="M451.5,296.8c0,1.9-1.5,3.4-3.4,3.4s-3.4-1.5-3.4-3.4,1.5-3.4,3.4-3.4,3.4,1.5,3.4,3.4Z"/>
            </g>
            <g>
              <g>
                <path class="st44" d="M554.9,81.7c-1.7,4-5.7,6.1-8.8,4.8-3.1-1.3-4.2-5.7-2.5-9.7s5.7-6.1,8.8-4.8,4.2,5.7,2.5,9.7Z"/>
                <g>
                  <path class="st44" d="M546.8,90.6s2.2,12.4,10.8,17l-23,10.9s.1-11.2-4.6-17.7l16.8-10.1h0Z"/>
                  <path class="st35" d="M546.8,90.6l-16.8,10.1c1,1.4,1.7,2.9,2.3,4.5,2.9-.2,9.5-1.5,16.8-7.5-1.8-3.8-2.4-7.2-2.4-7.2h0Z"/>
                </g>
                <path class="st44" d="M514.4,81.5s2.6,5.5,3.1,10.3,7.2,11.1,12.1,12.4c4.9,1.3,13.1-5.5,15.7-9.7s3-13.5,2.3-17.5c-.7-4-10.2-18.5-21.1-14.2-11,4.3-16.1,9.4-12,18.7h0Z"/>
                <g>
                  <g>
                    <path class="st42" d="M515.3,84.1s0-1.4,2.1-2.1c2.4-.8,3.1,1.2,3.4.8.3-.3-.8-2.7-3.4-2.5s-2.9,2.7-2.1,3.7h0Z"/>
                    <path class="st42" d="M527.1,79.8s6-4.5,8.8-2.8c2.9,1.7.7-.7-.7-1.5-2.9-1.7-7.3,2.1-7.7.9-.1-.4-2.4,1.6-2.1,2.7.2,1.1.5,1.5,1.7.7h0Z"/>
                  </g>
                  <g>
                    <path class="st35" d="M522.3,91s.2-.3.6-.7,2.8-2.4,3.6-1c.8,1.4.9,1.7-.2,2.7-.8.7-4.1-.8-4.1-.8"/>
                    <path class="st35" d="M524,90.2l.4-.2,1.7-.7h.1c.2-.1.3,0,.4.1l.5,1.2c0,.2,0,.3-.2.4h-.1c0,0-.6.4-.5.8,0,0,0,.2-.6.5-.1,0-.2,0-.3.1l-1.3.4c-.7.3-1-.3-1-.3h-.1c-.2.1-.3,0-.4-.1l-.3-1.3s0-.3.4-.5l1.4-.6h0Z"/>
                  </g>
                  <g>
                    <path class="st0" d="M532.2,85.6l-1.5.2-.3-2.3c0-.2,0-.4.1-.6.1-.2.3-.3.5-.3h0c.2,0,.4,0,.6.1.2.1.3.3.3.5,0,0,.3,2.3.3,2.3Z"/>
                    <path class="st0" d="M520.7,89.5l-1.4.6-.9-2.2c0-.2,0-.4,0-.6,0-.2.2-.3.4-.4h0c.2,0,.4,0,.6,0,.2,0,.3.2.4.4l.9,2.2h0Z"/>
                  </g>
                  <path class="st28" d="M530.9,95.5c-.1,0-.3,0-.3.1-.7,1.4-1.5,2.3-2.6,2.7-1.4.4-2.6-.2-2.6-.2-.1,0-.3,0-.3,0,0,.1,0,.3,0,.3,0,0,.8.4,1.8.4s.7,0,1.1-.2c1.2-.4,2.2-1.4,2.9-2.9,0-.1,0-.3-.1-.3h0Z"/>
                </g>
                <path class="st30" d="M576.8,123.7c-7.3-15.1-17-49.4-22.7-59.3-5.7-9.9-12.8-16.5-27.7-12.6-12.8,3.3-19.2,11.3-18.2,22.6,1,11.3.9,15.9,1.7,27.9s5.9,24.2,12.2,23.4c0,0-6.4-6.9-4.9-11.9,0,0,5.1,11.1,13.2,9.9,1-4.2,1.2-7.7.9-10.2,0,0,1.1-.6,2.7-1.6-.4-2.4-1-5.1-2.1-7.6-.8.1-1.6.1-2.3,0-4.9-1.3-11.7-7.6-12.1-12.4-.5-4.8-3.1-10.3-3.1-10.3,0,0,1.9-2.2-.1-6.4,0,0,3.7,4.4,8.9,4.1l-2.3-2.1s5.1,2.5,12.3-.4l-3.2-3.1s.7.4,2,.9c2.1,1.5,4.9,2.9,7.6,2.9s1,0,1.5-.2c1.5-.3,2.7-1.2,3.8-2.5,1,1.7,2.7,5.4,2.8,10.5,0,0,3-4.9-.6-12.7,1.7-1.1,3.6-1.4,5.3-.7,3.1,1.3,4.2,5.7,2.5,9.7-1.5,3.4-4.6,5.5-7.4,5.1-.2,1.3-.4,2.6-.7,3.8h0s1.2,6.7,5.3,12.1c1.2-.4,2.1-.6,2.5-.5,2.5,1,13.7,16.1,17.6,33,.9,4,1.7,8.4,2.4,12.8,3.3-5.7,6.7-15,2.2-24.3h0ZM541,76.9c-2.4.6-5.1-.5-7.3-1.8,2.5.6,6.2.8,10.8-.8,0,0,0,0,0,.1-1,1.3-2.2,2.2-3.6,2.5Z"/>
              </g>
              <g>
                <g>
                  <path class="st8" d="M523.8,406.3h46.6s-2.4-10.3-6-14c-3.6-3.7-5-12.8-5-12.8l-15.6,2s-6.1,12.3-9.5,13.3-10.5,3.7-10.5,12.2"/>
                  <polygon class="st34" points="524.4 403.2 522.2 404.3 521 408.2 571.6 408.2 570.5 401.5 555 404.2 553.7 405.9 527.8 405.9 524.4 403.2"/>
                </g>
                <g>
                  <path class="st18" d="M555,414.8l42-20.4s-6.6-8.2-11.5-10-10-9.3-10-9.3l-13.2,8.6s0,13.7-2.8,16.1c-2.7,2.4-7.9,8-4.2,15.5"/>
                  <polygon class="st34" points="554.2 411.8 552.7 413.8 553.3 417.9 598.9 395.7 594.9 390.2 582.1 399.3 581.8 401.4 558.4 412.8 554.2 411.8"/>
                </g>
              </g>
              <g>
                <path class="st34" d="M525.3,211.9s-6,52.2-3.9,69.7,4.4,35.5,6.1,40.4,4,30.3,6.5,32.2,3.7,2.2,3.7,2.2c0,0,4.5,21,6.2,23,1.7,2,6.7,3.7,6.7,3.7l4.7,5.8s18.4-9.7,23.6-13.6l-1.2-4.5,3.7-8.7-15.9-55.8s12.5-47.6,13.5-58.6c.9-10.9.9-28-2.8-38.9,0,0-32.3-11.2-50.9,3h0Z"/>
                <g>
                  <path class="st31" d="M565.5,306.9s0,0,.1,0c.3,0,.4-.3.3-.6,0-.2-4.9-18.4-3-27.8.7-3.3,2.3-8.3,4.2-14.1,3.6-11,8-24.7,8.5-34.6,0-.3-.2-.5-.5-.5-.3,0-.5.2-.5.5-.5,9.9-4.9,23.4-8.5,34.4-1.9,5.8-3.5,10.8-4.2,14.2-2,9.7,2.8,27.5,3,28.3,0,.2.3.4.5.4h0Z"/>
                  <path class="st31" d="M525.8,311c0-.3-.3-.4-.6-.4-.3,0-.4.3-.3.6l12.4,45.4c0,.2.3.4.5.4s0,0,.1,0c.3,0,.4-.4.3-.6l-12.4-45.4h0Z"/>
                  <path class="st31" d="M562.4,377.4c10.3-6.6,19.2-14.7,19.3-14.8.2-.2.2-.5,0-.7-.2-.2-.5-.2-.7,0-.1.1-8.7,7.9-18.7,14.4-1.9-6.5-17.4-60.7-19.7-77.1-2.5-17.4,4-91.9,4.1-92.7,0-.3-.2-.5-.5-.5-.3,0-.5.2-.5.4,0,.2-.6,7.4-1.4,17.6-7.1-.6-8.8-15.8-8.8-15.9,0-.3-.3-.5-.5-.4-.3,0-.5.3-.4.5,0,.7,1.8,16.2,9.7,16.8-1.8,23.5-4.3,62.3-2.6,74.3,2.4,16.8,18.4,72.6,19.8,77.5-3.6,2.3-7.4,4.4-11,5.9-.2,0-.3.3-.3.6,0,.2.2.4.5.4h0c.4,0,9.2-.8,27.3-12.4.2-.1.3-.5.2-.7-.2-.2-.5-.3-.7-.1-10.5,6.7-17.9,9.8-22.2,11.1,2.4-1.2,4.8-2.7,7.2-4.2,0,0,0,0,0,0h0Z"/>
                </g>
              </g>
              <path class="st25" d="M577.7,182.6s.7,14.6-4.2,19.1c0,0-1.6-8.1,0-16.1l4.2-3h0Z"/>
              <g>
                <path class="st6" d="M531.3,113.4s20.8-12.2,23.3-11.2c2.5,1,13.7,16.1,17.6,33,4,16.9,5.5,40.4,5.5,47.4l-3,3s-1.7,13.9-1.2,16.1l2.7,7.2s-31.8-7.7-50.9,3c0,0-2.5-5.2,0-6.7l-1.1-1.7s2.8-16.9,0-29.5c-2.8-12.6-5.6-20.1,0-32.5s7.9-22.6,7.1-28h0Z"/>
                <g>
                  <path class="st36" d="M534.6,171.7c0,0,.1,0,.2,0,.1,0,.2,0,.3-.2.1-.2,0-.4-.1-.5,0,0-4.4-2.9-2.7-6.9,1.1-.3,8.2-1.7,17.5,5.3,0,0,.2,0,.2,0,.1,0,.2,0,.3-.1.1-.2,0-.4,0-.5-9.6-7.2-16.8-5.8-18.1-5.4-.6-.6-2.7-2.9-2.5-5,.2-2.6,1.1-33.6,1.1-34.9,0-.2-.2-.4-.4-.4s-.4.2-.4.4c0,.3-.9,32.2-1.1,34.9-.2,2.4,2,4.9,2.7,5.6-1.9,4.6,2.9,7.7,3,7.8h0Z"/>
                  <path class="st36" d="M558,166.7c.8-2.6-3.1-43.1-3.3-44.8,0-.2-.2-.4-.4-.3-.2,0-.3.2-.3.4,1.1,11.7,3.9,42.5,3.3,44.5-.7,2.3-5.6,3.7-5.7,3.7-.1,0-.2.1-.3.3,0,.1,0,.3.1.4,0,0,2.8,2.4,2.7,5.1,0,1.4-1,2.8-2.6,3.9-.2.1-.2.4,0,.5,0,.1.2.2.3.2s.2,0,.2,0c1.9-1.3,2.9-2.8,3-4.5.1-2.4-1.6-4.4-2.4-5.2,1.5-.5,5-1.8,5.6-4h0Z"/>
                  <path class="st36" d="M576.1,155.7c0-.2-.2-.4-.4-.4h0c-.2,0-.4.2-.4.4.2,9.3-1,29.6-1,29.8,0,.2.2.4.3.4h0c.2,0,.4-.1.4-.4,0-.2,1.1-20.5,1-29.9h0Z"/>
                  <path class="st36" d="M573.5,201.3c-27.9-5.9-48.2,3.4-48.4,3.5-.2,0-.3.3-.2.5,0,.1.2.2.3.2s.1,0,.2,0c.2,0,20.3-9.3,47.9-3.4.2,0,.4,0,.4-.3s0-.4-.3-.4h0Z"/>
                  <path class="st36" d="M531.1,120.5c0,0,.2,0,.2,0,.2-.2,19.4-14.7,26.7-14.4.2,0,.4-.2.4-.4,0-.2-.2-.4-.4-.4h-.2c-7.7,0-26.2,14-26.9,14.6-.2.1-.2.4,0,.5,0,0,.2.2.3.2Z"/>
                </g>
              </g>
              <g>
                <path class="st25" d="M534.8,171.4s-25.3,16.6-33.4,21c-8.1,4.3-11,5.3-13.9,6.9-2.9,1.6-5.9,5.4-5.7,6.1,0,0,1.1,1.2,1.9,1.4,0,0-3,6.7-2.2,7.9.7,1.1,1.9.8,1.9.8,0,0,.6,1.6,1.9,1.5,0,0,.7,1.6,2.2,1.6,0,0,0,2.8,3,1.6s6.2-4,7.4-5.1,5-9.4,6.9-10.2c1.9-.8,31.3-12.9,36.4-16.1,5.1-3.2,10.5-8.6,10.5-8.6,0,0-2.4-11.7-16.9-8.8h0Z"/>
                <g>
                  <path class="st11" d="M534.8,171.4s-.4.2-1,.7c0,0,11.4-1.8,17.5,8.5.3-.3.4-.4.4-.4,0,0-2.4-11.7-16.9-8.8Z"/>
                  <path class="st11" d="M483.6,207.1c0,0,.2,0,.2-.1l2.4-3.6c0-.1,0-.3,0-.4-.1,0-.3,0-.4,0l-2.4,3.6c0,.1,0,.3,0,.4,0,0,0,0,.1,0Z"/>
                  <path class="st11" d="M487,207.6c-.1,0-.3,0-.3.1l-3.5,7.6c0,.1,0,.3.1.3,0,0,0,0,.1,0,0,0,.2,0,.2-.1l3.5-7.6c0-.1,0-.3-.1-.3h0Z"/>
                  <path class="st11" d="M490.8,210.2c-.1,0-.3,0-.4,0l-5.4,6.6c0,.1,0,.3,0,.4,0,0,.1,0,.2,0s.1,0,.2,0l5.4-6.6c0-.1,0-.3,0-.4Z"/>
                  <path class="st11" d="M494.2,213.5l-6.9,4.8c-.1,0-.1.2,0,.4,0,0,.1.1.2.1s.1,0,.1,0l6.9-4.8c.1,0,.1-.2,0-.4,0-.1-.2-.1-.3,0h0Z"/>
                </g>
              </g>
            </g>
          </g>
          <g>
            <path class="st33" d="M428.9,282.2s-9.1-4.1-17.1,0-11.3,13.9-13,15.4-9.7,5.3-11.3,7.8c-1.6,2.5-1.2,4.1,0,6.1,1.2,2,4.8,4.5,7.3,4.2,0,0-.4,2.4.9,3.6,1.2,1.2,2.9,2.1,6.5.9s8.8-1.7,8.8-1.7c0,0,3.2,3.5,9.3,1.4,0,0,5.2,5.2,7.4,10.2,2.2,5,4.5,22.1,6.8,25.3l.6-2.9s1.7,6.6,4.6,8.7v-2.2s4.1,5,4.3,8.3-7.8,42.9-15.3,46.3c-7.4,3.4-10.2,2.9-10.2,8.1h20.2s.5-4.8,2.2-6.5c1.7-1.6,21.6-43.8,21.6-43.8,0,0,18.1,32.6,19.4,36.4s2.4,6.8,0,8.2-8.3,1.7-8.3,5.7h16.6s3.5-2.7,3.9-5.2c.4-2.5-14.4-39.6-13.9-42.5.5-3,1.9-5.8,7-7.1,5.1-1.2,24.9-6.2,27.4-9.2,0,0-5.3,10.8,0,24.7,5.3,13.9,9.5,24.1,2,29.4s-10.7,5.8-13.4,6.2c-2.7.4-5.3.9-5.3,3.7h17.4s15.9-13.4,17.9-17.4,1.5-5.7,1.5-5.7l-2.2,2s-4.3-25.4,7.6-32.9c0,0,3.3,9.4,7.3,11.8l-2.2.6s17.9,7.4,23,15.6,6.6,18.7,4.3,20.7-7.6,1.6-7.6,5.2h14.9s3-2.4,3.6-4.7c.6-2.4-2-13.1-1.4-19,.6-5.8,1.9-8.9.2-12,0,0-.7,1.9-1.7,1.9s-10.3-7-11-11.4c-.7-4.5-2.1-25.4-4.3-31.6s-5.7-13.6,0-19.1c5.7-5.5,21.8-14.4,16.6-27s-19.3-14.6-25.8-5.7,3,3.2,6.7.2c3.7-3,13.7.5,10.2,7.9-3.5,7.4-16.4,9.7-18.1,13.1-1.7,3.5-8.9-3.7-31.3-4.2-22.3-.5-50.9,1-62.8-2.5s-20.9-23.4-31.6-25.2h0Z"/>
            <path class="st20" d="M552.1,348.6c5-14.4,1-21.8,10.4-27.8,9.4-6,17.7-10.1,15.9-19.9-1.7-9.1-14.2-16.4-24.7-3.8.5,1.5,6.2-2,8.9-4.2,3.7-3,13.7.5,10.2,7.9-3.5,7.4-16.4,9.7-18.1,13.1-1.7,3.5-8.9-3.7-31.3-4.2-22.3-.5-50.9,1-62.8-2.5s-20.9-23.4-31.6-25.2c0,0-3.5-1.6-8.1-1.8,0,0,4.5,1.7,7.1,5.6,2.6,4-1,3.8,0,6.8s3.1,2.6,2.1,6.5c-1,3.8-1.3,4.1.3,6.5,1.6,2.3,2.6,5.5-1.6,7.6-4.1,2.1-7.9,4.3-8.5,6.5,0,0,5.2,5.2,7.4,10.2.1.3.3.7.4,1.1.5.3,1.1.6,1.7.9,6.2,2.7,7.4,5.2,9.7,11.7,2.2,6.5,4.2,9.4,8.4,11.2,4.2,1.7,3.2,3.2,7.4,8.7,4.2,5.5,4.8,3.3,7.3,7.8,0,0,3.4,6.1,7.4,13.4h0c0,0,5.7-3.3,2.7-8-3-4.7-3.7-13.9.9-15.6,4.6-1.7-.5,4.3,11.3,1,11.8-3.3,30.3-24.1,34-18.9,3.6,5.3-5.5,16.4-2.5,28.8,3,12.4,12.8,16.5,15.3,14.9h0c.4-7.3,2.3-15.5,8.2-19.3,3.7-9.5,7.2-4.6,12.2-19h0Z"/>
            <g>
              <path class="st32" d="M414.1,292.8c0-.3,0-.5-.3-.6s-.5,0-.6.3c0,0-3,8.7-4.3,14.8-1.4,6.2,1.5,11.2,1.6,11.4,0,.2.3.2.4.2s.2,0,.2,0c.2-.1.3-.4.2-.7,0,0-2.8-4.8-1.5-10.7,1.3-6,4.2-14.6,4.3-14.7h0Z"/>
              <path class="st20" d="M403.9,299.2c0,1.3-.3,2.4-.8,2.4s-.9-1.1-.9-2.4c0-1.3.3-2.4.8-2.4s.9,1.1.9,2.4Z"/>
              <path class="st20" d="M387.8,305s1.5-1.1,1.9,0-3.4,4.2-2.8,5.4c.6,1.1-4.4-3.1.9-5.4Z"/>
              <path class="st26" d="M392.4,322.3s-1.7-5,2.4-6.6c4.2-1.6,11.4-2.7,12-4.8,0,0-1.2,3.1-5.4,5.1-4.2,2-8.9,3.1-9.1,6.3h0Z"/>
            </g>
            <g>
              <g>
                <path class="st14" d="M486.6,402.2c-3.5-5.5-5.7-2.7-5.5,3.5h0c.4.9.8,1.6.9,2,1.2,3.7,2.4,6.8,0,8.2s-8.3,1.7-8.3,5.7h16.6s3.5-2.7,3.9-5.2c.1-.7-1-4.1-2.5-8.6-1.5-.9-3.5-3.1-5-5.5h0Z"/>
                <path class="st14" d="M435.1,352.4s1.7,6.6,4.6,8.7v-2.2s4.1,5,4.3,8.3-7.8,42.9-15.3,46.3c-7.4,3.4-10.2,2.9-10.2,8.1h20.2s.5-4.8,2.2-6.5c1.5-1.4,16.6-33.3,20.6-41.8-.5-.6-1.1-1-1.6-1.1-3.5-.7-8.4-7.1-9.8-11.6s-4.3-6.8-6.5-8.6c-2.1-1.7,3-5.7,3-5.7l-11.4-17.5-7.4,2.2h0c2.1,6,4.2,21.2,6.4,24.2l.6-2.9h0Z"/>
                <path class="st14" d="M566.2,380.9c-8.8-3-6.3-6-6.3-6h3.3c-4-6.6-.7-15.5-3.3-23.9-2.5-8-3.6-21-2.3-25.1-1.7,4-9.3,21.8-14.3,27.9-6,7.3-3.4,13.9-3.4,13.9,0,0,3.3,9.4,7.3,11.8l-2.2.6s17.9,7.4,23,15.6,6.6,18.7,4.3,20.7-7.6,1.6-7.6,5.2h14.9s3-2.4,3.6-4.7c.6-2.4-2-13.1-1.4-19,.6-5.8,1.9-8.9.2-12,0,0-.7,1.9-1.7,1.9-2.7,5.2-5.4-3.8-14.2-6.8h0Z"/>
                <path class="st14" d="M520.4,406.2c-.5,2.1-1.7,3.9-3.8,5.4-7.6,5.3-10.7,5.8-13.4,6.2-2.7.4-5.3.9-5.3,3.7h17.4s4.2-3.6,8.6-7.6c.5-1.5,1.5-3.4,2.7-5.3,2.9-4.7-1.3-4.6-6.2-2.4Z"/>
                <path class="st14" d="M511.2,354.8c-3.7,4.2-8.2,5-9.9,3.2-1.5-1.5-9.9,5.7-15.5,9.1.5-.2,1-.3,1.5-.5,5.1-1.2,24.9-6.2,27.4-9.2,0,0,.2-7-3.5-2.7h0Z"/>
              </g>
              <g>
                <path class="st10" d="M426.6,415.7c-5.2.9-5.3,5.8-5.3,5.9,0,.3.2.5.5.5s.5-.2.5-.5,0-4.1,4.5-4.9c.3,0,.5-.3.4-.6,0-.3-.3-.5-.6-.4h0Z"/>
                <path class="st10" d="M482.5,416.7c-4.7.4-5.4,4.7-5.4,4.7,0,.3.1.5.4.6h0c.2,0,.5-.2.5-.4,0-.1.6-3.6,4.5-3.9.3,0,.5-.3.5-.5,0-.3-.2-.5-.5-.5h0Z"/>
                <path class="st10" d="M507.3,417.5c-4.3.4-5.6,3.7-5.6,3.9,0,.3,0,.5.3.6,0,0,.1,0,.2,0,.2,0,.4-.1.5-.3,0-.1,1.1-2.9,4.8-3.2.3,0,.5-.3.5-.5,0-.3-.2-.5-.5-.5Z"/>
                <path class="st10" d="M573.9,417.5c-5.5.2-5.8,4-5.8,4,0,.3.2.5.5.5h0c.3,0,.5-.2.5-.5,0-.1.2-2.9,4.8-3.1.3,0,.5-.2.5-.5,0-.3-.2-.5-.5-.5h0Z"/>
              </g>
            </g>
            <path class="st37" d="M422.6,322.3s19.7-1.2,26.4-23.1l-2.8-3s-9.4,19.5-25,24.5l1.4,1.6Z"/>
          </g>
        </g>
      </g>
    </g>
  </g>
</svg>