<?xml version="1.0" encoding="UTF-8"?>
<svg id="Calque_2" data-name="Calque 2" xmlns="http://www.w3.org/2000/svg" xmlns:xlink="http://www.w3.org/1999/xlink" viewBox="0 0 2122 1138.92">
  <defs>
    <style>
      .cls-1 {
        fill: none;
      }

      .cls-2 {
        fill: #444;
      }

      .cls-3 {
        fill: #f08ba1;
      }

      .cls-4 {
        fill: #b7a998;
      }

      .cls-5 {
        fill: #f6bbc6;
      }

      .cls-6 {
        fill: #dc4a1b;
      }

      .cls-7 {
        fill: #46a6b1;
      }

      .cls-8 {
        clip-path: url(#clippath);
      }
    </style>
    <clipPath id="clippath">
      <rect class="cls-7" width="2122" height="1138.92"/>
    </clipPath>
  </defs>
  <g id="Capa_2" data-name="Capa 2">
    <g>
      <rect class="cls-7" width="2122" height="1138.92"/>
      <g class="cls-8">
        <g>
          <path class="cls-5" d="M1648.66,902.3c2.84-2.7,5.52-5.62,8.04-8.76l.12.09c.56-.75,1.1-1.49,1.66-2.23.04-.05.09-.1.13-.15.05-.06.08-.13.13-.19,59.98-80.62,99.15-152.38,87.71-160.94-5.43-4.06-21.31,6.85-42.94,28.02-.27-.48-.62-.91-1.09-1.26-.16-.12-.36-.15-.53-.24,24.8-40.6,37.42-70.02,30.6-75.12-6.61-4.94-29.99,14.12-60.49,47.41-.29-.1-.57-.15-.86-.17,29.54-47.06,45.18-81.37,37.86-86.85-7.53-5.63-37.47,20.68-75.8,64.51-.16-.14-.27-.32-.46-.43-.05-.03-.12-.03-.17-.06,16.19-29.44,23.36-49.77,17.66-54.03-11.3-8.45-69.06,49.65-129.5,130.12-13.65-16.96-25.31-30.22-25.31-30.22,0,0-.02.03-.02.04-2.01-23.63-4.83-45.47-7.9-64.83.29-.25.56-.46.86-.72,68.67-61.33,79.85-108.51,79.85-108.51,0,0-8.59,127.51,30.28,40.71,34.43-76.88,53.55-143.66,39.48-204.25-1.26-8.64-3.63-16.37-7.02-22.92-.03-.08-.06-.17-.09-.25,0,0-.02.02-.02.02-11.07-21.14-32.86-29.82-62.61-16.86,0,0,0-.02,0-.02,0,0-51.37-.15-89.71,29.95-64.85,2.5-95.09-46.09-95.09-46.09,31.1-77.74-31.83-9.81-31.83-9.81,0,0-83.48-39.42-34.25,13.7,0,0-185.28,27.21-58.3,37.57,0,0-193.05,140.59-49.23,102.04h0c0,.06-.2,1.63-.42,4.42-1.99,16.18-13.4,75.97-77.33,162.58-4.01-28.61-12.15-60.56-24.27-96.23,34.25-77.09,14.57-170.41-55.21-229.21-86.41-72.82-216.87-65.11-291.41,17.21-12.39,13.69-22.4,28.59-30.18,44.23l-.04-.03s-22.95,55.05-115.95,64.21c-1.67.14-3.33.28-4.99.46-.33.03-.63.06-.96.09-1.79.13-3.52.39-5.23.71-46.57,6.53-90.89,28.35-124.1,65.02-53.38,58.97-63.57,140.21-33.31,208.32h-.01s.03.06.04.08c.61,1.38,1.28,2.73,1.93,4.1,6.76,15.48,26.23,71.26-20.39,116.7l.04.04c-1.43,1.49-2.88,2.95-4.27,4.48-74.53,82.32-64.9,208.07,21.5,280.89,74.53,62.8,181.82,65.65,257.73,12.44,37.42,53.36,91.37,107,157.89,153.23,111.96,77.8,231.24,115.04,316.64,106.26,80.28,1.21,212.81-88.79,327.56-229.67,37.69-46.28,83.5-111.81,118.81-170.27.1.05.19.1.29.15,1.92.95,4.24.17,5.19-1.75.91-1.82.21-3.98-1.51-5.01,16.44-27.6,30.35-53.37,39.67-74.44.49-.47.93-.96,1.27-1.53.7-1.16,1.04-2.5,1.1-3.98.15-.35.31-.72.46-1.07l-.49-.29c-.59-7.61-8.29-18.72-21.18-31.42Z"/>
          <g>
            <polygon class="cls-1" points="1209.78 501.56 1209.78 501.56 1209.78 501.56 1209.78 501.56"/>
            <path d="M445.24,1149.64c74.53,62.8,181.82,65.65,257.73,12.44-57.78-82.4-76.03-164.12-39.45-216.77,22.05-31.74,60.99-48.45,109.74-51.2l23.22-139.4c-10-.84-20.51-3.25-30.93-7.47-37.43-15.15-59.18-47.13-48.6-71.44,10.59-24.3,49.51-31.72,86.93-16.57,13.64,5.52,25.17,13.3,33.84,22.11,62.3-47.02-7.94-107.6,52.53-116.69,69.23-10.4,70.84-79.14,70.84-79.14,1.26-31.4-7.85-46.92-15.61-54.4,63.1,5.12,125.56,42.82,151.13,110.23,4.03,10.63,7.74,20.95,11.15,30.98,34.25-77.09,14.57-170.41-55.21-229.21-86.41-72.82-216.87-65.11-291.41,17.21-12.39,13.69-22.4,28.59-30.18,44.23l-.04-.03s-22.95,55.05-115.95,64.21c-1.67.14-3.33.28-4.99.46-.33.03-.63.06-.96.09-1.79.13-3.52.39-5.23.71-46.57,6.53-90.89,28.35-124.1,65.02-53.38,58.97-63.57,140.21-33.31,208.32h0s.03.06.04.08c.61,1.38,1.28,2.73,1.92,4.1,6.76,15.48,26.23,71.26-20.39,116.7l.04.04c-1.43,1.49-2.88,2.95-4.27,4.48-74.53,82.32-64.9,208.07,21.5,280.89Z"/>
            <path class="cls-4" d="M1502.9,815.77c.13.04.26.08.39.12,2.81-10.52,7.56-20.7,14.48-29.95.41-.55.88-1.03,1.3-1.57l-.08-.06c.58-.77,1.15-1.52,1.72-2.29-13.65-16.96-25.31-30.22-25.31-30.22,0,0-.02.03-.02.04.86,10.18,1.57,20.69,2.09,31.48,2.1,9.15,3.9,20.08,5.43,32.45Z"/>
            <path class="cls-2" d="M1032.42,853.88c.06.14.17.25.21.4.6,2.05-.57,4.21-2.62,4.81-2.51.74-4.99,1.38-7.46,1.97l-15.97,95.86c24.25,12.89,48.56,27.62,72.54,44.28,44.3,30.78,82.99,64.86,114.99,99.95,21.18-33.89,45.8-68.44,73.61-102.58,64.97-79.76,135.62-143.16,199.28-183,4.75-5.4,17.88-4.98,35.91.19-1.53-12.37-3.33-23.3-5.43-32.45-.51-10.79-1.22-21.3-2.09-31.48-2.01-23.63-4.83-45.47-7.9-64.83-67.34,58.16-14.69-220.63-14.69-220.63,0,0-51.83,92.51-32.39,0,6.05-28.81,20.73-48.61,38.08-62.23-64.85,2.5-95.09-46.09-95.09-46.09,31.1-77.74-31.83-9.81-31.83-9.81,0,0-83.48-39.42-34.25,13.7,0,0-185.28,27.21-58.3,37.57,0,0-193.05,140.59-49.23,102.04h0c0,.06-.2,1.63-.42,4.42-1.99,16.18-13.4,75.97-77.33,162.58,13.12,93.56-18.07,151.21-99.62,185.32ZM1369.89,428.63c3.99-4.84,13.05-3.96,20.24,1.97,7.19,5.93,9.78,14.65,5.79,19.49-3.99,4.84-13.05,3.96-20.24-1.97-7.19-5.93-9.78-14.65-5.79-19.49ZM1263.92,417.18v-.22s0,0,0,0c-.11-2.14,1.53-3.96,3.66-4.07,2.14-.11,3.96,1.53,4.08,3.66,0,.06.08,1.59.08,4.37,0,13.23-1.81,54.87-22.5,103.04-2.85,6.62-4.06,12.43-4.05,17.38.05,8.46,3.35,14.5,8.89,18.88,5.55,4.35,13.6,6.82,22.78,6.81,20.4,0,45.82-12.13,60.3-39.31,8.13-15.25,11.11-30.01,11.12-43.66,0-19.11-5.93-36.08-12.1-48.48-6.16-12.4-12.54-20.19-13.17-20.95l-.05-.06c-1.39-1.63-1.19-4.08.44-5.46,1.63-1.39,4.08-1.19,5.46.44.14.16,6.87,8.09,13.62,21.32,6.74,13.22,13.54,31.78,13.54,53.18,0,14.79-3.28,30.91-12.03,47.31-15.87,29.71-43.79,43.4-67.14,43.41-10.53,0-20.26-2.78-27.55-8.45-7.3-5.64-11.91-14.37-11.87-25,0-6.22,1.51-13.05,4.68-20.44,20.13-46.82,21.88-87.46,21.87-99.98,0-1.98-.04-3.25-.06-3.74ZM1209.78,501.56s0,0,0,0h0s0,0,0,0Z"/>
            <path class="cls-2" d="M1630.82,391.09c-11.07-21.14-32.86-29.82-62.61-16.86,17.56,58.51,62.08,17.35,62.61,16.86Z"/>
            <path class="cls-2" d="M1630.93,391.31c2.92,7.54,5.23,15.18,7.02,22.92-1.26-8.64-3.63-16.37-7.02-22.92Z"/>
            <path class="cls-4" d="M1440.41,466.38c-19.44,92.51,32.39,0,32.39,0,0,0-52.65,278.79,14.69,220.63.29-.25.56-.46.86-.72,68.67-61.33,79.85-108.51,79.85-108.51,0,0-8.59,127.51,30.27,40.71,34.43-76.88,53.55-143.66,39.49-204.25-1.79-7.74-4.11-15.38-7.02-22.92-.03-.08-.06-.17-.09-.25,0,0-.02.02-.02.02-.53.49-45.05,41.65-62.61-16.86,0,0,0-.02,0-.02,0,0-51.37-.15-89.71,29.95-17.34,13.61-32.03,33.41-38.08,62.23Z"/>
            <path d="M1375.68,448.12c7.19,5.93,16.25,6.81,20.24,1.97,3.99-4.84,1.4-13.57-5.79-19.49-7.19-5.93-16.25-6.81-20.24-1.97-3.99,4.84-1.4,13.57,5.79,19.49Z"/>
            <path d="M1242.12,520.9c-3.18,7.39-4.68,14.23-4.68,20.44-.05,10.62,4.57,19.36,11.87,25,7.29,5.67,17.01,8.45,27.55,8.45,23.35,0,51.26-13.7,67.14-43.41,8.75-16.39,12.04-32.52,12.03-47.31,0-21.4-6.8-39.96-13.54-53.18-6.75-13.23-13.48-21.16-13.62-21.32-1.39-1.63-3.83-1.83-5.46-.44-1.63,1.39-1.83,3.83-.44,5.46l.05.06c.63.76,7.01,8.56,13.17,20.95,6.17,12.4,12.11,29.36,12.1,48.48,0,13.65-2.99,28.41-11.12,43.66-14.48,27.18-39.9,39.31-60.3,39.31-9.18,0-17.23-2.47-22.78-6.81-5.54-4.38-8.84-10.43-8.89-18.88,0-4.95,1.21-10.76,4.05-17.38,20.69-48.18,22.5-89.81,22.5-103.04,0-2.79-.08-4.31-.08-4.37-.11-2.14-1.94-3.78-4.08-3.66-2.14.11-3.78,1.94-3.66,4.07h0v.22c.03.49.07,1.76.07,3.74,0,12.52-1.75,53.16-21.87,99.98Z"/>
            <polygon points="731.03 681.82 731.04 681.82 731.04 681.81 731.03 681.82"/>
            <path d="M779.31,703.45c0-8.1,2.89-14.91,5.84-19.74,1.47-2.41,2.95-4.3,4.04-5.57.04-.05.07-.08.11-.12,1.01.37,2.02.66,3.03,1.07,10.64,4.3,19.47,10.35,25.5,16.8,6.07,6.45,9.19,13.23,9.16,18.74,0,1.97-.37,3.81-1.13,5.57-.85,1.96.05,4.25,2.01,5.1,1.96.85,4.25-.05,5.1-2.01,1.2-2.76,1.78-5.7,1.77-8.66-.03-8.35-4.34-16.64-11.25-24.04-6.95-7.41-16.66-13.99-28.25-18.69-1.74-.7-3.48-1.26-5.22-1.84-.23-.12-.46-.18-.7-.25-8.66-2.84-17.23-4.31-25.1-4.31-7.56,0-14.5,1.28-20.29,3.93-5.77,2.64-10.46,6.78-12.9,12.38-1.21,2.76-1.78,5.71-1.78,8.66,0,5.18,1.71,10.38,4.63,15.32,2.92,4.94,7.08,9.67,12.21,13.99,1.64,1.38,4.08,1.17,5.46-.47,1.38-1.64,1.17-4.08-.47-5.46h0c-4.57-3.84-8.14-7.97-10.52-12-2.39-4.04-3.56-7.94-3.55-11.37,0-1.98.37-3.81,1.13-5.56h0c1.53-3.52,4.53-6.36,9.03-8.44,4.47-2.06,10.37-3.22,17.05-3.22,5.31,0,11.13.82,17.11,2.32-.88,1.17-1.83,2.53-2.78,4.09-3.46,5.65-6.97,13.82-6.98,23.78-.01,8.3,2.5,17.76,9.23,27.58,1.21,1.77,3.62,2.22,5.38,1.02,1.77-1.21,2.22-3.62,1.02-5.39-5.92-8.7-7.86-16.45-7.88-23.21Z"/>
            <path class="cls-3" d="M926.81,690.45c-7.61-15-26.26-20.83-41.67-13.02-15.41,7.81-21.73,26.31-14.12,41.31,7.61,15,26.26,20.83,41.67,13.02,15.41-7.81,21.73-26.31,14.12-41.31Z"/>
            <path class="cls-3" d="M1077.63,637.09c-15.41,7.81-21.73,26.31-14.12,41.31,7.61,15,26.26,20.83,41.67,13.02,15.41-7.81,21.73-26.31,14.12-41.31-7.61-15-26.26-20.83-41.67-13.02Z"/>
            <path d="M1036.25,649.45c-3.25-.9-6.26-2.9-8.95-5.57-4.04-3.99-7.25-9.43-9.35-13.85-1.05-2.21-1.84-4.16-2.36-5.54-.26-.69-.45-1.24-.58-1.61l-.14-.41-.04-.11c-.63-2.04-2.8-3.19-4.85-2.56-2.04.63-3.19,2.8-2.56,4.85h0c.06.17,2.06,6.67,6.27,13.94,2.11,3.63,4.78,7.46,8.13,10.79,3.35,3.32,7.43,6.16,12.33,7.53,3.66,1.01,5.98,2.33,7.19,3.46,1.22,1.16,1.41,1.91,1.43,2.64,0,.73-.34,1.76-1.39,2.96-1.04,1.19-2.74,2.42-4.94,3.36-2.73,1.16-5.16,1.54-7.26,1.54-2.38,0-4.35-.5-5.7-1-.67-.25-1.18-.49-1.51-.65l-.33-.18-.05-.03h0c-1.79-1.13-4.17-.62-5.33,1.16-1.16,1.8-.65,4.2,1.15,5.36.37.23,4.8,3.07,11.78,3.09,3.06,0,6.58-.58,10.3-2.17,3.09-1.33,5.73-3.12,7.71-5.36,1.96-2.22,3.32-5,3.32-8.09.03-3.06-1.45-6.1-3.94-8.34-2.49-2.27-5.9-3.98-10.36-5.22Z"/>
            <path d="M938.32,652.95c1.15,1.15,2.41,2.13,3.8,2.85,1.39.72,2.94,1.2,4.61,1.2.98,0,1.98-.17,2.94-.54,2.35-.9,3.97-2.79,4.88-4.8.93-2.03,1.3-4.26,1.3-6.62,0-2.91-.59-6.03-1.76-9.16-.76-2-2.99-3.01-4.99-2.26-2,.75-3.01,2.99-2.26,4.99h0c.87,2.3,1.27,4.57,1.26,6.42,0,1.5-.27,2.7-.59,3.38-.34.7-.56.78-.62.8l-.16.02c-.15,0-.52-.05-1.05-.33-.79-.4-1.88-1.3-2.91-2.62-1.03-1.32-2.02-3.04-2.76-5.02-.76-2-2.99-3.01-4.99-2.26-2,.75-3.01,2.99-2.26,4.99,1.35,3.57,3.26,6.62,5.56,8.93Z"/>
            <path d="M1051.8,624.18c1.41.88,3.08,1.49,4.9,1.49.58,0,1.17-.06,1.76-.19,1.51-.33,2.85-1.11,3.9-2.08,1.57-1.47,2.56-3.32,3.22-5.33.65-2.01.96-4.22.96-6.56,0-1.85-.2-3.78-.61-5.74-.44-2.09-2.49-3.44-4.59-3-2.1.44-3.44,2.49-3,4.59h0c.3,1.45.44,2.86.44,4.16,0,2.18-.42,4.03-.96,5.13-.27.55-.55.9-.73,1.07l-.32.2h-.07c-.08,0-.34-.02-.8-.3-.68-.41-1.69-1.42-2.56-2.92-.88-1.49-1.65-3.45-2.11-5.65-.44-2.09-2.49-3.44-4.59-3-2.09.44-3.44,2.49-3,4.59.84,3.97,2.38,7.45,4.48,10.16,1.06,1.35,2.26,2.51,3.67,3.4Z"/>
            <path d="M960.88,749.21c8.83,8.25,22.63,16.65,41.51,16.64,8.31,0,17.56-1.62,27.71-5.48,2-.76,3.01-3,2.24-5-.76-2-3-3.01-5-2.25-9.37,3.56-17.65,4.98-24.96,4.98-16.51-.01-28.31-7.21-36.23-14.56-3.94-3.67-6.85-7.35-8.76-10.1-.95-1.37-1.66-2.51-2.11-3.28-.23-.39-.39-.69-.5-.88l-.11-.21-.02-.04h0c-.97-1.91-3.3-2.67-5.21-1.7-1.91.97-2.67,3.3-1.7,5.21h0c.14.26,4.28,8.41,13.14,16.68Z"/>
            <path d="M1032.63,854.28c-.04-.15-.15-.26-.21-.4-.76-1.78-2.7-2.78-4.6-2.22-13.5,3.97-26.35,5.66-38.49,5.66-37,0-67.66-15.81-89.14-31.78-10.73-7.97-19.14-15.96-24.84-21.94-2.85-2.99-5.03-5.47-6.48-7.19-.73-.86-1.27-1.53-1.63-1.99l-.4-.51-.12-.15c-1.29-1.7-3.73-2.04-5.43-.74-1.7,1.29-2.04,3.73-.74,5.43h0c.15.19,12.7,16.71,35.02,33.31,22.3,16.58,54.49,33.3,93.76,33.31,10.6,0,21.7-1.25,33.22-4.01,2.47-.59,4.95-1.23,7.46-1.97,2.05-.6,3.23-2.76,2.62-4.81Z"/>
            <path d="M1627.4,707.25h0s-.84,1.35-2.34,3.75c-4.52,7.19-15.05,23.71-26.75,40.69-1.21,1.76-.77,4.18.99,5.39,1.76,1.21,4.18.77,5.39-.99,15.73-22.83,29.28-44.73,29.3-44.76,1.01-1.63.6-3.68-.79-4.9-.16-.14-.27-.32-.46-.43-.05-.03-.12-.03-.17-.06-1.8-1-4.07-.45-5.16,1.32Z"/>
            <path d="M1667.64,730.28h0s-.93,1.29-2.6,3.57c-5.02,6.85-16.69,22.58-29.58,38.69-1.34,1.67-1.07,4.11.61,5.45,1.67,1.34,4.11,1.07,5.45-.61,17.32-21.65,32.39-42.53,32.41-42.56,1.25-1.73.86-4.16-.87-5.41-.33-.24-.69-.36-1.05-.48-.29-.1-.57-.15-.86-.17-1.32-.12-2.66.38-3.49,1.53Z"/>
            <path d="M1697.01,757.75h0s-.93,1.29-2.6,3.57c-5.02,6.85-16.69,22.58-29.58,38.69-1.34,1.67-1.07,4.11.61,5.45,1.67,1.34,4.11,1.07,5.45-.61,17.32-21.65,32.39-42.53,32.41-42.56.91-1.26.93-2.88.22-4.15-.27-.48-.62-.91-1.09-1.26-.16-.12-.36-.15-.53-.24-1.67-.85-3.74-.46-4.88,1.12Z"/>
            <path class="cls-6" d="M1501.58,943.69s-.11-.04-.15-.08c-.04-.03-.05-.08-.09-.11-21.19-16.51-39.25-32.18-53.54-45.3,0,0-.01,0-.02-.01,0,0,0-.01-.01-.02-23.28-21.38-36.49-35.95-36.57-36.02h0c-1.44-1.59-1.32-4.04.27-5.47,1.59-1.44,4.04-1.32,5.47.27,0,0,.32.36.99,1.07.66.72,1.66,1.78,2.98,3.16,2.63,2.76,6.54,6.78,11.61,11.8,4.87,4.81,10.83,10.56,17.76,16.98l64.93-68.04c.72-.76,1.68-1.14,2.64-1.18-5.12-1.9-10-3.53-14.56-4.85-.13-.04-.26-.08-.39-.12-18.04-5.17-31.16-5.6-35.91-.19-63.66,39.83-134.32,103.24-199.28,183-27.81,34.14-52.43,68.69-73.61,102.58-32-35.09-70.69-69.17-114.99-99.95-23.98-16.66-48.29-31.39-72.54-44.28-84.29-44.81-167.71-66.51-233.32-62.81-48.75,2.75-87.69,19.46-109.74,51.2-36.58,52.65-18.33,134.37,39.45,216.77,37.42,53.36,91.37,107,157.89,153.23,111.96,77.8,231.24,115.04,316.64,106.26,80.28,1.21,212.81-88.79,327.56-229.67,37.69-46.28,83.5-111.81,118.81-170.27-46.79-23.27-88.48-51.62-122.3-77.94Z"/>
            <path class="cls-6" d="M1509.44,939.97c16.23,12.51,34.19,25.42,53.62,37.98.11-.25.16-.51.32-.74l65.26-92.54c-13.1-10.5-28.74-21.41-46.04-31.87-.35-.21-.7-.41-1.04-.62-.1.17-.15.36-.27.51l-71.85,87.27Z"/>
            <path class="cls-6" d="M1569.72,981.67c-.09.12-.22.19-.32.3,18.28,11.55,37.75,22.71,58.2,32.86.09.05.15.13.24.18,16.44-27.6,30.35-53.37,39.67-74.44.49-.47.93-.96,1.27-1.53.7-1.16,1.04-2.5,1.1-3.98.15-.35.31-.72.46-1.07l-.49-.29c-.59-7.61-8.29-18.72-21.18-31.42-4.15-4.09-8.84-8.34-14.01-12.69l-64.93,92.07Z"/>
            <path class="cls-6" d="M1520.82,827.27l-64.83,67.93c6.11,5.56,12.84,11.52,20.19,17.79,8.3,7.09,17.4,14.56,27.14,22.22l71.59-86.95c-19.32-11.19-37.94-20.18-54.2-26.44,1.52,1.48,1.58,3.91.11,5.45Z"/>
            <path d="M1569.41,981.97c.1-.11.23-.18.32-.3l64.93-92.07,1.91-2.7c1.23-1.75.82-4.17-.93-5.4-1.75-1.23-4.17-.82-5.4.93l-1.58,2.23-65.26,92.54c-.16.23-.22.49-.32.74-19.43-12.55-37.39-25.46-53.62-37.98l71.85-87.27c.13-.16.17-.35.27-.51.96-1.62.69-3.71-.8-4.94-1.65-1.36-4.09-1.12-5.45.53l-.4.49-71.59,86.95c-9.74-7.66-18.84-15.13-27.14-22.22-7.35-6.27-14.08-12.24-20.19-17.79l64.83-67.93c1.47-1.54,1.41-3.97-.11-5.45,0,0-.01-.02-.02-.03-.79-.76-1.82-1.1-2.84-1.05-.97.04-1.92.43-2.64,1.18l-64.93,68.04c-6.92-6.42-12.89-12.17-17.76-16.98-5.08-5.02-8.98-9.04-11.61-11.8-1.32-1.38-2.31-2.44-2.98-3.16-.67-.72-.99-1.07-.99-1.07-1.44-1.59-3.89-1.71-5.47-.27-1.59,1.44-1.71,3.89-.27,5.47h0c.07.07,13.29,14.64,36.57,36.02,0,0,0,.01.01.02,0,0,.01,0,.02.01,14.29,13.12,32.34,28.79,53.54,45.3.04.03.05.08.09.11.05.04.11.05.15.08,33.82,26.32,75.51,54.67,122.3,77.94.1.05.19.1.29.15,1.92.95,4.24.17,5.19-1.75.91-1.82.21-3.98-1.51-5.01-.09-.05-.14-.14-.24-.18-20.45-10.15-39.91-21.32-58.2-32.86Z"/>
          </g>
        </g>
      </g>
    </g>
  </g>
</svg>