<?xml version="1.0" encoding="UTF-8"?>
<svg xmlns="http://www.w3.org/2000/svg" xmlns:xlink="http://www.w3.org/1999/xlink" viewBox="0 0 2122 1138.92">
  <defs>
    <style>
      .cls-1 {
        fill: #0e1014;
      }

      .cls-2 {
        fill: #2e1603;
      }

      .cls-3 {
        fill: #373c47;
      }

      .cls-4 {
        fill: #f7b6a0;
      }

      .cls-5 {
        fill: #4a2914;
      }

      .cls-6 {
        fill: #6abeaa;
      }

      .cls-7 {
        fill: #462620;
      }

      .cls-8 {
        fill: #008ac0;
      }

      .cls-9 {
        fill: #00597b;
      }

      .cls-10 {
        stroke-width: 2.89px;
      }

      .cls-10, .cls-11 {
        stroke: #21263d;
      }

      .cls-10, .cls-11, .cls-12 {
        fill: none;
        stroke-linecap: round;
        stroke-linejoin: round;
      }

      .cls-13 {
        fill: #1c0900;
      }

      .cls-14 {
        fill: #aa241c;
      }

      .cls-11 {
        stroke-width: 5.15px;
      }

      .cls-15 {
        fill: #7b482d;
      }

      .cls-16 {
        fill: #5f3b29;
      }

      .cls-17 {
        fill: #4e3120;
      }

      .cls-18 {
        fill: #673c24;
      }

      .cls-19 {
        fill: #005ba8;
      }

      .cls-20 {
        fill: #a8dbed;
      }

      .cls-20, .cls-21 {
        mix-blend-mode: multiply;
      }

      .cls-22 {
        fill: #78392d;
      }

      .cls-23 {
        fill: #8a502f;
      }

      .cls-24 {
        fill: #22252d;
      }

      .cls-25 {
        isolation: isolate;
      }

      .cls-26 {
        fill: #0e1734;
      }

      .cls-27 {
        fill: #002b49;
      }

      .cls-28 {
        fill: #0090b0;
      }

      .cls-29 {
        fill: #200c00;
      }

      .cls-30 {
        fill: #21263d;
      }

      .cls-31 {
        fill: #36a9e1;
      }

      .cls-21 {
        fill: #46bfe0;
      }

      .cls-32 {
        fill: #003e64;
      }

      .cls-33 {
        fill: #fff;
      }

      .cls-34 {
        fill: #003e74;
      }

      .cls-35 {
        fill: #b7793e;
      }

      .cls-36 {
        fill: #9464a7;
      }

      .cls-37 {
        fill: #422410;
      }

      .cls-38 {
        fill: #352c1f;
      }

      .cls-39 {
        fill: #b5673e;
      }

      .cls-40 {
        fill: #424856;
      }

      .cls-41 {
        fill: #9d6835;
      }

      .cls-42 {
        fill: #1d2026;
      }

      .cls-43 {
        fill: #331a06;
      }

      .cls-44 {
        fill: #5e351f;
      }

      .cls-45 {
        fill: #e72d45;
      }

      .cls-46 {
        fill: #a1d2c1;
      }

      .cls-47 {
        fill: #c67d47;
      }

      .cls-48 {
        fill: #005490;
      }

      .cls-49 {
        fill: #e74645;
      }

      .cls-50 {
        fill: #f2937c;
      }

      .cls-51 {
        fill: #82bf77;
      }

      .cls-12 {
        stroke: #f2937c;
        stroke-width: 2.9px;
      }

      .cls-52 {
        fill: #03041e;
      }

      .cls-53 {
        clip-path: url(#clippath);
      }

      .cls-54 {
        fill: #111318;
      }

      .cls-55 {
        fill: #d42a26;
      }
    </style>
    <clipPath id="clippath">
      <rect class="cls-31" width="2122" height="1138.92"/>
    </clipPath>
  </defs>
  <g class="cls-25">
    <g id="Calque_2" data-name="Calque 2">
      <g id="Capa_2" data-name="Capa 2">
        <g>
          <rect class="cls-31" width="2122" height="1138.92"/>
          <g class="cls-53">
            <g>
              <g>
                <rect class="cls-33" x="1.05" y="-676.24" width="2119.91" height="1991.88"/>
                <polygon class="cls-20" points="2120.95 914.11 2120.95 60.54 1952.69 60.54 1952.69 149.87 1914.05 149.87 1914.05 258.85 1887.04 258.85 1887.04 227.69 1814.33 227.69 1814.33 258.85 1787.33 258.85 1787.33 -432.64 1726.6 -432.64 1726.6 -473.83 1608.06 -473.83 1608.06 15.81 1572.83 15.81 1572.83 -46.51 1506.52 -46.51 1506.52 15.81 1471.29 15.81 1471.29 258.85 1383.83 258.85 1383.83 37.62 1334.54 37.62 1334.54 106.17 1197.77 106.17 1197.77 306.41 1120.49 306.41 1120.49 275.25 1061 275.25 1061 33.19 1022.37 33.19 1022.37 -56.14 854.1 -56.14 854.1 145.6 827.1 145.6 827.1 114.44 754.38 114.44 754.38 145.6 727.37 145.6 727.37 -278.42 548.11 -278.42 548.11 -97.44 512.87 -97.44 512.87 -159.76 446.58 -159.76 446.58 -97.44 411.34 -97.44 411.34 145.6 274.58 145.6 274.58 -7.09 137.81 -7.09 137.81 193.15 60.53 193.15 60.53 161.99 1.05 161.99 1.05 914.11 2120.95 914.11"/>
                <path class="cls-21" d="M2078.57,561.15c-92.27-15.8-167.44-75.56-238.79-132.2-76.49-60.71-156.88-125.23-255.41-143.89-261.3-49.48-419.57,221.78-647.55,288.33-63.97,18.67-134.17,28.87-199.43,10.25-64.93-18.53-115.3-63.16-156.11-115.55-38.33-49.21-70.63-104.93-118.83-145.54-44.91-37.83-100.9-59.5-159.49-62.42-105.86-5.28-211.72,35-301.92,89.82v564.16h2119.91v-349.3c-14.1-.11-28.25-1.24-42.39-3.66Z"/>
                <path class="cls-8" d="M475.45,844.68c37.78,0,68.42-30.63,68.42-68.41s-30.64-68.41-68.42-68.41c-9.66,0-18.83,2.02-27.16,5.63-7.21-30.06-34.19-52.44-66.47-52.44-14.97,0-28.77,4.87-40.04,13.03-9.46-26.46-34.67-45.44-64.38-45.44-37.78,0-68.42,30.63-68.42,68.41,0,5.7.77,11.21,2.08,16.5-8.36-3.65-17.58-5.7-27.29-5.7-37.79,0-68.42,30.63-68.42,68.41s30.63,68.41,68.42,68.41h291.66Z"/>
                <path class="cls-8" d="M2023.21,871.27c26.74,0,48.43-21.68,48.43-48.42s-21.69-48.42-48.43-48.42c-6.83,0-13.32,1.43-19.21,3.99-5.1-21.28-24.2-37.11-47.03-37.11-10.6,0-20.37,3.44-28.35,9.22-6.69-18.73-24.53-32.15-45.55-32.15-26.74,0-48.42,21.68-48.42,48.42,0,4.03.55,7.93,1.47,11.68-5.92-2.58-12.44-4.03-19.31-4.03-26.74,0-48.42,21.68-48.42,48.42s21.68,48.42,48.42,48.42h206.4Z"/>
                <rect class="cls-46" x="1.05" y="836.03" width="2119.91" height="479.61"/>
                <g>
                  <path class="cls-51" d="M488,76.7c37.95,46.29,110.72,74.66,32.98,127.32-44.78,30.34-133.86,83.24-82.54,143.38,28.47,33.36,61.41,45.27,15.1,79.72-26.77,19.91-47.48,23.58-59.97,58.96-33.09,93.69,51.43,67.36,100.43,102.12,23.74,16.83,31.83,40.15,60.72,52.57,32.57,14,65.09,17.31,100.36,17.7,84.59.93,341.61-89.88,215.39-199.56-7.56-6.57-19.44-6.67-27.52-14.09,15-23.54,53.77-37.73,59.57-67.46,4.12-21.09-23.06-66-35.89-82.64-21.43-27.78-53.98-37.37-79.44-59.58-37.32-32.55-20.44-42.05-6.65-78.05,35.13-91.68-64.94-58.82-88.07-102.06-17.27-32.32,2.28-69.12-21.59-100.55-19.61-25.83-53.49-37.52-84.09-31.21-60.13,12.39-151.67,88.92-98.78,153.44Z"/>
                  <g>
                    <path class="cls-11" d="M638.5,94.95c2.84,146.04,6.73,304.73,11.44,453.5,1.76,55.7,2.23,110.43,1.95,166.49-.19,37.2-6.3,46.65-3.81,116.45"/>
                    <path class="cls-11" d="M557.43,420.8c29.14,33.05,60.91,65.78,88.71,98.3"/>
                    <path class="cls-11" d="M642.54,221.81c32.37-45.55,41.86-60.95,65.93-91.1"/>
                    <path class="cls-11" d="M569.42,255.37c24.85,25.7,51.84,60.8,74.32,83.91"/>
                    <path class="cls-11" d="M650.94,413.61c19.87-17.34,34.59-39.49,53.27-58.07,12.96-12.87,50.63-55.03,58.21-71.4"/>
                    <path class="cls-11" d="M650.93,579.64c24.35-18.39,44.74-41.53,64.77-64.73,12.59-14.58,34.29-31.63,41.32-48.56"/>
                  </g>
                  <path class="cls-11" d="M548.36-66.04c-31.67,32.58-74.87,50.42-72.29,102.15,1.91,38.33,38.93,45.46,54.84,79.83"/>
                  <path class="cls-11" d="M740.31,81.04c22.04,3.66,46.41,26.34,46.12,49.86-.28,22.18-26.31,54.25-24.93,72.29"/>
                  <path class="cls-11" d="M488.53,410.09c-32.41,9.11-74.17,35.51-91.61,64.76-10.22,17.15-18.83,58.4-1.3,72.97,10.16,8.45,25.69,3.02,38.06,4.37,19.1,2.08,18.75,4.58,31.78,15.57,12.21,10.29,40.02,42.48,57.96,31.79"/>
                  <path class="cls-11" d="M847.51,435.02c1.63,22.2,15.62,21.14,29.91,29.91,14.87,9.12,21.47,16.54,27.56,34.89,10.22,30.78-5.14,62.5-35.04,79.78"/>
                </g>
                <path class="cls-6" d="M2014.5,1160.41c-51.33,22.67-103.79,40.1-158.56,52.44-71.9,16.2-145.03,26.58-218.42,33.11-149.12,13.26-299.56,13.32-449.15,10.94-151.96-2.42-305.49-9.7-454.88-39.44-37.99-7.56-80.76-15.04-113.92-36.17-9.83-6.26-24.79-17.61-20.6-31.25,5.49-17.92,23.54-31.4,37.6-42.45,18.86-14.8,39.35-27.84,57.29-43.78,1.66-1.47,8.65-7.75,8.24-8.22-3.21-3.73-6.62-7.31-10.44-10.44-8.94-7.32-19.1-13.18-29.88-17.37-48.02-18.67-102.59-17.16-153.21-14.61-46.52,2.35-92.9,6.17-139.51,6.4-23.11.12-46.5-.34-69.37-4.02-15.48-2.49-33.83-5.91-46.02-16.69-31.74-28.08,19.05-71.75,38.87-88.42,35.97-30.24,75.99-54.54,118.46-74.42H1.05v479.61h2119.91v-229.79c-25.53,35.26-67.65,57.42-106.46,74.56Z"/>
                <path class="cls-6" d="M2056.75,1012.93c0,42.68-300.64,77.28-671.48,77.28s-671.49-34.6-671.49-77.28,300.64-77.28,671.49-77.28,671.48,34.6,671.48,77.28Z"/>
              </g>
              <g>
                <g>
                  <path class="cls-30" d="M949.67,795.45c-1.27,0-2.47-.24-3.57-.78-.63-.31-.88-1.07-.58-1.7.31-.63,1.06-.89,1.69-.58,6.44,3.18,19.65-8.67,23.98-12.56,11.15-10,19.1-19.17,25.93-29.86,13.66-21.4,19.1-38.05,20.08-61.44.37-8.77.92-17.75,1.46-26.43.94-15.08,1.9-30.67,1.93-45.98.01-6.6-.48-13.28-.96-19.74-1.09-14.74-2.23-29.98,2.7-44.91,3.76-11.4,13.58-21.64,24.42-25.49,5.05-1.79,12.3-2.39,19.38-1.6,2.57.29,5.93,1.83,9.19,3.32,2.81,1.29,6.64,3.04,7.83,2.69.67-.22,1.38.17,1.59.83.2.67-.17,1.38-.84,1.58-2,.63-4.96-.66-9.63-2.8-3.08-1.41-6.26-2.87-8.43-3.11-6.72-.76-13.55-.21-18.25,1.46-10.14,3.6-19.32,13.2-22.86,23.89-4.77,14.45-3.7,28.76-2.58,43.92.49,6.51.99,13.25.97,19.94-.03,15.39-1,31.02-1.94,46.13-.54,8.67-1.09,17.63-1.46,26.38-.99,23.58-6.72,41.16-20.48,62.7-6.95,10.9-15.04,20.23-26.22,30.26-4.98,4.47-15.46,13.87-23.37,13.87Z"/>
                  <g>
                    <g>
                      <path class="cls-24" d="M1212.9,174.45c22.8-1.64,80.7,1.3,84.29,32.95,1.38,12.22-13.68,20.05-23.28,22.92-13.24,3.94-27.56,1.29-40.91-.56-18.36-2.54-36.91-5.49-54.94-9.83-5.54-1.33-16.12-5.53-18.52-11.16-2.84-6.67,3.54-16.03,8.43-20.34,11.69-10.25,29.98-12.91,44.94-13.98Z"/>
                      <g>
                        <path class="cls-4" d="M1194.74,735.26c8.77,68.16-7.04,91.73-20.27,199.82-2.54,20.7-2.5,48.7-2.5,48.7l-22.99-.05-10.84-242.56s-2.11-57.03,10.56-107.73l71.4.42-25.35,101.39Z"/>
                        <g>
                          <path class="cls-19" d="M1180.15,994.87l-89.57-.22c1.19-10.46,9.33-12.76,9.33-12.76l25.84-7.78,23.35-13.88,8.8,4.25s1.77-.31-.01,4c0,0,11.12,2.34,16.36.04l5.91,27.35"/>
                          <rect class="cls-34" x="1133.28" y="952.06" width="4.16" height="89.57" transform="translate(135.74 2129.76) rotate(-89.86)"/>
                          <path class="cls-33" d="M1118.18,976.74c1.14.35,2.07,1.79,2.65,2.77.67,1.13,1.01,2.4,1.27,3.67.07.34.55.42.84.41.19,0,.37-.01.55-.04.14-.02.64-.13.58-.37-.06-.24-.19-.29-.39-.46-.19-.16-.6-.16-.79,0-.21.18-.33.22-.39.46.33-.12.66-.24.99-.37-.18-.03-.37-.04-.55-.04.28.14.56.27.84.41-.43-2.57-2.28-7.09-5.48-6.86-.32.02-.47.31-.11.42h0Z"/>
                          <path class="cls-33" d="M1126.64,973.49c.35,1.14.98,2.2,1.62,3.2.78,1.23,1.3,2.55,2.01,3.81.19.33,1.41.41,1.4-.09-.02-2.66-2.98-4.78-4.03-7.06-.14-.3-1.12-.26-1,.14h0Z"/>
                          <path class="cls-33" d="M1133.02,970.41c1.78,2.03,2.96,4.63,3.65,7.22.22.8,2.11.38,1.8-.12-.21-.33-.26-.4-.54-.68-.14-.14-.54-.14-.68,0-.28.28-.33.35-.54.68.6.04,1.2.08,1.8.12-.78-3.05-2.41-5.32-4.69-7.45-.2-.19-1.1-.1-.81.23h0Z"/>
                          <path class="cls-33" d="M1140.55,965.16c.55,1.16.91,2.39,1.61,3.48.76,1.18,1.39,2.35,1.47,3.78.04.69,1.58.55,1.87.13.01-.02.02-.03.03-.04.03-.06.03-.13,0-.19-.07-.1-.14-.2-.21-.3-.15-.22-.55-.18-.74-.05.02.03.04.06.05.09.28.05.55.11.83.17-.01-.01-.1-1.13-.15-1.28-.23-.69-.55-1.29-.94-1.9-.86-1.35-1.72-2.77-2.7-4.03-.2-.27-1.32-.28-1.12.15h0Z"/>
                        </g>
                      </g>
                      <g>
                        <path class="cls-4" d="M1290.59,716.76c27.72,62.89,19.24,89.97,37.17,197.38,3.43,20.57,11.41,47.42,11.41,47.42l-22.07,6.46-79.13-229.55s-18.19-54.1-20.39-106.3l68.59-19.83,4.42,104.42Z"/>
                        <g>
                          <path class="cls-19" d="M1350.15,969.87l-85.96,25.17c-1.82-10.37,5.33-14.88,5.33-14.88l22.58-14.78,18.45-19.93,9.64,1.58s1.61-.81,1.12,3.84c0,0,11.33-.91,15.7-4.6l13.42,24.56"/>
                          <rect class="cls-34" x="1262.97" y="982.37" width="89.57" height="4.16" transform="translate(-223.98 407.27) rotate(-16.32)"/>
                          <path class="cls-33" d="M1285.76,970c1.15,0,2.39,1.09,3.17,1.82.96.89,1.64,2.01,2.24,3.16.19.36.91.35,1.23.24.16-.05.31-.11.46-.18.14-.06.3-.21.2-.37-.11-.2-.34-.3-.53-.4-.18-.1-.56-.11-.72.04-.12.13-.3.26-.29.45.19-.13.38-.25.58-.37-.19.03-.37.07-.55.12.41.09.82.17,1.23.25-.85-1.74-2.15-3.27-3.76-4.34-1.04-.7-2.37-1.3-3.6-.8-.4.16.15.39.33.39h0Z"/>
                          <path class="cls-33" d="M1292.74,964.38c.67,1.02,1.62,1.87,2.55,2.66,1.1.94,1.96,2.05,2.98,3.06.26.25,1.46.28,1.31-.27-.32-1.13-1.5-2-2.37-2.71-1.15-.94-2.49-1.73-3.46-2.87-.2-.23-1.22-.19-1,.13h0Z"/>
                          <path class="cls-33" d="M1298.05,959.7c2.3,1.42,4.12,3.52,5.53,5.81.37.59,2.22.29,1.68-.34-.21-.24-.38-.37-.65-.54-.19-.13-.57-.16-.72.05-.2.26-.27.41-.34.72.6-.04,1.2-.08,1.8-.12-1.59-2.69-3.88-4.49-6.63-5.89-.24-.13-1.12.04-.67.32h0Z"/>
                          <path class="cls-33" d="M1303.77,952.51c.93,1,1.69,2.1,2.73,3,1,.85,1.83,1.78,2.26,3.03.18.54,1.81.49,1.87-.13.02-.24-.22-.38-.37-.53-.13-.14-.65-.17-.74.05.14.01.27.03.41.04.22.11.44.22.67.33-.42-1.27-1.24-2.18-2.24-3.04-1.19-1.01-2.33-2.11-3.57-3.03-.25-.18-1.39-.13-1.01.29h0Z"/>
                        </g>
                      </g>
                      <path class="cls-9" d="M1132.34,435.73l8.32,79.84-13.84,156.25s-.79,3.88-1.67,10.47c14.51,8.52,33.07,12.34,48.49,14.82,13.63,2.19,29.12,4.09,43.85,2.87,16.86-48,63.1-179.65,77.8-222.01l2.54-42.24h-165.48Z"/>
                      <path class="cls-35" d="M1182.71,82.55c-12.63,4.66-11.21,16.64-13.68,28.09-1.02,4.7-3.03,9.2-4.27,13.73-2.38-5.12-2.8-10.92-3.56-16.43-1.58-11.44-2.69-21.47,1.45-32.57,2.63-7.06,24.9-14.79,32.32-16.06,10.56-1.79,6.55,6.97,2.75,17.54l-15,5.7Z"/>
                      <path class="cls-4" d="M1390.16,359.76c.1-8.06-4.72-22.35-8.81-29.91-24.76-45.89-67.95-79.24-83.94-84.97-2.69-2.32-31.73-2.97-21.32,26.02,5.84,14.38,76.23,89.85,88.91,96.82,0,0,17.11,12.04,25.16-7.96Z"/>
                      <path class="cls-9" d="M1311.34,675.27l-20.28-129.27,4.65-83.23h-120.4l.85,79,46.47,158s48.58,10.56,88.72-24.5Z"/>
                      <path class="cls-4" d="M1244.88,125.88c.12,7.37-3.98,15.73-10.62,18.79-8.99,4.16-12.46-4.09-12.46-12.17,0-6.51,2.85-17.72,10.22-20.04,6.96-2.18,12.77,7.37,12.86,13.42Z"/>
                      <rect class="cls-4" x="1186.22" y="143.11" width="44.14" height="54.9"/>
                      <path class="cls-50" d="M1216.88,173.49c4.43-9.3,7.06-18.7,6.32-30.4l-37,.03.04,47.72c11.62-1.79,25.93-7.45,30.65-17.35Z"/>
                      <path class="cls-4" d="M1226.42,145.92c-4.22,10.62-9.98,19.35-19.98,25.5-9.78,6.02-19.89,9.1-29.34,1.31-7.52-6.2-12.4-15.25-15.14-24.37-6.31-20.99-1.53-50.06,11.81-66.99,14.64-18.59,42.97-14.47,53.93,6.25,8.92,16.88,5.53,41.15-1.28,58.3Z"/>
                      <g>
                        <path class="cls-50" d="M1234.05,138.17c-.55,0-1.06-.37-1.22-.93-2.27-8.08-.53-15.73,4.12-18.2.61-.32,1.39-.09,1.72.53.33.62.09,1.39-.53,1.72-3.49,1.85-4.75,8.55-2.87,15.26.19.68-.2,1.38-.88,1.56-.11.03-.23.05-.35.05Z"/>
                        <path class="cls-50" d="M1240.78,127.87c-.17,0-.34-.04-.5-.1-1.93-.83-4.47-1.3-5.79-.47-.59.37-1.38.19-1.75-.4-.37-.59-.19-1.38.4-1.75,2.82-1.76,6.94-.23,8.13.29.65.28.95,1.03.67,1.67-.21.48-.68.77-1.17.77Z"/>
                      </g>
                      <g>
                        <path class="cls-30" d="M1175.86,120.71c-.13,2.34-1.38,4.16-2.78,4.09-1.4-.08-2.43-2.04-2.29-4.37.13-2.34,1.37-4.16,2.78-4.09,1.4.08,2.43,2.04,2.29,4.37Z"/>
                        <path class="cls-30" d="M1206.23,120.71c-.13,2.34-1.37,4.16-2.78,4.09-1.4-.08-2.43-2.04-2.29-4.37.13-2.34,1.37-4.16,2.78-4.09,1.4.08,2.43,2.04,2.29,4.37Z"/>
                        <path class="cls-41" d="M1203.89,112.06c2.59.06,7.06.73,9.27,1.53.55-7.07-11.18-5.61-13.97-5.4-1.35.1-2.58.64-1.8,3.7.39,1.55,1.58.04,6.5.16Z"/>
                        <path class="cls-41" d="M1175.71,112.06c-2.59.06-7.06.73-9.27,1.53-.55-7.07,11.18-5.61,13.97-5.4,1.34.1,2.57.64,1.8,3.7-.39,1.55-1.58.04-6.5.16Z"/>
                        <path class="cls-50" d="M1210.57,131.25c-.09,1.67-3.21,2.83-6.97,2.62-3.76-.21-6.73-1.73-6.63-3.39.09-1.66,3.21-2.83,6.97-2.61,3.76.21,6.72,1.73,6.63,3.39Z"/>
                        <path class="cls-50" d="M1177.04,131.25c-.09,1.66-3.21,2.83-6.97,2.62-3.75-.22-6.72-1.73-6.63-3.39.09-1.66,3.21-2.83,6.97-2.61,3.75.21,6.72,1.73,6.63,3.39Z"/>
                        <path class="cls-50" d="M1189.83,150.34c-1.86,0-3.66-.23-5.15-.67-.68-.19-1.06-.9-.86-1.57.2-.68.91-1.06,1.57-.86,3.73,1.09,9.98.61,12.78-1.67.55-.44,1.34-.36,1.79.19.44.55.36,1.35-.19,1.79-2.36,1.91-6.29,2.8-9.95,2.8Z"/>
                        <path class="cls-50" d="M1201.67,149.09c-.29,0-.58-.1-.81-.3-.99-.82-2.3-2.14-2.3-2.14l1.8-1.8s1.22,1.22,2.13,1.99c.54.45.61,1.25.16,1.79-.25.3-.61.45-.97.45Z"/>
                      </g>
                      <path class="cls-4" d="M1150.25,330.74l-38.49-9.98s-4.2,49.1-16.37,105.67c-6.58,30.59-15.49,63.37-27.32,91.74l12.26,2.02s21.54-35.36,40.84-82.37c13.44-32.72,25.81-71.08,29.07-107.08Z"/>
                      <polygon class="cls-4" points="1166.43 206.23 1186.27 191.42 1230.39 191.42 1254.21 206.23 1166.43 206.23"/>
                      <path class="cls-24" d="M1324.35,241.48c-18.3-20.79-35.88-26.32-35.88-26.32l-57.36-24.07c-32.14,17.35-44.88-.26-44.88-.26l-51.99,22.07s-12.16,1.88-12.16,17.93v108.99c-.51,27.27,8.95,52.58,8.45,79.85-.3,16.06-1.27,44.36,0,80.69,0,0,168.14,19.43,170.67-16.9,4.23-65.06,3.68-144.88-2.74-168.99"/>
                      <path class="cls-4" d="M1046.3,520.99c-3.52,3.27-10,13.98-7.75,18.68,4.89.81,10.16,5.85,15.03,6.14,6.74.4,10.81-5.86,15.4-10.31,3.22-3.13,11.67-11.48,11.59-16.35-.12-8.5-4.09-11.47-10.76-9.16-10.15,3.52-21.08,8.72-23.52,10.99Z"/>
                      <path class="cls-35" d="M1241.23,79.8c-5.83-11.42-17.75-17.36-30.21-18.59-11.88-1.17-38.56-.44-42.46,12.67-6.47,21.76,34.85,17.74,47.53,19.01,2.4.24,1.2,8.56,3.8,9.62,6.97,2.85,5.52,21.37,5.7,28.83,3.01,0,1.78,1.16,3.17-2.12,1.04-2.46,2.26-12.3,4.33-14.15,4.97-4.43,9.5,2.01,10.41,5.26,0,0,5.96-19.42-2.28-40.53Z"/>
                      <path class="cls-4" d="M1389.22,361.45c4.08-7.74-22.23,50.12-115.66,104.01l-7.86-9.3c8.16-9.75,56.2-42.83,92.07-112.09,0,0,4.06-4.61,31.45,17.38Z"/>
                      <path class="cls-4" d="M1285.94,446.62c-6.68-6.08-10.5-6.03-40.33-7.61.3,6.92,4.13,6.87,13.16,8.2-.06,0-2.97-.73-3.21-.75-3.69-.28-6.13-1.25-7.75-.18-2.7,1.81-2.36,6.02-1.08,12.66.22,1.08,3.25,3.42,3.38,4.61.14,1.2,2.92,3.16,3.47,4.37.96,2.15,2.23,1.07,4.2,2.07.95.48,1.86,1.36,2.86,1.65,6.56,1.9,12.52-3.76,17.38-7.25,3.81-2.74,9.49-6.76,10.38-11.79.4-2.23-.84-4.5-2.47-5.99Z"/>
                      <path class="cls-1" d="M1130.53,500.37s132.65,11.62,169.83-12.89v15.84s-56.4,26.61-167.93,9.5l-1.9-12.46Z"/>
                      <path class="cls-24" d="M1263.92,442.48c3.28,8.02,12.97,17.99,13.91,26.31,1.56,13.91-28.69,25.03-41.12,18.4-12.57-6.7-26.55-42.28-27.6-56.18-1.07-14.2,19.24-21.96,30.72-22.64,19.35-1.13,17.82,18.76,24.08,34.11Z"/>
                      <path class="cls-24" d="M1280.08,318.29s57.67,50.69,57.67,50.69c38.65,22.81,57.03-8.87,57.03-8.87,0-43.09-70.42-118.63-70.42-118.63,0,0-77.86,28.64-44.27,76.8Z"/>
                      <path class="cls-24" d="M1343.45,325.89s-34.22,41.83-62.1,109.63c0,0,6.34,19.22,21.12,21.76,0,0,89.14-73.72,92.31-97.17,0,0-18.38-32.95-51.33-34.22Z"/>
                      <path class="cls-24" d="M1091.24,374.05s-35.91,113.65-29.99,128c8.42,20.45,27.04,14.36,27.04,14.36,30.42-28.72,46.47-96.32,46.47-96.32l38.02-173.21c0-33.8-38.53-33.99-38.53-33.99,0,0-15.04,6.64-19.56,23,0,0-17.11,24.08-23.45,138.15Z"/>
                      <path class="cls-41" d="M1222.17,62.9c.47.16.95.33,1.42.5,5.03,1.87,12.82,6.07,11.58,12.5-1.38,7.2-13.94,15.16-20.42,17.17-5.3,1.65-11.22.36-16.62-.07-18.14-1.45-39.3-7.25-40.01-29.12,0,0,3.45,3.77,6.62,3.77,0,0-7.29-12.67,6.65-23.13-.75.56,7.41,6.79,7.91,7.07,6.32,3.53,13.24,6.03,20.36,7.34,7.47,1.37,15.24,1.58,22.49,3.96Z"/>
                      <path class="cls-50" d="M1184.7,116.28c-1.91,4.61-3.77,10.22-3.94,15.23-.13,3.56,5.11,4.16,7.25,5.3,1,.53,4.18-.41,2.47-1.21-2.55-1.2-6.82-.96-6.99-4.83-.09-1.93.71-4.18,1.02-6.08.47-2.78.78-5.57,1.28-8.34.06-.34-.97-.36-1.09-.07h0Z"/>
                      <path class="cls-40" d="M1282.61,434.89c-.09,0-.18-.01-.27-.03-.68-.15-1.11-.83-.96-1.51,4.33-19.47,9.55-28.5,16.17-39.94,13.88-24,29.34-48.68,52.19-63.5.58-.37,1.37-.22,1.75.37.38.59.21,1.37-.37,1.75-22.37,14.51-37.65,38.91-51.37,62.64-6.51,11.25-11.64,20.14-15.88,39.23-.13.59-.66.99-1.24.99Z"/>
                      <path class="cls-40" d="M1323.17,356.94c-.19,0-.39-.05-.58-.14-9.34-4.8-19.26-13.41-25.3-21.94-1.73-2.45-3.55-4.94-5.4-7.48-10.45-14.34-22.3-30.6-25.11-48.19-.11-.69.36-1.34,1.05-1.45.7-.1,1.34.36,1.45,1.05,2.72,16.99,14.37,32.99,24.66,47.09,1.86,2.55,3.68,5.05,5.42,7.51,5.81,8.22,15.39,16.52,24.38,21.15.62.32.87,1.08.55,1.7-.22.44-.67.69-1.13.69Z"/>
                      <path class="cls-40" d="M1129.9,459.6c-.7,0-1.27-.56-1.27-1.27,0-2.47.13-7.55.28-13.44.24-9.42.54-21.14.36-25.16-.55-12.29-2.06-22.53-3.52-32.43-1.37-9.32-2.79-18.97-3.45-30.43-2.42-41.83.5-74.28,8.94-99.2.22-.66.95-1.01,1.61-.79.66.23,1.02.95.79,1.61-8.33,24.61-11.21,56.74-8.8,98.24.65,11.35,2.06,20.94,3.43,30.2,1.46,9.96,2.98,20.27,3.54,32.69.19,4.11-.1,15.39-.36,25.34-.15,5.87-.28,10.94-.28,13.37,0,.7-.56,1.27-1.27,1.27Z"/>
                      <path class="cls-40" d="M1066.32,469.53c-.05,0-.1,0-.15,0-.7-.08-1.19-.71-1.11-1.41,1.54-13.13,5.2-26.39,8.74-39.22,1.98-7.16,4.02-14.57,5.64-21.79,1.28-5.67,3.26-11.18,5.18-16.5,1.69-4.7,3.44-9.55,4.67-14.45,2.86-11.39,3.44-23.39,3.64-34.66.32-17.53,5.52-65.29,11.05-81.5.23-.66.96-1.01,1.61-.79.66.23,1.02.95.79,1.61-5.47,16-10.6,63.33-10.92,80.72-.2,11.42-.8,23.6-3.71,35.23-1.27,5.02-3.03,9.93-4.75,14.69-1.89,5.25-3.85,10.68-5.08,16.2-1.64,7.27-3.69,14.71-5.67,21.9-3.51,12.73-7.15,25.9-8.67,38.84-.07.64-.62,1.12-1.25,1.12Z"/>
                      <path class="cls-40" d="M1243.09,225.55c-.47,0-.93-.27-1.14-.72-.3-.63-.03-1.39.6-1.69,3.97-1.88,10.03-2.52,16.46-3.21,11.43-1.22,24.38-2.59,26.6-11.37.17-.68.85-1.1,1.54-.92.68.17,1.09.86.92,1.54-2.65,10.5-16.54,11.97-28.79,13.28-6.2.66-12.06,1.28-15.64,2.98-.18.08-.36.12-.54.12Z"/>
                      <path class="cls-40" d="M1166.01,219.43c-.13,0-.27-.02-.4-.07-6.65-2.24-8.17-7-8.27-10.59-.28-9.32,8.46-20.92,15.8-23.89.64-.26,1.38.05,1.65.7.26.65-.05,1.39-.7,1.65-6.41,2.59-14.46,13.46-14.22,21.46.12,4.06,2.32,6.84,6.55,8.27.67.22,1.02.95.8,1.61-.18.52-.67.86-1.2.86Z"/>
                      <path class="cls-40" d="M1251.35,200.84c-.24,0-.48-.07-.7-.21-.59-.38-.74-1.18-.36-1.75,1.59-2.39,2.04-4.47,1.34-6.19-.86-2.1-3.45-3.71-7.31-4.55-.68-.15-1.12-.82-.97-1.51.15-.69.81-1.1,1.51-.97,4.7,1.01,7.94,3.17,9.12,6.08.71,1.74,1.01,4.64-1.58,8.54-.24.37-.65.57-1.06.57Z"/>
                      <path class="cls-40" d="M1183.76,341.95c-.7,0-1.27-.56-1.27-1.27v-126.74c0-.7.57-1.27,1.27-1.27s1.27.57,1.27,1.27v126.74c0,.71-.57,1.27-1.27,1.27Z"/>
                      <path class="cls-40" d="M1216.71,341.95c-.7,0-1.27-.56-1.27-1.27v-126.74c0-.7.57-1.27,1.27-1.27s1.27.57,1.27,1.27v126.74c0,.71-.57,1.27-1.27,1.27Z"/>
                      <path class="cls-40" d="M1186.29,414.61c-.63,0-1.18-.48-1.25-1.13-.08-.69.42-1.32,1.11-1.4,30.9-3.51,68.09-40.97,80.12-65.21.32-.63,1.07-.88,1.7-.57.63.31.88,1.07.57,1.7-12.58,25.34-49.89,62.94-82.11,66.6-.05,0-.1,0-.15,0Z"/>
                      <path class="cls-40" d="M1236.99,450.09c-.67,0-1.23-.52-1.27-1.19-.77-13.56,6-36.04,12.73-56.24.22-.66.94-1.02,1.61-.8.66.22,1.02.94.8,1.6-6.27,18.8-13.37,42.08-12.62,55.29.04.7-.49,1.3-1.19,1.33-.02,0-.05,0-.07,0Z"/>
                      <path class="cls-40" d="M1280.08,481.15c-.59,0-1.11-.41-1.24-1.01-3.2-15.33-12.78-38.14-26.28-51.97-.49-.5-.48-1.31.02-1.79.5-.5,1.31-.48,1.79.02,13.86,14.19,23.68,37.54,26.95,53.22.14.68-.3,1.36-.98,1.5-.09.02-.17.03-.26.03Z"/>
                      <path class="cls-30" d="M1223.47,696.81c-.55,0-1.06-.36-1.22-.92-2.61-9.13-4.4-14.54-5.84-18.89-1.34-4.03-2.4-7.22-3.49-11.57-5.8-23.07-13.37-48.91-22.53-76.8l-.96-2.92c-3.7-11.29-7.19-21.95-12.08-32.42-1.94-4.16-5.04-8.46-8.04-12.62-4.38-6.09-8.92-12.38-10.45-18.89-.16-.68.26-1.37.94-1.52.69-.17,1.37.27,1.52.94,1.42,6.02,5.8,12.1,10.04,17.99,3.07,4.25,6.24,8.66,8.28,13.03,4.95,10.6,8.46,21.34,12.19,32.7l.96,2.92c9.17,27.95,16.77,53.84,22.58,76.97,1.07,4.26,2.11,7.41,3.43,11.39,1.45,4.37,3.25,9.8,5.87,18.99.19.68-.2,1.38-.87,1.57-.12.04-.24.05-.35.05Z"/>
                      <path class="cls-30" d="M1171.08,692.59c-.45,0-.88-.24-1.11-.67-1.18-2.18.02-7.9,2.13-17.06.9-3.9,1.74-7.58,2-9.87.32-2.86.62-5.71.91-8.57.75-7.18,1.52-14.62,2.62-21.89.81-5.39,1.59-10.82,2.38-16.26,2.07-14.28,4.21-29.04,6.72-42.93.13-.69.8-1.14,1.47-1.02.69.13,1.15.78,1.03,1.47-2.51,13.85-4.65,28.59-6.71,42.84-.79,5.44-1.58,10.87-2.39,16.27-1.08,7.22-1.85,14.62-2.6,21.78-.3,2.87-.6,5.73-.92,8.59-.27,2.43-1.13,6.19-2.05,10.16-1.26,5.49-3.17,13.79-2.37,15.29.33.62.1,1.38-.51,1.72-.19.1-.4.15-.6.15Z"/>
                      <path class="cls-30" d="M1274.8,549.05c-23.63,0-44.42-10.22-60.34-29.71-.44-.54-.36-1.34.18-1.78.54-.44,1.34-.37,1.78.18,16.29,19.96,37.79,29.91,62.33,28.69.77-.13,1.29.51,1.33,1.2.03.7-.51,1.29-1.2,1.33-1.37.06-2.73.1-4.07.1Z"/>
                      <path class="cls-30" d="M1272.47,695.97c-.6,0-1.13-.43-1.24-1.04-1.97-10.86-3.48-18.99-4.77-25.93-2.03-10.93-3.49-18.83-5.37-29.78-1.95-11.37-3.66-25.27-5.46-39.99-2.4-19.47-4.87-39.61-8.05-54.65-.14-.69.29-1.36.98-1.5.68-.13,1.36.29,1.5.98,3.2,15.15,5.68,35.34,8.08,54.87,1.8,14.69,3.51,28.56,5.45,39.87,1.87,10.94,3.33,18.83,5.36,29.75,1.29,6.94,2.8,15.07,4.78,25.94.12.69-.33,1.35-1.02,1.47-.08.01-.15.02-.23.02Z"/>
                    </g>
                    <g>
                      <g>
                        <g>
                          <path class="cls-15" d="M941.83,856.1l-8.85,130.97c.64,7.18-3.69,11.96-3.69,11.96h-21.87c.26-12.28,11.07-14.36,11.07-14.36l-9.81-76.54c-12.77-44.53-6.63-79.95-6.63-79.95,0,0,50.43-14.54,39.79,27.92Z"/>
                          <path class="cls-18" d="M902.04,828.17s-.31,1.77-.64,5.02c-.5,6.2-3.73,34.64,1.45,48.01,5.17,13.35,18.87,19.17,22.26,33.2,3.8,15.77,2.91,32.15,3.54,48.22.17,4.54.08,9.08-.14,13.61-.16,3.23-.13,11.45-1.2,14.53-1.59,4.56-3.63,5.15-5.29,8.25h7.28s4.33-4.78,3.69-11.96l8.85-130.97c10.64-42.46-39.79-27.92-39.79-27.92Z"/>
                        </g>
                        <path class="cls-5" d="M992.61,931.09c-8.46,2.45-17.14,9.3-21.12,15.68-4.75,7.61-4.3,16.32,1.92,23.27,3.38,3.78,8.7,8.29,13.78,10.57h-44.94s-6.93-.6-8.62,10.16h80.82c2.37,0,5.24-1.56,6.94-2.71,3.71-2.5,4.15-5.94,4.83-9.57,1.61-8.58,2.13-16.99,1.65-25.66-.31-5.7-1.61-11.26-6.57-15.57-6.08-5.28-16.92-8.41-25.58-6.9-1.06.19-2.1.43-3.11.72Z"/>
                        <path class="cls-15" d="M979.83,805.41l-13.28-38.91h-58.19l-6.32,61.68c-2.21,95.27,114.19,158.57,114.19,158.57h58.19c26.02-92.2-94.59-181.34-94.59-181.34Z"/>
                        <path class="cls-15" d="M966.38,869.26l-10.88,117.81c-1,9.14-3.45,11.96-3.45,11.96h-22.12c.51-12.28,11.06-14.6,11.06-14.6l-9.81-76.3c-15.47-28.11-6.63-79.95-6.63-79.95,0,0,41.81,7.8,41.82,41.08Z"/>
                        <path class="cls-18" d="M979.83,805.41l-13.28-38.91h-58.16l-1.01,14.72c.65,2.37,1.4,4.72,2.32,7,2.39,5.9,5.14,9.26,11.63,11.29,11.24,3.52,23.71.19,35.03,2.02,5.08.82,8.17,3.74,11.11,7.8,3.92,5.4,7.04,11.48,11.39,16.56,8.23,9.62,15.85,19.98,24.88,28.88,10,9.87,20.81,18.97,29.84,29.78,2.13,2.55,12.56,19.36,7.94,21.4,0,0-33.22-1.31-45.43,29.84-3.25,13.38-2.32,27.51,2.55,39.94,10.57,7.18,17.6,11,17.6,11h58.19c26.02-92.2-94.59-181.34-94.59-181.34Z"/>
                        <g>
                          <path class="cls-15" d="M1076.02,985.86c-.15-.37-.34-.7-.58-1-1.46-1.82-4.37-2.39-5.95-4.15-3.65-4.05-.37-9.31-.37-9.31,6.44-8.75,9.06-17.38,9.06-17.38,1.96-30.44-22.66-40.43-22.66-40.43-22.84-7.47-37.57,6-37.57,6-28.73,26.52-4.38,54.84-4.38,54.84,4.01,4.48,10.32,9.84,16.34,12.53h-53.3s-8.21-.71-10.23,12.06h98.67s11.59-1.67,10.98-13.17Z"/>
                          <path class="cls-18" d="M1078.17,954.03c1.96-30.44-22.66-40.43-22.66-40.43-7.47-2.44-14.06-2.64-19.56-1.8,11.71,1.17,21.53,9.88,24.99,21.85,1.74,6.06,1.99,12.61,1,18.84-.56,3.53-1.47,6.97-2.59,10.37-1.17,3.6-2.97,7.37-2.05,11.24.75,3.16,2.42,6.05,3.14,9.2.4,1.76.37,3.33-.67,4.86-2.59,3.8-9.45,4.76-13.59,5.21-6.48.69-13,.42-19.49.1-6.51-.32-12.96-.15-19.47-.3-4.55-.1-9.09-.42-13.65-.45-2.49-.01-5.03.26-7.52.08-3.8-.26-5.64-2.7-7.23-5.82h-2.23s-8.21-.71-10.23,12.06h98.67s11.59-1.67,10.98-13.17c-.15-.37-.34-.7-.58-1-1.46-1.82-4.37-2.39-5.95-4.15-3.65-4.05-.37-9.31-.37-9.31,6.44-8.75,9.06-17.38,9.06-17.38Z"/>
                        </g>
                        <path class="cls-45" d="M979.53,804.51l-5.19-15.21c-48.17,12.25-68.31,0-68.31,0l-1.56,15.21s19.82,10.99,75.06,0Z"/>
                      </g>
                      <g>
                        <path class="cls-15" d="M969.62,710.84c-4.95-5.81-10.16-8.26-10.16-8.26-6.38-4.2-18-5.17-23.26-5.4v-.07s-.5,0-1.36.02c-.86-.02-1.36-.02-1.36-.02v.07s-.06,0-.09,0c-.03,0-.06,0-.06,0l-.03-.07s-.5,0-1.36.02c-.86-.02-1.36-.02-1.36-.02v.07c-5.26.22-16.89,1.2-23.26,5.4,0,0-5.2,2.45-10.15,8.26-7.9,44.06.69,54.81.69,54.81,0,0,7.54,12.61,9.91,21.02,0,0,3.07,18.98,24.43,16.49.5.06.97.1,1.45.13.47-.03.96-.07,1.45-.13,21.36,2.49,23.92-16.49,23.92-16.49,2.36-8.41,9.91-21.02,9.91-21.02,0,0,8.58-10.75.69-54.81Z"/>
                        <path class="cls-38" d="M976.19,758.35c6.61,5.67,10.99,0,10.99,0-.73-12,10.26-17.95,10.26-17.95,8.06-9.38,0-14.63,0-14.63-6.6-3.43-11.72-10.29-11.72-10.29-8.79-13.14-21.84-9.3-21.84-9.3,0,0,5.72,6.45,6.45,13.88,0,0-2.2,26.86,5.86,38.29Z"/>
                        <path class="cls-38" d="M891.03,758.35c-6.61,5.67-10.99,0-10.99,0,.73-12-10.26-17.95-10.26-17.95-8.06-9.38,0-14.63,0-14.63,6.6-3.43,11.72-10.29,11.72-10.29,8.79-13.14,21.84-9.3,21.84-9.3,0,0-5.72,6.45-6.45,13.88,0,0,2.2,26.86-5.86,38.29Z"/>
                        <path class="cls-38" d="M951.17,740.18c0,2.43,1.97,4.4,4.4,4.4s4.41-1.97,4.41-4.4-1.97-4.4-4.41-4.4-4.4,1.98-4.4,4.4Z"/>
                        <path class="cls-18" d="M933.79,804.06c-19.64.92-26.13-11.09-27.36-18.97.13-6.52,1.46-11.06,4.39-17.01,6.29-12.79,20.28-15.83,31.82-12.36,3.62,1.09,7.48,3.29,9.98,6.49,3.76,5.9,7.03,13.92,8.21,21.2,0,0-1.3,22.69-27.05,20.65Z"/>
                        <path class="cls-38" d="M914.73,740.18c0,2.43-1.97,4.4-4.41,4.4s-4.4-1.97-4.4-4.4,1.97-4.4,4.4-4.4,4.41,1.98,4.41,4.4Z"/>
                        <path class="cls-38" d="M941.83,775.55s0-.02.01-.03c.19-.31.33-.59.46-.87.02-.05.05-.1.07-.15.12-.27.21-.52.28-.74,0,0,0-.01,0-.02h0c.23-.75.21-1.22.21-1.22,0-5.43-4.15-5.08-4.15-5.08h-9.96s-4.16-.35-4.15,5.08c0,0-.01.47.21,1.22h0s0,.02.01.03c.06.22.16.46.27.72.02.06.05.11.08.17.12.27.27.55.45.86.01,0,.01.02.02.04.19.31.43.63.7.97.05.07.11.14.17.2.29.35.62.71,1.01,1.08h0c1.35,1.27,3.32,2.61,6.2,3.84,2.88-1.23,4.85-2.57,6.2-3.84h0c.39-.37.72-.73,1.01-1.08.06-.07.11-.13.17-.2.27-.34.51-.67.7-.98Z"/>
                        <g>
                          <path class="cls-33" d="M957.41,739.1c-.67.83-1.89.96-2.72.28-.83-.67-.96-1.89-.29-2.72.67-.83,1.89-.96,2.73-.29.83.67.96,1.9.28,2.73Z"/>
                          <path class="cls-33" d="M959.21,739.97c-.26.32-.72.37-1.05.11-.32-.25-.37-.72-.11-1.04.26-.32.72-.37,1.04-.11.32.26.37.73.12,1.04Z"/>
                        </g>
                        <g>
                          <path class="cls-33" d="M908.77,739.77c.67.83,1.9.96,2.73.29.83-.67.96-1.89.29-2.72-.67-.84-1.89-.96-2.73-.29-.83.67-.96,1.89-.29,2.72Z"/>
                          <path class="cls-33" d="M906.98,740.64c.26.32.72.37,1.04.11.32-.26.37-.72.11-1.04-.26-.32-.72-.37-1.05-.12-.32.26-.37.72-.11,1.04Z"/>
                        </g>
                      </g>
                    </g>
                  </g>
                </g>
                <g>
                  <g>
                    <path class="cls-7" d="M1684.9,194.25c.03,28.72,5.09,55.73,20.07,80.29,8.16,13.38,21.01,19.01,32.51,28.49,12.27,10.12,16.12,22.84,24.1,35.74,8.19,13.23,27.91,3.65,39.92-.68,12.36-4.45,28.89-16.84,33.61-29.78,13.22-36.26-33.39-65.03-39.47-98.06-2.5-13.54,1.69-27.34.14-41.35-1.46-13.14-6.3-28.91-14.77-39.48-14-17.48-53.7-30.13-73.1-13.95-20.02,16.7-23.04,54.82-23.01,78.78Z"/>
                    <path class="cls-4" d="M1762.97,533.07h-88.33c-3.32,30.54-9.63,95.42-13.78,180.04-2.86,58.16-7.66,144.41,1.44,258.16l14.02.39,3.81-25.84c46.47-158.84,28.83-229.4,28.83-229.4,22.81-70.97,49.17-128.84,54.01-183.34Z"/>
                    <path class="cls-27" d="M1720.13,718.33c-2.54,43.34-8.87,172.19-31.85,220.29,0,0-10.98,13.52-32.11,0l-6.36-245.02,24.51-204.47s115.15-80.53,112,3.7l-61.05,198.82s-3.48,8.96-5.15,26.68Z"/>
                    <path class="cls-27" d="M1970.49,852.44c-7.61,20.28-25.35,27.88-25.35,27.88l-186.27-193.06-46.08-164.34,117.06-.84-.46,138.57s72.67,75.19,141.1,191.79Z"/>
                    <path class="cls-7" d="M1797.67,171.1c0-12.56,17.24,102.12,114.71,151.37l-20.14,23.17-15.49-8.74,2.08,17.88-35.2,31.91-19.79-12.54,1.26,27.19s-63.95,29.62-126.86-12.05l8.34-254.8s10.66-37.99,56.64-24.32c0,0,32.57,8.02,34.44,60.92"/>
                    <polygon class="cls-4" points="1769.74 236.81 1829.89 266.78 1781.42 437.43 1689.02 432.15 1684.27 260.15 1725.54 236.91 1769.74 236.81"/>
                    <path class="cls-4" d="M1704.21,300.29c17.49-33.28,1.92-42.67,1.92-42.67-18.2-11.72-46.58,27.25-46.58,27.25-9.19,13.62-28.97,43.11-43.77,88.53,0,0,14.89,36.77,31.08,21.37l57.35-94.47Z"/>
                    <path class="cls-36" d="M1607.59,386.25c3.8,8.24,15.63,41.7,46.89,31.05l72.82-133.41s6.74-33.8-25.29-33.88c0,0-31.74,12.06-41.83,31.05,0,0-24.71,29.15-52.6,105.19Z"/>
                    <path class="cls-7" d="M1698.75,129.4c-4.34,9.37-7.13,20.19-7.13,30.42,0,19.55,8.18,45.27,28.32,55.13,9.93,4.86,15.18,5.43,25.34,1.9,8.58-2.98,18.86-7.82,26.62-13.52,23.02-16.9,26.09-46.12,19.43-64-4.6-12.36-18.16-29.15-33.16-30.98-26.55-3.24-46.82-6.18-59.42,21.05Z"/>
                    <path class="cls-4" d="M1784.28,170.56c.11,7.37-3.98,15.73-10.62,18.79-8.99,4.16-12.46-4.09-12.46-12.17,0-6.51,2.85-17.72,10.22-20.04,6.95-2.18,12.77,7.37,12.86,13.42Z"/>
                    <rect class="cls-4" x="1725.62" y="187.78" width="44.14" height="54.9"/>
                    <path class="cls-50" d="M1756.29,218.16c4.43-9.3,7.06-18.7,6.31-30.4l-37.01.03.04,47.72c11.62-1.79,25.93-7.45,30.65-17.35Z"/>
                    <path class="cls-28" d="M1732.55,429.37c10.86-4.1,22.8-7.35,29.37,4.61,2.29,4.16,3.92,9.75,7.4,13.14,2.93,2.85,5.17,3.72,9.1,4.48,13.52,2.61,14.81,7.63,20.46,17.67.45.81,3.64.96,3.46-.23-.85-5.71-3.24-14.26-8.85-17.19-2.82-1.47-4.74-2.58-8.04-2.56-9.56.06-14.21-5.77-17.91-13.16-8.98-17.92-20.48-15.27-36.14-7.5-.93.46.69.91,1.15.73h0Z"/>
                    <path class="cls-4" d="M1765.82,190.59c-4.21,10.62-9.98,19.35-19.98,25.5-9.78,6.02-19.9,9.1-29.35,1.31-7.52-6.2-12.4-15.25-15.14-24.37-6.31-20.99-1.52-50.06,11.81-66.98,14.65-18.59,42.97-14.47,53.93,6.25,8.93,16.88,5.54,41.15-1.28,58.3Z"/>
                    <g>
                      <path class="cls-50" d="M1773.45,182.84c-.56,0-1.07-.37-1.22-.93-2.27-8.08-.53-15.73,4.12-18.19.62-.33,1.39-.09,1.72.53.33.62.09,1.39-.53,1.72-3.49,1.84-4.75,8.55-2.87,15.26.19.68-.2,1.38-.88,1.56-.12.03-.23.05-.35.05Z"/>
                      <path class="cls-50" d="M1780.18,172.54c-.17,0-.34-.04-.5-.1-1.93-.83-4.46-1.29-5.78-.47-.59.37-1.38.19-1.75-.4-.37-.59-.19-1.38.4-1.75,2.8-1.76,6.93-.23,8.13.29.65.28.95,1.02.67,1.67-.2.48-.68.77-1.17.77Z"/>
                    </g>
                    <path class="cls-36" d="M1774.02,238.55c9.75,4.24,31.66,12.92,41.4,17.17,5.99,2.61,9.77,3.29,15.52,6.34,6.48,3.42,4.32,15.41,2.24,22.04-.97,3.12-2.96,6.42-4.75,9.75-.27,7.62-2.97,16.17-5.52,24.35-1.05,4.72-2.47,9.27-4.22,15.48-3.01,10.69-3.98,24.63-9.03,34.68l-18,60.94-106.28-6.07-6.67-79.76c-3.98-11.08-8.45-18.09-9.99-29.72-1.33-10.04,9.75-32.88,14.12-42.54l7.76-16.13,27.17-15.26s24.03,15.37,56.24-1.27Z"/>
                    <g>
                      <path class="cls-30" d="M1715.26,165.87c-.14,2.34-1.38,4.16-2.78,4.09-1.4-.08-2.43-2.04-2.3-4.38.14-2.33,1.38-4.16,2.78-4.08,1.41.08,2.43,2.03,2.3,4.37Z"/>
                      <path class="cls-30" d="M1745.63,167.61c-.13,2.33-1.37,4.16-2.78,4.08-1.4-.08-2.43-2.03-2.3-4.37.13-2.34,1.38-4.16,2.78-4.09,1.4.08,2.43,2.04,2.29,4.38Z"/>
                      <path class="cls-50" d="M1724.4,185.96c-.06,0-.11,0-.18-.01-3.55-.48-6.37-1.97-7.72-4.1-.73-1.14-.95-2.37-.61-3.45.36-1.15,1.87-1.83,4.51-2.93.76-.32,1.92-.8,2.17-1,1.18-1.22,1.75-2.84,3.02-10.57.11-.69.79-1.15,1.46-1.05.69.11,1.16.77,1.05,1.46-1.31,8.02-1.97,10.14-3.74,11.96-.47.49-1.35.86-2.98,1.55-.99.41-2.83,1.18-3.17,1.56,0,.13.12.61.44,1.11.35.55,1.82,2.4,5.93,2.95.7.09,1.19.73,1.09,1.43-.09.63-.63,1.1-1.25,1.1Z"/>
                      <path class="cls-42" d="M1743.63,158.28c2.59.06,5.78,1.08,7.99,1.88-.01-5.39-11.19-5.62-13.97-5.4-1.34.1-2.58.64-1.8,3.7.4,1.55,2.88-.31,7.79-.19Z"/>
                      <path class="cls-42" d="M1713.24,156.54c-2.58-.23-5.86.42-8.15.96.63-5.36,11.76-4.31,14.5-3.78,1.32.26,2.48.94,1.36,3.89-.57,1.5-2.82-.63-7.71-1.08Z"/>
                      <path class="cls-50" d="M1749.97,177.84c-.1,1.66-3.22,2.83-6.98,2.62-3.75-.22-6.72-1.73-6.63-3.39.09-1.66,3.22-2.83,6.98-2.61,3.75.21,6.72,1.73,6.63,3.39Z"/>
                      <path class="cls-50" d="M1716.44,175.93c-.1,1.66-3.22,2.83-6.98,2.62-3.75-.22-6.72-1.73-6.63-3.39.1-1.66,3.22-2.83,6.98-2.62,3.75.21,6.72,1.73,6.63,3.39Z"/>
                    </g>
                    <path class="cls-7" d="M1766.62,166.89c.29.18,2.68-.61,2.68-.61.38-3.76,2.89-7.01,7.35-7.18,3.21-.13,5.9,3.94,6.76,7.38.21-3.39.57-7.72.6-11.35.04-3.43-.17-7.13-.61-10.66-1.01-8.21-1.67-12.72-5.61-20.42-4.24-8.29-10.84-14.7-20.18-17.02-11.28-2.8-29.69-5.06-39.25,1.88-4.9,3.56-12.15,11.93-9.93,22.39,0,0,5.2,13.94,44.91,21.54,0,0,11.36,10.35,13.28,14.05Z"/>
                    <path class="cls-4" d="M1896.72,398.27c1.77-7.6.18-22.1-2.1-30.09-13.84-48.5-48.71-86.47-62.63-95.21-2.06-2.76-31.26-1.29-27.45,28.26,2.52,14.81,60.38,85.03,64.01,95.54,0,0,13.14,15.12,28.17,1.5Z"/>
                    <path class="cls-36" d="M1827.5,260.15s-35.49,18.94-20.31,59.43c0,0,27.37,43.11,53.33,69.4,0,0,32.59-3.02,44.44-26.46,0,0-39.69-71.48-77.46-102.38Z"/>
                    <g>
                      <path class="cls-27" d="M1829.84,522.08c.35-17.57-1.06-34.62-7.77-51.52-6.63-16.73-12.95-33.57-19.43-50.37-.21-.54-4.26-12.05-4.55-11.96-78.15,23.03-114.06-1.27-114.06-1.27l-11.41,83.65s.85,47.53,74.36,44.99c0,0,70.24,4.23,82.86-13.52Z"/>
                      <g>
                        <path class="cls-32" d="M1737.71,418.58c-14.21,0-34.36-.36-48.76-7.75-.62-.32-.87-1.08-.55-1.7.32-.63,1.09-.87,1.7-.55,14.64,7.52,35.85,7.5,49.85,7.47h1.95c17.1,0,32.64-.57,49.8-7.52.65-.26,1.39.05,1.65.7.26.65-.05,1.39-.7,1.65-17.58,7.11-33.39,7.7-50.75,7.7h-1.95c-.73,0-1.48,0-2.25,0Z"/>
                        <path class="cls-32" d="M1733.74,438.77c-16.34,0-33.03-2.62-47.77-10.64-.62-.33-.85-1.1-.51-1.72.34-.61,1.11-.84,1.72-.5,25.98,14.13,58.46,11,83.86,6.7,6.69-1.14,25.26-7.17,27.63-8.75.57-.38,1.37-.23,1.75.35.39.59.23,1.37-.35,1.76-2.9,1.93-21.88,8-28.61,9.14-11.53,1.95-24.51,3.67-37.72,3.67Z"/>
                      </g>
                    </g>
                    <path class="cls-33" d="M1734.71,190.52c.05,5.21-3.1,10-5.97,11.22-2.7,1.15-11.07-6.53-10.46-9.18,0,0,7.31-2.59,16.43-2.04Z"/>
                    <path class="cls-32" d="M1810.65,546.38c-15.87,0-29.45-8.43-34.81-14.14-9.22-9.81-10.58-28.15-10.69-44.79,0-.7.56-1.27,1.26-1.27h0c.7,0,1.27.56,1.27,1.26.06,9.77.22,32.66,10,43.07,6.88,7.32,28.01,19.35,49.5,9.85.64-.29,1.39,0,1.67.65.28.64,0,1.39-.65,1.67-5.96,2.64-11.91,3.71-17.56,3.71Z"/>
                    <path class="cls-36" d="M1834.45,387.73s-.1-38.76-6.76-80.27c0,0-95.92-20.28-148.3,18.59l-7.16,85.33s-13.31,67.38,1.27,101.6c0,0,97.59,44.99,164.76-9.5,20.28-32.95-.22-85.86-3.8-115.75Z"/>
                    <g>
                      <path class="cls-30" d="M1741.71,247.93c-8.41,0-16-2.24-23.08-6.78-.59-.38-.76-1.16-.38-1.75.38-.59,1.16-.76,1.75-.38,8.06,5.17,16.46,7.14,26.44,6.14l1.6-.15c6.99-.67,18.68-1.77,23-5.84.51-.48,1.31-.46,1.79.05.48.51.46,1.31-.05,1.79-4.96,4.67-16.72,5.78-24.5,6.52l-1.59.15c-1.69.17-3.35.25-4.98.25Z"/>
                      <path class="cls-30" d="M1834.43,418.57c-.1,0-.21-.01-.32-.04-.68-.18-1.08-.87-.9-1.55,2.68-10.22.89-27.27-.84-43.76-.48-4.53-.94-9-1.31-13.26-1.93-22.43-5.54-40.32-10.75-61.91-.16-.68.26-1.37.94-1.53.68-.16,1.37.26,1.53.93,5.22,21.71,8.86,39.7,10.8,62.29.37,4.24.83,8.7,1.31,13.21,1.75,16.72,3.56,34,.77,44.67-.15.57-.66.95-1.23.95Z"/>
                      <path class="cls-30" d="M1798.31,410.34c-.16,0-.32-.03-.47-.09-5.88-2.34-12.42-9.21-18.2-15.28-2.25-2.37-4.37-4.6-6.28-6.38-6.36-5.94-11.17-12.1-16.25-18.63-1.95-2.51-3.93-5.05-6.04-7.61-.44-.54-.36-1.35.18-1.78.55-.45,1.34-.37,1.78.17,2.12,2.59,4.11,5.15,6.08,7.67,5.02,6.44,9.77,12.53,15.99,18.34,1.96,1.83,4.11,4.09,6.39,6.48,5.59,5.88,11.93,12.54,17.29,14.67.65.26.97,1,.71,1.64-.2.5-.68.8-1.18.8Z"/>
                      <path class="cls-30" d="M1774.09,430c-.1,0-.21,0-.3-.03-1.08-.28-1.76-1.33-5.24-11.94-.3-.9-.55-1.67-.73-2.21-2.59-7.6-4.06-15.39-4.36-23.18-.03-.7.52-1.29,1.22-1.32.8.03,1.29.52,1.32,1.22.3,7.54,1.72,15.09,4.23,22.45.19.55.45,1.33.74,2.24.89,2.71,2.9,8.85,3.76,10.31.16.07.31.17.44.31.47.51.45,1.32-.07,1.79-.24.23-.63.36-.99.36Z"/>
                    </g>
                    <g>
                      <g>
                        <path class="cls-4" d="M1909.23,401.91c-27,40.06-57.99,53.31-122.73,81.86l-6.59-9.77c8.87-8.53,60.93-44.13,104.25-101.43,0,0,17.69-12.24,25.08,29.33Z"/>
                        <path class="cls-4" d="M1800.37,466.93c-5.79-6.54-9.47-6.9-37.99-11.51-.43,6.68,3.26,7.03,11.8,9.26-.06-.01-2.78-1.02-3-1.06-3.53-.65-5.77-1.84-7.44-.97-2.79,1.45-2.89,5.55-2.36,12.05.09,1.07,2.77,3.64,2.77,4.79,0,1.17,2.48,3.34,2.88,4.57.7,2.16,2.03,1.26,3.82,2.42.86.56,1.64,1.5,2.58,1.88,6.11,2.52,12.43-2.31,17.47-5.15,3.96-2.24,9.83-5.52,11.22-10.26.61-2.11-.34-4.43-1.75-6.02Z"/>
                      </g>
                      <path class="cls-36" d="M1813.26,432.31c-5.21,5.75-17.4,18.66-17.6,26.08-.18,6.87,3.74,14.49,10.22,17.06,17.19,6.79,42.41-14.06,55.56-23.9,18.46-13.81,36.75-32.69,45.94-46.86,12-18.52,7.72-30.43-5.23-45.79-14.94-17.72-33.54-1.5-41.85,12.11-13.14,21.51-29.99,42.49-47.05,61.31Z"/>
                      <g>
                        <path class="cls-30" d="M1853.97,383.53c-.54,0-1.03-.34-1.21-.87-2.1-6.41-3.1-13.61-3.07-22.01,0-.7.57-1.27,1.27-1.27h0c.7,0,1.27.57,1.27,1.27-.03,8.13.93,15.07,2.95,21.22.22.67-.15,1.38-.81,1.6-.13.04-.26.06-.39.06Z"/>
                        <path class="cls-30" d="M1795.16,457.86c-.2,0-.4-.05-.59-.14-.62-.33-.86-1.09-.54-1.71,5.89-11.27,45.14-58.24,51.59-65.67l3.09-3.57c6.82-7.92,15.31-17.78,22.94-24.29.53-.45,1.33-.39,1.79.14.45.53.39,1.33-.14,1.79-7.48,6.38-15.89,16.16-22.66,24.01l-3.09,3.58c-8.56,9.88-45.84,54.81-51.26,65.19-.23.43-.67.68-1.13.68Z"/>
                      </g>
                      <path class="cls-30" d="M1814.25,478.74c-1.94,0-3.08-.38-3.61-.62-15.93-1.51-16.25-19.53-16.25-19.72,0-.7.55-1.27,1.25-1.28h.01c.7,0,1.26.56,1.27,1.25,0,.65.32,16.08,14.18,17.24.21.02.42.09.6.2.13.07,17.98,9.05,87.74-61.93.49-.5,1.29-.5,1.79-.01.5.49.51,1.29.01,1.79-55,55.97-78.58,63.07-87,63.07Z"/>
                    </g>
                    <path class="cls-30" d="M1672.86,404s-.05,0-.08,0c-.7-.04-1.23-.64-1.19-1.34l.83-14.08c1.2-20.42,1.69-28.87,3.61-46.81.15-1.47.34-3.5.56-5.82.78-8.56,1.86-20.28,3.28-25.44.19-.67.88-1.06,1.56-.89.68.19,1.07.88.89,1.56-1.36,4.93-2.47,17.01-3.21,24.99-.22,2.34-.4,4.37-.56,5.85-1.91,17.88-2.4,26.32-3.6,46.69l-.83,14.09c-.04.67-.6,1.19-1.26,1.19Z"/>
                    <path class="cls-4" d="M1683.21,454.96c8.08-3.32,11.54-2.02,39.18,6.4-2.56,6.19-6.03,4.88-14.68,3.1.06.01,2.95.31,3.17.37,3.45.97,5.99.89,7.11,2.41,1.86,2.54.15,6.25-3.2,11.86-.55.91-4.09,2.04-4.6,3.08-.52,1.05-3.7,1.91-4.6,2.83-1.58,1.64-2.38.24-4.51.5-1.02.12-2.13.62-3.14.55-6.58-.43-10.14-7.54-13.41-12.32-2.57-3.75-6.4-9.28-5.55-14.15.37-2.16,2.25-3.82,4.22-4.64Z"/>
                    <path class="cls-36" d="M1617.09,404s14.57,49.43,64.01,72.87c0,0,10.45-16.48,13.94-27.88,0,0-26.64-50.27-39.92-70.97,0,0-31.38-2.7-38.02,25.98Z"/>
                    <path class="cls-36" d="M1705.28,444.65c5.39-.1,10.42-.82,15.74-1.36,6.92-.71,9.72-2.24,11.55,5.07,2.86,11.4,1.08,25.13.5,36.79-.5,9.75,2.97,26.4-8.1,29.89-10.47,3.3-21.62-2.35-31.83-3.33-6.79-.64-12.94.99-16.65-5.55-2.59-4.56-4.15-13.46-1.07-18.19,2.6-4,9.09-6.17,12.7-9.57,5.04-4.76,9.35-10.5,12.48-16.69.58-1.15,6.19-17.09,4.68-17.06Z"/>
                    <path class="cls-36" d="M1779.27,444.65c-5.39-.1-10.42-.82-15.75-1.36-6.92-.71-9.72-2.24-11.55,5.07-2.85,11.4-1.08,25.13-.49,36.79.49,9.75-2.97,26.4,8.09,29.89,10.47,3.3,21.62-2.35,31.82-3.33,6.79-.64,12.94.99,16.65-5.55,2.59-4.56,4.15-13.46,1.07-18.19-2.6-4-9.09-6.17-12.7-9.57-5.04-4.76-9.35-10.5-12.48-16.69-.58-1.15-6.19-17.09-4.68-17.06Z"/>
                    <path class="cls-30" d="M1678.99,492.93c-.31,0-.63-.12-.87-.35-.51-.49-.53-1.29-.04-1.79,12.67-13.3,25.78-27.05,25-50.63-.03-.7.52-1.28,1.22-1.31.77.03,1.29.53,1.31,1.23.81,24.63-12.67,38.78-25.7,52.46-.25.26-.59.39-.92.39Z"/>
                    <path class="cls-30" d="M1811.64,490.39c-4.45,0-11.64-4.94-18.32-12.58-10.75-12.31-16.22-26.7-14.63-38.5.09-.69.72-1.2,1.43-1.09.69.09,1.18.73,1.08,1.42-1.5,11.09,3.75,24.73,14.02,36.49,7.03,8.05,13.43,11.71,16.41,11.71.7,0,1.27.56,1.27,1.27s-.57,1.27-1.27,1.27Z"/>
                    <path class="cls-30" d="M1681.1,478.14c-.11,0-.22-.01-.33-.04-35.63-9.54-64.25-67.29-65.45-69.74-.31-.63-.04-1.39.58-1.69.63-.3,1.39-.05,1.7.58.29.59,28.86,58.25,63.02,68.18,2.36-3.07,12.13-16.33,13.13-26.2-2.15-4.46-26.7-55.03-44.62-74.14-.48-.51-.45-1.32.06-1.79.51-.47,1.31-.46,1.79.06,18.93,20.19,44.14,72.86,45.21,75.1.1.2.14.42.12.64-.97,11.98-13.68,27.91-14.22,28.58-.24.3-.61.47-.99.47Z"/>
                    <path class="cls-32" d="M1793.05,725.28c-.3,0-.6-.11-.84-.32-10.78-9.56-20.43-19.84-28.68-30.55-7.11-9.23-9.23-18.82-11.48-28.98-.51-2.32-1.03-4.66-1.61-7.03-3.41-13.81-17.14-69.17-20.3-81.08-1.54-5.81-6.3-16.05-20.26-31.77l-.6-.68c-.46-.53-.4-1.33.14-1.79.53-.45,1.33-.39,1.79.13l.57.65c14.29,16.1,19.21,26.73,20.82,32.81,3.16,11.92,16.89,67.3,20.3,81.11.59,2.39,1.11,4.76,1.63,7.1,2.18,9.87,4.24,19.21,11.01,27.98,8.16,10.58,17.7,20.75,28.36,30.2.52.46.57,1.27.1,1.79-.25.28-.6.43-.95.43Z"/>
                    <path class="cls-32" d="M1654.48,852.02c-.68,0-1.25-.55-1.27-1.23-.16-5.45-.35-13.72-.58-23.22-.53-22.55-1.19-50.62-1.96-66.11-.22-4.36-.64-9.53-1.08-15-.72-8.8-1.46-17.91-1.46-24.99,0-28.38,13.04-131.25,18.61-175.17,1.26-9.91,2.17-17.09,2.52-20.15.08-.7.71-1.19,1.4-1.12.7.08,1.2.71,1.12,1.41-.35,3.06-1.26,10.25-2.52,20.18-5.57,43.88-18.6,146.64-18.6,174.85,0,6.98.74,16.03,1.45,24.78.45,5.49.87,10.68,1.08,15.08.77,15.52,1.43,43.61,1.96,66.17.22,9.49.42,17.75.58,23.2.02.7-.53,1.28-1.23,1.31h-.04Z"/>
                    <path class="cls-30" d="M1722.29,701.2c-.14,0-.28-.03-.42-.07-.66-.23-1.01-.95-.78-1.61,5.88-16.93,16.55-50.17,21.53-67.11.2-.67.9-1.04,1.57-.86.67.2,1.05.9.86,1.57-4.99,16.97-15.68,50.27-21.56,67.22-.18.53-.67.86-1.2.86Z"/>
                    <path class="cls-30" d="M1823.68,270.29c-.18,0-.36-.04-.54-.12-4.66-2.17-9.44-4.53-14.06-6.81-9.64-4.76-19.62-9.68-29.58-13.43-.65-.25-.99-.98-.74-1.64.24-.65.97-.99,1.63-.73,10.08,3.8,20.11,8.75,29.8,13.53,4.61,2.28,9.37,4.62,14.01,6.79.63.29.91,1.05.61,1.68-.22.46-.67.73-1.15.73Z"/>
                    <path class="cls-30" d="M1682.37,267.12c-.42,0-.84-.22-1.08-.6-.37-.59-.18-1.37.41-1.74,6.98-4.32,13.94-8.73,20.85-13.13,4.42-2.81,8.83-5.61,13.21-8.36.59-.37,1.37-.19,1.75.4.37.59.19,1.37-.4,1.75-4.37,2.75-8.77,5.54-13.19,8.35-6.91,4.39-13.88,8.82-20.88,13.14-.21.13-.44.19-.67.19Z"/>
                    <path class="cls-32" d="M1947.25,843.14c-.37,0-.73-.16-.98-.46-7.34-8.94-15.25-17.85-22.9-26.46-10.63-11.96-21.63-24.33-31.62-37.36-9.36-12.21-22.34-27.7-36.08-44.1-24.88-29.7-50.6-60.4-53.69-70.8-.03-.1-.05-.21-.05-.32-1.49-46.53-.31-82.81,3.81-117.63.08-.7.73-1.21,1.41-1.11.69.08,1.19.71,1.11,1.41-4.1,34.65-5.27,70.77-3.8,117.09,3.15,10.04,28.57,40.38,53.16,69.73,13.76,16.42,26.75,31.94,36.15,44.19,9.94,12.96,20.9,25.29,31.51,37.23,7.67,8.63,15.6,17.56,22.97,26.53.44.54.36,1.34-.18,1.78-.23.19-.52.29-.8.29Z"/>
                    <path class="cls-32" d="M1676.45,922.14h-.07c-.7-.04-1.23-.63-1.19-1.33,1.77-32.71,3.24-52.69,4.55-70.31,1.17-15.77,2.17-29.39,3.05-47.94,1.39-29.51,3.98-59.13,6.48-87.78,1.26-14.44,2.56-29.37,3.7-44.11.2-2.62.36-5.29.52-7.98.83-13.93,1.68-28.34,8.69-40.1,2.34-3.91,4.75-7.83,7.18-11.77,7.2-11.65,14.64-23.7,19.99-36.02.28-.64,1.03-.93,1.67-.66.64.28.94,1.03.66,1.67-5.43,12.49-12.92,24.61-20.16,36.33-2.42,3.93-4.84,7.83-7.16,11.73-6.7,11.23-7.53,25.33-8.34,38.96-.16,2.7-.32,5.39-.52,8.02-1.14,14.76-2.44,29.7-3.7,44.14-2.5,28.62-5.08,58.22-6.48,87.67-.88,18.58-1.89,32.22-3.05,48.01-1.31,17.62-2.78,37.58-4.55,70.27-.04.67-.59,1.19-1.26,1.19Z"/>
                    <g>
                      <rect class="cls-52" x="1602.97" y="992.41" width="89.57" height="4.15"/>
                      <path class="cls-26" d="M1692.54,992.41h-89.57c1.16-10.47,9.3-12.79,9.3-12.79l25.82-7.85,18.21-9.25-10.68-106.71,64.64,15.21-17.71,121.38"/>
                    </g>
                    <g>
                      <path class="cls-26" d="M2007.85,887.63l-60.35,66.19c-6.94-7.91-3.18-15.49-3.18-15.49l11.6-24.36,5.43-19.69-67.34-51.14,53.23-46.89,60.6,91.37"/>
                      <rect class="cls-52" x="1934.43" y="920.05" width="89.57" height="4.15" transform="translate(-35.7 1763.38) rotate(-47.64)"/>
                    </g>
                    <path class="cls-7" d="M1737.29,129.19c4.07,7.95,6.15,16.74,9.95,24.69,3.72,7.8,9.19,12.23,13.95,19.06,7.2,10.28,8.68,24.54,9.89,36.52,2.65,26.45.9,55.89,2.54,82.8,1.11,18.26,9.51,20.15,25.39,22.76,13.11,2.16,26.73-6.37,39.25-1.64,13.15,4.97,44.35,34.76,57.67,26.61,4.22-2.58-1.67-15.01-3.8-19.64-7.6-16.48-9.65-16.57-14.57-22.22-7.46-8.57-19.34-16.67-28.09-24.27-11.38-9.9-18.56-21.34-25.33-34.83-8.27-16.49-17.02-32.56-24.1-49.66-6.01-14.5-10.07-30.53-16.5-44.08-4.83-10.18-13.32-21.06-22.58-27.76-4.46-3.23-10.4-5.52-15.86-5.28-3.91.17-12,3.69-12.86,3.42l5.07,13.52Z"/>
                  </g>
                  <g>
                    <g>
                      <g>
                        <path class="cls-39" d="M1302.87,643.38s1.37-43.52-24.09-59.63c0,0-4.13,30.22-6.85,44.02,0,0,21.15-1.75,30.95,15.61Z"/>
                        <path class="cls-22" d="M1277,596.28c1.89.62,3.53,1.62,4.9,3,2.55,3.72,4.56,7.85,6.05,12.2,1.67,6.65,2.18,14.19,2.59,20.2-9.19-4.66-18.62-3.91-18.62-3.91,1.58-8.01,3.63-21.53,5.08-31.49Z"/>
                      </g>
                      <path class="cls-30" d="M1382.19,717.44c-.33,0-.65-.12-.9-.37-.49-.5-.49-1.3,0-1.79,26.29-26.14,51.5-47.62,75.88-68.4,24.35-20.75,49.51-42.2,75.74-68.27,2.45-2.44,9.14-9.82,18.41-20.03,62.32-68.7,121.87-132.22,136.35-131.4.7.04,1.23.63,1.2,1.33-.03.7-.61,1.3-1.33,1.19-.06,0-.13,0-.2,0-15.68,0-98.63,91.44-134.14,130.58-9.29,10.25-16.01,17.65-18.5,20.13-26.29,26.14-51.5,47.62-75.88,68.4-24.34,20.75-49.51,42.2-75.74,68.27-.25.24-.57.37-.9.37Z"/>
                      <path class="cls-16" d="M1591.31,751.99c-4.03,20.66,11.82,18.89,11.82,18.89,21.69-18.1,39.69-41.78,39.63-71.03-.06-35.9-30.96-71.33-69.44-59.78,0,0-14.29,4.16-23.73,16.15,0,0,32.69-12.85,52.33,12.43,0,0,25.48,26.83-10.61,83.34"/>
                      <path class="cls-17" d="M1590.46,654.45c17.21,4.26,26.74,19.42,29.07,36.41,3.59,26.13-9.71,49.48-28.82,66.52.05-1.62.2-3.37.6-5.39,36.09-56.51,10.61-83.34,10.61-83.34-19.63-25.27-52.33-12.43-52.33-12.43.78-.99,1.6-1.91,2.43-2.79,12.77-.24,26.04-2.05,38.44,1.02Z"/>
                      <path class="cls-23" d="M1443.37,868.84c8.24,10.95,32.05,38.94,69.78,53.76,0,0,16.42,27.74,5.1,54.92,0,0-27.18,2.83-15.29,21.52h22.08s13.14-8.87,16.76-36.04v-37s1.39-12.46-4.02-18.12c0,0-5.99-2.86-10.66-10.27,0,0-5.75-18.35,8.59-45.53l-1.51-28.67-77.73,8.49-13.11,36.94Z"/>
                      <path class="cls-23" d="M1353.4,899.71l18.91,59.53s7.57,17.23-3.61,25.1c0,0-9.74,3.94-3.94,14.69l20.75-2.92c10.78-5.65,3.56-21.53,3.56-21.53-1.93-10.66,4.1-13.57,4.1-13.57l-6.11-71.96,9.42-34.48h-68.29l25.2,45.13Z"/>
                      <path class="cls-47" d="M1236.08,650.99l-32.99,7.77c-3.38,33.04,14.09,41.05,14.09,41.05,19.48,2.1,24.71,2.11,48.16,4.57,15.58,1.64,19.84,16.39,19.84,16.39,0,0,6.83,25.28,5.1,43.62h-.34s-10.19,31.93,10.19,79.49c0,0,20.61,59.74,2.5,137.88,0,0-18.35,5.93-10.42,17.26h15.94c10.19-1.85,13.64-23.62,13.64-23.62,4.38-12.83,8.02-14.87,8.02-14.87l8.82-61.45c13.72-14.43,19-27.39,19-27.39,82.41,11.73,152.43-26.41,152.43-26.41l20.38-6.79s-.94,43.06,29.76,68.06c6.07,3.81,15.14,5.06,20.03,10.42.09.09,30.38,33.39,19.07,60.53,0,0-27.18,2.83-15.28,21.52h22.08s13.15-8.87,16.76-36.04v-37s1.4-12.46-4.02-18.12c0,0-21.32-10.31-14.43-43.6,4.47-21.6,10-64.71-.86-93.55-5.89-15.61-16.58-27.04-34.87-28.58-49.26-4.16-98.62-12.56-147.72-18.85-28.88-5.1-45.48-9.81-45.48-9.81-17.92-30.92-40.05-64.5-40.05-64.5,0,0-14.33-31.9-55.73-28.7,0,0-18.18,3.02-26.83,17.56,0,0-5.98,10.6-16.8,13.15Z"/>
                      <path class="cls-39" d="M1600.23,928.88c-5.81-4.39-6.87-12.95-12.17-18-6.44-6.13-14.53-9.11-22.07-13.55-31.06-18.27-26.78-60.56-26.99-92.31-6.06,10.51-8.49,21.85-8.97,33.62l.42-.14s-.94,43.06,29.76,68.06c6.07,3.81,15.14,5.06,20.03,10.42.09.09,30.38,33.39,19.07,60.53,0,0-27.18,2.83-15.28,21.52h22.08s13.15-8.87,16.76-36.04v-35.3c-6.24,5.11-15.73,6.42-22.64,1.2Z"/>
                      <path class="cls-39" d="M1521.39,840.63c-.2.1-.4.13-.58.14-11.81,6.2-27.29,5.82-40.06,7.46-20.7,2.65-40.37,7.67-61.45,5.63-27.34-2.65-61.28-9.4-80.9-30.62,2.06,13.2,6.27,26.17,6.26,39.62-.01,10.33-5.31,21.07-4.95,31.41.24.94.48,1.88.76,2.81,12.33-13.61,17.16-25.39,17.16-25.39,82.41,11.73,152.43-26.41,152.43-26.41l17.39-5.8c.02-.65.08-1.29.11-1.94-2.06,1.03-4.12,2.06-6.18,3.09Z"/>
                      <path class="cls-22" d="M1202.88,672.31c-.22-3.64-.25-9.02.21-13.55l13.58-3.2c.5,9.29-4.58,15.71-13.79,16.74Z"/>
                      <g>
                        <path class="cls-3" d="M1256.56,654.06c0,3.49,2.83,6.31,6.31,6.31s6.31-2.83,6.31-6.31-2.82-6.31-6.31-6.31-6.31,2.82-6.31,6.31Z"/>
                        <path class="cls-33" d="M1262.87,650.91c0,1.73,1.41,3.15,3.15,3.15s3.16-1.42,3.16-3.15-1.41-3.16-3.16-3.16-3.15,1.42-3.15,3.16Z"/>
                      </g>
                      <path class="cls-49" d="M1375.49,713.48s-50.61,69.87-2.83,160.23l18.54.22s-43.06-76.94-1.19-156.86l-14.52-3.59Z"/>
                      <path class="cls-49" d="M1362.34,761.27s-28.78,4-71.83-.51c0,0-3.11,4.65-3.11,15.11,0,0,44.58,6.12,74.95-.46v-14.13Z"/>
                      <path class="cls-22" d="M1235.37,701.06s1.74-3.49-3.64-4.18l-19.94-1.4s2.73,4.03,5.4,4.33l18.19,1.25Z"/>
                      <g>
                        <path class="cls-39" d="M1314.35,647.75s10.52-42.25-10.96-63.37c0,0-10.42,28.66-16,41.58,0,0,21.04,2.76,26.96,21.79Z"/>
                        <path class="cls-22" d="M1299.01,596.25c1.72,1,3.1,2.33,4.16,3.96,1.7,4.18,2.8,8.64,3.33,13.21.23,6.85-.87,14.33-1.73,20.29-7.99-6.49-17.38-7.75-17.38-7.75,3.24-7.5,8.1-20.29,11.62-29.71Z"/>
                      </g>
                    </g>
                    <path class="cls-49" d="M1289.85,773.21s-8.53,28.59,9.68,69.23l3.57,12.13s-34.38-58.13-12.6-93.82l-.66,12.46Z"/>
                    <path class="cls-49" d="M1391.2,873.93l-33.57-2.23-3.94,7.58s35.77,4.54,37.51-5.35Z"/>
                  </g>
                </g>
              </g>
              <g>
                <g>
                  <path class="cls-10" d="M752.68,870.65c-65.46,8.75-101.26-104.96-144.34-138.62-50.41-39.4-118.97-6.04-171.65-43.76-17.54-12.56-32.06-33.68-56.1-31.41-13.92,1.32-49.07,15.02-57.87,24.31"/>
                  <g>
                    <g>
                      <g>
                        <path class="cls-37" d="M813.9,809.73s-1.51-48.08,26.62-65.88c0,0,4.56,33.39,7.58,48.63,0,0-23.36-1.93-34.19,17.25Z"/>
                        <path class="cls-44" d="M842.48,757.7c-2.09.68-3.9,1.79-5.42,3.31-2.81,4.12-5.04,8.68-6.68,13.48-1.85,7.34-2.41,15.68-2.87,22.31,10.15-5.15,20.58-4.32,20.58-4.32-1.75-8.85-4.02-23.79-5.61-34.79Z"/>
                      </g>
                      <path class="cls-2" d="M495.25,929.72c4.45,22.82-13.06,20.87-13.06,20.87-23.96-19.99-43.84-46.16-43.78-78.47.07-39.66,34.2-78.8,76.72-66.05,0,0,15.79,4.6,26.21,17.85,0,0-36.12-14.19-57.81,13.73,0,0-28.14,29.65,11.72,92.08"/>
                      <path class="cls-43" d="M658.68,1058.8c-9.1,12.09-35.41,43.01-77.1,59.39,0,0-18.14,30.66-5.63,60.68,0,0,30.02,3.13,16.89,23.77h-24.4s-14.52-9.8-18.52-39.82v-40.87s-1.54-13.76,4.45-20.01c0,0,6.62-3.15,11.77-11.34,0,0,6.35-20.29-9.49-50.3l1.67-31.68,85.87,9.39,14.49,40.8Z"/>
                      <path class="cls-43" d="M758.08,1092.91l-20.89,65.77s-8.37,19.03,3.99,27.72c0,0,10.75,4.36,4.35,16.23l-22.92-3.23c-11.91-6.24-3.94-23.79-3.94-23.79,2.13-11.78-4.53-14.99-4.53-14.99l6.75-79.49-10.41-38.09h75.44l-27.84,49.86Z"/>
                      <path class="cls-37" d="M887.69,818.15l36.44,8.58c3.73,36.5-15.57,45.35-15.57,45.35-21.52,2.32-27.3,2.33-53.21,5.05-17.22,1.8-21.92,18.1-21.92,18.1,0,0-7.55,27.93-5.63,48.2h.38s11.26,35.28-11.26,87.83c0,0-22.77,66-2.76,152.32,0,0,20.27,6.55,11.52,19.07h-17.62c-11.26-2.04-15.07-26.09-15.07-26.09-4.85-14.18-8.85-16.43-8.85-16.43l-9.75-67.88c-15.16-15.96-20.99-30.27-20.99-30.27-91.04,12.96-168.4-29.18-168.4-29.18l-22.51-7.5s1.04,47.57-32.88,75.19c-6.71,4.21-16.73,5.58-22.14,11.51-.09.1-33.56,36.89-21.07,66.88,0,0,30.02,3.13,16.88,23.77h-24.39s-14.53-9.8-18.52-39.82v-40.87s-1.54-13.76,4.45-20.02c0,0,23.56-11.39,15.95-48.16-4.94-23.87-11.05-71.49.95-103.34,6.5-17.25,18.32-29.88,38.51-31.58,54.42-4.6,108.96-13.87,163.2-20.83,31.9-5.63,50.24-10.83,50.24-10.83,19.8-34.16,44.24-71.25,44.24-71.25,0,0,15.83-35.24,61.57-31.7,0,0,20.08,3.34,29.65,19.4,0,0,6.61,11.71,18.56,14.53Z"/>
                      <path class="cls-13" d="M924.36,841.69c.25-4.01.28-9.95-.23-14.96l-15-3.53c-.55,10.26,5.06,17.35,15.23,18.49Z"/>
                      <g>
                        <path class="cls-54" d="M865.06,821.53c0,3.85-3.12,6.97-6.97,6.97s-6.97-3.12-6.97-6.97,3.12-6.98,6.97-6.98,6.97,3.12,6.97,6.98Z"/>
                        <path class="cls-33" d="M858.09,818.05c0,1.92-1.56,3.48-3.49,3.48s-3.49-1.56-3.49-3.48,1.56-3.49,3.49-3.49,3.49,1.56,3.49,3.49Z"/>
                      </g>
                      <path class="cls-13" d="M888.47,873.46s-1.93-3.86,4.03-4.61l22.03-1.55s-3.01,4.46-5.96,4.79l-20.09,1.38Z"/>
                      <g>
                        <path class="cls-37" d="M801.22,814.55s-11.62-46.67,12.11-70.01c0,0,11.51,31.67,17.67,45.94,0,0-23.25,3.04-29.78,24.07Z"/>
                        <path class="cls-44" d="M818.17,757.67c-1.9,1.11-3.43,2.58-4.6,4.38-1.88,4.61-3.09,9.55-3.68,14.59-.26,7.57.96,15.83,1.91,22.41,8.83-7.17,19.2-8.56,19.2-8.56-3.58-8.28-8.95-22.41-12.83-32.82Z"/>
                      </g>
                    </g>
                    <path class="cls-29" d="M830.51,912.67s-59.5-11.9-82.61-48.3c0,0-10.5,4.9-10.5,16.1,0,0,20.3,42,89.61,47.6,0,0,7-5.6,3.5-15.4Z"/>
                  </g>
                </g>
                <g>
                  <path class="cls-42" d="M350.18,220.52c3.7,5.4,9.53,8.82,13.46,14,5.08,6.7,8.65,13.67,11.22,21.72,1.62,5.1,3.84,11.93,2.66,17.48-1.24,5.8-3.91,9.77-4.24,16.1-.3,5.75.72,11.83-.16,17.5-1.18,7.64-4.8,9.35-9.5,14.18-3.93,4.04-4.6,8.85-7.67,13.15-4.17,5.85-7.79,5.66-14.17,6.98-9.18,1.9-21.77,8.69-30.61,3.3-8.84-5.39-11.92-26.17-14.74-36.05-4.67-16.36-9.41-34.31,3.5-48.42,6.07-6.63,7.91-10.58,9.61-19.1,1.22-6.11,3.6-12.44,9.14-15.94,8.25-5.22,18.95-3.52,27.88-1.49.17-.87.21-1.8.13-2.71l3.5-.7Z"/>
                  <path class="cls-42" d="M251.94,353.74c-4,3.12-5.25,5.26-5.03,10.29.31,7.14-.33,18.09-8.53,20.52-9.04,2.68-15.89.35-23.3,8.42-3.92,4.27-6.13,8.85-7,14.57-.86,5.63,1.15,11.41.1,16.83-1.99,10.26-15.25,15.24-21,22.74-6.18,8.07-3.89,16.5.92,24.62,3.23,5.45,5.25,12.56,9.23,17.41,4.7,5.73,12.33,7.62,19.13,9.2,14.92,3.46,25.34-11.82,40.62-10.16,6.7.73,13.75,5.29,20.65,3.65,6.63-1.58,12.26-9.23,15.28-14.84,9.03-16.77,1.32-31.79-7.92-46.1-3.88-6-8.74-12.96-7.4-20.64,1.15-6.58,7.16-10.7,10.64-15.97,3.43-5.19,6.68-11.98,5.6-18.46-.91-5.43-5.98-9.46-9.77-13.29-1.94-1.96-4.55-3.79-5.76-6.42-1.42-3.09.38-5.96-.69-8.41-3.99-9.15-21.84,2.98-25.78,6.05Z"/>
                  <path class="cls-4" d="M374.26,539.72s16.93-51.15,38.69-17c5.85,85.82,40.63,167.83,40.63,167.83l-10.61,8.25s-51.18-76.13-68.71-159.07Z"/>
                  <path class="cls-4" d="M475.43,696.71c3.43,3.22,9.7,13.72,7.48,18.3-4.78.76-9.96,5.67-14.73,5.93-6.59.36-10.54-5.78-15-10.16-3.13-3.07-11.34-11.27-11.25-16.03.17-8.32,4.06-11.19,10.56-8.9,9.9,3.5,20.56,8.63,22.93,10.86Z"/>
                  <path class="cls-55" d="M426.14,559.35s27.42,84.71,29.28,118.31c0,0,.93,13.07-18.67,19.6,0,0-52.27-38.27-62.63-136.27,0,0,44.55-27.78,52.02-1.64Z"/>
                  <path class="cls-42" d="M359.37,236.38c4.79,10.35,7.87,22.3,7.87,33.61,0,21.59-9.03,50.01-31.28,60.9-10.97,5.37-16.77,6-28.01,2.1-9.48-3.29-20.83-8.64-29.4-14.93-25.44-18.67-28.82-50.95-21.46-70.71,5.08-13.65,20.06-32.2,36.64-34.22,29.33-3.58,51.73-6.83,65.65,23.25Z"/>
                  <path class="cls-4" d="M264.88,281.85c-.12,8.14,4.4,17.38,11.73,20.76,9.94,4.59,13.76-4.53,13.77-13.44,0-7.19-3.15-19.58-11.3-22.14-7.68-2.41-14.1,8.14-14.2,14.82Z"/>
                  <rect class="cls-4" x="280.91" y="300.88" width="48.76" height="60.64"/>
                  <path class="cls-50" d="M295.8,334.45c-4.89-10.27-7.8-20.66-6.98-33.58l40.88.03-.04,52.71c-12.84-1.98-28.66-8.23-33.87-19.16Z"/>
                  <path class="cls-4" d="M347.18,418.38c-6.37-41.04,13.85-48.05,13.85-48.05,23.22-5.74,38.38,38.51,38.38,38.51,11.44,65.03,14.8,64.84,14,117.61,0,0-28.73,33.09-40.14,11.2l-26.1-119.27Z"/>
                  <path class="cls-4" d="M220.79,1166.86l15.49-.43c16.21-91.21,39.9-228.46,52.93-285.2,29.06-126.57,44.94-214.48,44.94-214.48l-112.08-8.69c4.67,65.34,5.19,161.04,7.84,229.76,0,0-24.45,70.79-6.88,245.41l-2.25,33.63"/>
                  <path class="cls-4" d="M288.42,682.33h97.58c3.66,33.75,10.63,105.42,15.23,198.9,3.16,64.25,8.47,159.54-1.59,285.2l-15.49.43-4.21-28.55c-51.34-175.48-31.85-253.43-31.85-253.43-25.2-78.41-54.32-142.34-59.67-202.55Z"/>
                  <polygon class="cls-4" points="280.94 355.05 214.48 388.15 268.04 576.68 370.12 570.85 375.78 372.85 329.76 355.16 280.94 355.05"/>
                  <path class="cls-28" d="M323.33,566.95c-3.63-1.61-6.93-3.86-10.56-5.46s-7.8-2.64-11.93-2.06c-3.41.48-6.82,1.87-9.49,4.07-2.31,1.9-4.09,4.39-5.58,6.97s-2.72,5.33-4.11,7.99c-.66,1.27-1.36,2.53-2.16,3.72-.88,1.31-1.68,2.72-2.66,3.96-1.94,2.47-4.47,3.66-7.58,3.66-4.08.01-8.05-.39-11.93,1.23-4.08,1.7-7.09,5.42-9.07,9.27-.92,1.78-1.56,3.73-2.18,5.64-.29.9-.58,1.81-.85,2.72-.3.99-.35,1.91-.38,2.93-.04,1.49,3.38,1.07,3.95.26,1.99-2.81,2.88-6.21,4.41-9.28s3.17-6.15,5.89-8.31c2.86-2.27,6.15-1.83,9.57-1.8,3.68.03,7.33-.55,10.38-2.74,2.48-1.77,3.93-4.48,5.54-6.98,1.48-2.3,2.61-4.8,3.78-7.26,2.34-4.91,5.01-10.36,10.23-12.74,1.62-.74,3.4-1.25,5.19-1.19,1.93.07,3.85.63,5.67,1.26,4.25,1.47,8.27,3.56,12.54,4.98.52.17,2.39-.36,1.32-.84h0Z"/>
                  <path class="cls-4" d="M285.26,303.99c4.66,11.74,11.03,21.38,22.07,28.17,10.81,6.65,21.97,10.05,32.42,1.44,8.31-6.85,13.7-16.85,16.72-26.93,6.97-23.18,1.69-55.29-13.05-74-16.18-20.54-47.47-15.99-59.58,6.9-9.85,18.65-6.11,45.46,1.41,64.41Z"/>
                  <g>
                    <path class="cls-12" d="M272.97,275.53c4.43,2.35,6.19,10.17,3.86,18.48"/>
                    <path class="cls-12" d="M269.41,282.64c2.17-.93,5.6-1.73,7.69-.42"/>
                  </g>
                  <path class="cls-48" d="M335.74,887.01c2.8,47.88,14.03,211.22,39.41,264.37,0,0,12.14,4.66,28.94-.94l9.33-290.76-27.07-225.89s-127.22-88.96-123.74,4.09l67.44,219.65s3.85,9.9,5.68,29.48Z"/>
                  <path class="cls-55" d="M276.21,356.97c-10.77,4.68-34.97,14.27-45.74,18.96-6.62,2.89-10.79,3.64-17.15,7-7.16,3.78-4.78,17.02-2.48,24.36,1.08,3.44,3.28,7.09,5.26,10.77.3,8.42,3.27,17.86,6.09,26.89,1.16,5.21,2.73,10.24,4.66,17.11,3.33,11.81,4.4,27.2,9.97,38.32l19.88,67.32,117.42-6.7,7.36-88.12c4.41-12.24,9.33-19.98,11.04-32.83,1.47-11.1-10.77-36.33-15.6-47l-12.22-25.52-26.37-9.16s-26.54,16.98-62.13-1.4Z"/>
                  <path class="cls-48" d="M214.54,670.2c-.39-19.41,1.17-38.25,8.57-56.92,7.34-18.48,14.31-37.09,21.47-55.64.23-.59,4.71-13.31,5.02-13.22,86.34,25.44,126.01-1.4,126.01-1.4l12.6,92.41s-.93,52.5-82.14,49.7c0,0-77.6,4.67-91.54-14.93Z"/>
                  <g>
                    <path class="cls-30" d="M341.12,276.67c.15,2.58,1.52,4.6,3.07,4.51,1.55-.09,2.68-2.25,2.53-4.83-.14-2.58-1.52-4.6-3.07-4.51-1.55.09-2.68,2.25-2.53,4.83Z"/>
                    <path class="cls-30" d="M307.57,278.59c.15,2.58,1.52,4.6,3.07,4.51,1.55-.09,2.68-2.25,2.53-4.83-.14-2.58-1.52-4.6-3.07-4.51-1.55.09-2.68,2.25-2.53,4.83Z"/>
                    <path class="cls-12" d="M328.32,274.71c1.44,8.8,2.13,10.79,3.75,12.46.83.85,6.65,2.56,7.01,3.75.7,2.25-2.03,5.73-8.06,6.54"/>
                    <path class="cls-42" d="M309.79,268.29c-2.86.07-6.38,1.2-8.82,2.08.01-5.96,12.36-6.21,15.44-5.97,1.49.12,2.84.72,1.99,4.1-.43,1.72-3.17-.35-8.6-.21Z"/>
                    <path class="cls-42" d="M343.36,266.37c2.85-.26,6.47.46,9,1.06-.69-5.92-12.99-4.76-16.02-4.17-1.46.29-2.74,1.04-1.51,4.3.63,1.66,3.12-.7,8.53-1.19Z"/>
                    <path class="cls-50" d="M302.78,289.9c.11,1.83,3.56,3.13,7.7,2.89,4.15-.24,7.43-1.92,7.32-3.75-.1-1.83-3.55-3.13-7.7-2.89-4.15.24-7.43,1.92-7.32,3.75Z"/>
                    <path class="cls-50" d="M339.82,287.79c.1,1.83,3.55,3.13,7.7,2.89,4.15-.24,7.43-1.91,7.32-3.75-.11-1.83-3.55-3.13-7.7-2.89-4.15.24-7.43,1.92-7.32,3.75Z"/>
                  </g>
                  <path class="cls-42" d="M297.56,244.08s-.82,9.8-2.1,17.5c-1.01.75-10.01,15.57-11.08,16.22-.32.19-2.95-.67-2.95-.67-.42-4.16-3.19-7.75-8.13-7.94-3.54-.14-6.51,4.36-7.47,8.15-.22-3.75-.62-8.53-.66-12.53-.03-3.8.19-7.87.67-11.78,1.11-9.07,1.85-14.05,6.2-22.56,4.68-9.16,11.98-16.24,22.3-18.8,12.47-3.1,32.81-5.59,43.36,2.08,5.41,3.93,13.42,13.18,10.97,24.73,0,0-19.25-10.73-51.11,5.6Z"/>
                  <path class="cls-4" d="M101,486.63c1.26-8.52,8.76-22.79,14.34-30.08,33.87-44.24,85.09-69.14,102.93-72.49,3.23-2,32.65,11.33,16.77,40.17-8.59,14.2-96.5,62.94-104.48,72.27,0,0-19.62,10.22-29.56-9.87Z"/>
                  <path class="cls-55" d="M241.68,371.5s27.8,34.68-5.25,69.19c0,0-46.56,31.85-84.36,47.26,0,0-31.78-17.25-33.6-46.2,0,0,71.41-55.31,123.21-70.24Z"/>
                  <path class="cls-10" d="M369.55,546.05c-17.27,8.87-42.77,8.4-57.87,8.4-18.03,0-35.94-.46-55.54-8.4"/>
                  <path class="cls-10" d="M372.82,565.18c-28.23,15.35-62.97,12.73-93.54,7.55-7.6-1.29-28.27-8.02-31.07-9.88"/>
                  <path class="cls-55" d="M215.07,530.65s4.2-44.45,11.55-90.31c0,0,96.26-29.64,154.13,13.3l13.06,89.61s3.74,18.67-10.26,42.94c0,0-68.72,22.75-153.67-5.25-13.42-22.28-18.78-17.27-14.82-50.29Z"/>
                  <path class="cls-14" d="M383.55,586.19s-75.84,17.73-153.67-5.25l-3.62,16.92s75.61,35,159.62,7l-2.34-18.67Z"/>
                  <g>
                    <path class="cls-4" d="M101,486.63c20.04,49.46,50.52,70.86,113.99,116.49l9.35-9.05c-7.64-11.24-55.8-61.6-89.54-133.42,0,0-16.33-17.27-33.8,25.98Z"/>
                    <path class="cls-4" d="M203.83,581.75c7.75-5.75,11.82-5.29,43.7-3.78-1.06,7.32-5.13,6.86-14.87,7.31.07,0,3.24-.47,3.49-.46,3.95.1,6.65-.67,8.27.64,2.69,2.21,1.86,6.65-.2,13.57-.35,1.13-3.82,3.3-4.09,4.55-.27,1.27-3.44,3.04-4.15,4.28-1.26,2.18-2.48.9-4.69,1.75-1.06.41-2.12,1.25-3.22,1.45-7.17,1.32-12.91-5.33-17.71-9.56-3.77-3.32-9.37-8.2-9.78-13.65-.18-2.41,1.38-4.7,3.26-6.11Z"/>
                  </g>
                  <path class="cls-55" d="M197.8,541.38c4.32,7.39,14.55,24.14,13.07,32.2-1.37,7.47-7.34,14.81-14.93,16.1-20.13,3.42-42.64-24.88-54.6-38.5-16.8-19.14-32.27-43.73-38.97-61.14-8.75-22.75-1.4-34.65,16.1-48.3,20.19-15.75,36.59,6.03,42.47,22.64,9.29,26.25,22.72,52.77,36.87,77.01Z"/>
                  <path class="cls-48" d="M215.21,647.79l127.28-6.53-95.21,504.05c-21.47,10.27-34.54-.93-34.54-.93-13.07-103.61,8.64-242,8.64-242,2.8-21.7-.7-33.6-.7-33.6,0,0-15.12-152.85-5.46-220.99Z"/>
                  <path class="cls-10" d="M336.65,358.66c-9.44,6.06-19.21,8.07-30.11,7-7.71-.76-22.48-1.8-28-7"/>
                  <path class="cls-10" d="M230,423.77c-6.06,25.2-9.82,44.45-11.9,68.61-1.87,21.8-6.18,48.77-2.33,63.47"/>
                  <path class="cls-55" d="M426.13,561.97c-9.72,14.38-15.9,23.96-50.44,12.2l-47.87-167.1s-4.62-41.54,30.77-41.63c0,0,23.86,2.48,35,23.45,0,0,30.43,68.55,32.54,173.08Z"/>
                  <path class="cls-10" d="M379.35,398.57c3.92,11.4,9.49,28.37,13.06,39.67,3.44,10.86-8.54,26.02-10.26,37.34-3.38,22.15,10.33,46.36,12.6,69.07,1.02,10.18-1.86,25.67-10.26,39.67"/>
                  <path class="cls-10" d="M190.57,528.55c-3.62-12.88-12.83-27.38-19.41-39.24-6.11-11.02-14.87-19.34-22.59-29.36"/>
                  <path class="cls-10" d="M189.17,469.04c-6.93,4.66-14.06,8.36-21.7,10.5"/>
                  <path class="cls-10" d="M165.89,459.94c3.09,6.49,2.8,12.77,1.57,18.9"/>
                  <path class="cls-10" d="M299.08,488.64c-8.29,10.12-14.83,19.82-24.5,28.86-7.55,7.04-17.94,20.2-26.6,23.64"/>
                  <path class="cls-10" d="M285.08,522.95c-.34,8.54-1.97,17.06-4.75,25.2-1.19,3.49-4.89,15.5-5.75,14.7"/>
                  <path class="cls-10" d="M376.79,585.95c-40.03,8.16-88.26,12.43-127.65-.7"/>
                  <path class="cls-10" d="M379.82,607.19c-31.73,5.13-90.07,17.27-135.81-2.8"/>
                  <path class="cls-12" d="M333.38,307.33c-4.24,2.94-12.48.03-16.1-2.8"/>
                  <path class="cls-10" d="M361.15,667.4c-11.28,9.72-23.36,18.57-29.17,32.44-5.96,14.25-6.79,28.83-9.08,44.12-4.92,32.86-12.23,61.82-18.69,95.19-5.71,29.49-10.27,59.74-19.6,103.61"/>
                  <path class="cls-10" d="M268.74,689.8c-.16,21.53-1.86,13.66-1.86,35.24,0,25.37,1.19,50.82-.05,76.07-1.12,22.69.3,45.51-1.77,68.14-2.28,24.91-7.19,50.4-11.48,75.35-6.61,38.42-11.32,77.1-16.77,115.74-2.39,16.86-4.71,33.38-6.31,50.22-.91,9.59-.26,24.82-2.82,31.95"/>
                  <path class="cls-10" d="M330.35,703.8c.08,13.19,14.46,42.93,19.36,58.8,5.56,18,12.33,34.24,16.15,52.27,11.87,55.95,9.69,112.79,12.3,170.51,1.7,37.71,2.65,75.65,4.51,113.3.56,11.31.9,22.52,1.84,33.55.38,4.53,2.1,18.25-.96,16.8"/>
                  <path class="cls-10" d="M284.61,631.93c-.1,15.02-.97,37.41-11.43,48.53-8.12,8.64-27.43,17.64-38.04,15.87"/>
                  <path class="cls-10" d="M380.99,620.26c-45.1,12.3-108.51,14-149.81-4.9"/>
                  <path class="cls-42" d="M327.58,246.91c-3.56.54-6.9-1.71-9.94,1.83-2.48,2.89-1.89,6.38-5.85,8.53-6.29,3.41-14.02.57-15.07,10.13-.39,3.58.69,8.13-1.49,11.14-2.06,2.84-5.73,2.45-7.95,5.12-4.71,5.67-.14,13.52-4.41,19.82-2.76,4.07-2.71,4.18-1.96,9.22.54,3.61,1.06,7.34.91,11.2-.28,6.98,2.52,16.04-1.4,21.47-3.6,4.99-2.33,1.4-6.07,1.87-2.71.34-3.72.87-6.53.93-3.1.07-16.97-5.7-18.67-8.39-4.37-6.97-17.04-12.47-16.97-21.38.06-6.46,5.7-11.02,6.57-17.24,1.09-7.78-3.98-15.02-1.73-22.98,1.91-6.76,8.4-10.26,9.79-17.75,1.42-7.66,5.47-9.67,10.27-14.94,5.2-5.7,6.79-13.65,11.64-19.59,8.36-10.23,20.84-14.16,33.62-13.56,10.55.5,22.28,2.73,30.13,10.38,6.61,6.45,6.35,22.48-4.89,24.19Z"/>
                  <path class="cls-55" d="M281.05,351.08c-5.1-.76-16.59-1.02-21.12-3.04-.6-4.71,1.2-6.6,5.54-6.59,3.75,0,11.55,1.05,15.58,2.8v6.83Z"/>
                </g>
              </g>
            </g>
          </g>
        </g>
      </g>
    </g>
  </g>
</svg>