<?xml version="1.0" encoding="UTF-8"?>
<svg id="Calque_2" data-name="Calque 2" xmlns="http://www.w3.org/2000/svg" xmlns:xlink="http://www.w3.org/1999/xlink" viewBox="0 0 146.35 32.4">
  <defs>
    <style>
      .cls-1 {
        fill: #f8b795;
      }

      .cls-2 {
        fill: #432918;
      }

      .cls-3 {
        clip-path: url(#clippath);
      }
    </style>
    <clipPath id="clippath">
      <path class="cls-1" d="M146.24,27.55c0-2.67-31.85-6.19-31.85-6.19,0,0,7.55-.73,6.87-4.2s-9.23-5.24-8.94-3.76,7.08-2.06,5.31-5.01-8.26-1.47-8.26-1.47c0,0,1.77-1.18,0-3.24s-27.72-.29-33.03,2.36S1.16.13,1.16.13v32.14s33.91-5.31,46-5.9c12.09-.59,21.23,0,24.18,0s6.89-1.77,12.15-.59c5.25,1.18,13.22,4.42,15.57,5.01,2.36.59,4.13-.88,4.13-.88,0,0,43.05,1.47,43.05-2.36Z"/>
    </clipPath>
  </defs>
  <g id="right">
    <g>
      <g>
        <path class="cls-1" d="M146.24,27.55c0-2.67-31.85-6.19-31.85-6.19,0,0,7.55-.73,6.87-4.2s-9.23-5.24-8.94-3.76,7.08-2.06,5.31-5.01-8.26-1.47-8.26-1.47c0,0,1.77-1.18,0-3.24s-27.72-.29-33.03,2.36S1.16.13,1.16.13v32.14s33.91-5.31,46-5.9c12.09-.59,21.23,0,24.18,0s6.89-1.77,12.15-.59c5.25,1.18,13.22,4.42,15.57,5.01,2.36.59,4.13-.88,4.13-.88,0,0,43.05,1.47,43.05-2.36Z"/>
        <g class="cls-3">
          <g>
            <line class="cls-1" x1="103.19" y1="29.91" x2="98.62" y2="29.27"/>
            <rect class="cls-2" x="100.79" y="27.28" width=".22" height="4.62" transform="translate(57.63 125.43) rotate(-82.04)"/>
          </g>
          <g>
            <polyline class="cls-1" points="129.88 25.44 129.78 27.31 128.6 25.44 128.21 27.21"/>
            <polygon class="cls-2" points="129.87 27.66 128.65 25.73 128.31 27.23 128.1 27.18 128.55 25.15 129.68 26.95 129.76 25.43 129.99 25.44 129.87 27.66"/>
          </g>
          <g>
            <polyline class="cls-1" points="109.73 26.03 108.69 26.45 107.51 24.58 107.12 26.35"/>
            <polygon class="cls-2" points="108.65 26.59 107.56 24.87 107.23 26.38 107.01 26.33 107.46 24.29 108.74 26.31 109.68 25.92 109.77 26.13 108.65 26.59"/>
          </g>
          <g>
            <polyline class="cls-1" points="109.3 16.2 109.2 18.07 108.02 16.2 110.31 17.57"/>
            <path class="cls-2" d="M109.29,18.42l-1.62-2.56,1.48.89.03-.56h.22s-.04.69-.04.69l1,.6-.11.19-.89-.54-.07,1.29ZM108.37,16.54l.74,1.17.04-.71-.78-.47Z"/>
          </g>
          <g>
            <polyline class="cls-1" points="105.69 10.79 107.76 11.87 106.58 10.01 106.19 11.77"/>
            <path class="cls-2" d="M108.08,12.16l-1.67-.87-.11.51-.22-.05.13-.57-.56-.29.1-.2.51.27.28-1.24,1.55,2.45ZM106.46,11.07l.98.52-.81-1.29-.17.77Z"/>
          </g>
          <g>
            <polyline class="cls-1" points="106.67 5.01 106.57 6.88 105.4 5.01 106.58 4.21"/>
            <polygon class="cls-2" points="106.67 7.24 105.24 4.98 106.52 4.11 106.64 4.3 105.55 5.04 106.48 6.52 106.56 5.01 106.78 5.02 106.67 7.24"/>
          </g>
        </g>
      </g>
      <path class="cls-2" d="M1.04,32.4V0l.13.02c.7.09,69.92,8.52,75.13,5.91,2.93-1.47,11.47-2.51,17.88-2.96,6.42-.45,14.27-.55,15.28.63.62.72.89,1.42.8,2.08-.07.47-.3.82-.5,1.05.6-.11,1.8-.29,3.09-.29,2.45,0,4.14.66,4.89,1.9.5.83.39,1.8-.31,2.78-.52.73-1.33,1.39-2.15,1.89.49.11,1,.25,1.5.42,1.25.43,4.2,1.64,4.61,3.72.13.64-.01,1.24-.41,1.77-1.14,1.54-4.15,2.19-5.66,2.44,2.31.27,8.7,1.03,15.03,1.99,4.63.71,8.31,1.38,10.96,2.01,4.54,1.07,5.06,1.77,5.06,2.2,0,.19-.09.37-.26.54-1.42,1.37-9.07,2.11-22.75,2.2-9.84.07-19.41-.24-20.12-.27-.26.2-1.99,1.43-4.19.88-.89-.22-2.53-.8-4.6-1.54-3.43-1.22-7.7-2.74-10.97-3.47-3.48-.78-6.44-.25-8.81.18-1.24.22-2.32.42-3.31.42-.7,0-1.75-.03-3.09-.08-4.43-.14-11.86-.37-21.08.08-11.95.58-45.65,5.84-45.99,5.9l-.13.02ZM1.27.25v31.89c2.3-.36,34.3-5.31,45.89-5.88,9.24-.45,16.66-.22,21.1-.08,1.33.04,2.39.08,3.08.08.97,0,2.04-.19,3.27-.41,2.39-.43,5.37-.97,8.9-.17,3.29.74,7.56,2.26,11,3.48,1.98.71,3.7,1.31,4.58,1.53,2.27.57,4.01-.85,4.03-.86l.03-.03h.04c.39.01,39.46,1.31,42.75-1.86.13-.13.19-.25.19-.38,0-.31-.64-.98-4.89-1.99-2.64-.62-6.32-1.3-10.94-2-7.87-1.2-15.84-2.09-15.92-2.09l-1.07-.12,1.07-.1s4.94-.5,6.41-2.47c.36-.48.48-1.02.37-1.6-.27-1.36-1.94-2.69-4.46-3.55-.61-.21-1.19-.36-1.72-.47-.91.5-1.8.77-2.31.67-.31-.07-.42-.26-.45-.41-.03-.16.02-.3.14-.41.32-.28,1.1-.27,1.69-.21.28.03.58.07.89.13.86-.48,1.74-1.17,2.3-1.95.45-.63.87-1.58.3-2.53-1.71-2.85-8.07-1.44-8.14-1.42l-.59.13.5-.34s.62-.42.72-1.18c.08-.59-.17-1.23-.74-1.9-.77-.89-6.97-1.12-15.09-.55-6.9.48-15.08,1.58-17.8,2.94-2.22,1.11-15.56.46-39.65-1.94C19.62,2.48,2.88.45,1.27.25ZM113.42,12.99c-.45,0-.78.07-.92.19-.06.06-.08.12-.07.2.02.12.11.2.27.24.39.08,1.12-.12,1.9-.51-.45-.07-.86-.11-1.19-.11Z"/>
      <polygon class="cls-1" points="0 32.27 7.59 30.75 9.56 1.65 0 .13 0 32.27"/>
    </g>
  </g>
</svg>