<?xml version="1.0" encoding="UTF-8"?>
<svg id="Calque_2" data-name="Calque 2" xmlns="http://www.w3.org/2000/svg" viewBox="0 0 431.2 71.4">
  <defs>
    <style>
      .cls-1 {
        fill: #32354b;
      }

      .cls-2 {
        fill: #895d6d;
      }
    </style>
  </defs>
  <g id="Calque_2-2" data-name="Calque 2">
    <g>
      <path class="cls-1" d="M45.52,35.43c-.96.74-2.33.49-2.98-.52-2.47-3.81-6.89-6.53-13.33-6.53-10.49,0-15.9,7.19-15.9,16.01s5.4,16.01,15.9,16.01c6.41,0,10.83-2.7,13.3-6.48.67-1.03,2.07-1.26,3.02-.49l6.88,5.58c.91.74,1.03,2.09.24,2.97-2.9,3.21-10.51,9.89-23.36,9.39C11.14,70.67,0,59.07,0,44.39s11.12-26.99,29.29-26.99c13.3,0,19.78,5.73,22.77,10.68.54.9.32,2.05-.51,2.69l-6.02,4.65Z"/>
      <path class="cls-1" d="M68.25,69.34V2.12c0-1.14.92-2.06,2.06-2.06h7.7c1.14,0,2.06.92,2.06,2.06v67.23c0,1.14-.92,2.06-2.06,2.06h-7.7c-1.14,0-2.06-.92-2.06-2.06Z"/>
      <path class="cls-2" d="M148.33,43.62c-.34-13.63-10.03-26.26-26.98-26.26s-27,13.09-27,27c0,12.9,8.38,25.08,23.36,26.79-.9-1.93-2.21-3.46-2.25-5.88-.07-5,5.45-10.37,1.49-14.78-3.77-4.2-11.61-7.68-7.07-14.63,2.23.11,3.44,1.63,5.9,1.21,1.9-.32,1.75-2.34,4.6-2.21,3.39.16,6.98,2.27,8.53,5.29.59,1.15.58,2.48,1.08,3.44.78,1.48,2.58,2.32,3.52,4.45.92,2.08,1.74,6.13.29,8.03-.6.79-3.13.94-2.71,2.09,2.92,3.08,5.47,6.22,8.67,9.01.76.66,3.38,3.01,5.38,4.18h1.14c1.14,0,2.06-.92,2.06-2.06v-25.69h-.02Z"/>
      <path class="cls-1" d="M192.36,17.4h0c-5.91,0-11.36,1.9-15.81,5.12v-5.87c0-1.14-.92-2.06-2.06-2.06h-7.09c-1.14,0-2.06.92-2.06,2.06v52.69c.01,1.14.93,2.06,2.07,2.06h7.15c1.14,0,2.06-.92,2.06-2.06l-.04-25.21c-.01-8.54,6.91-15.48,15.45-15.48h0c8.54,0,15.46,6.92,15.45,15.46v25.23c0,1.14.91,2.06,2.05,2.06h7.77c1.14,0,2.06-.92,2.06-2.06v-24.94c0-14.91-12.09-27-27-27Z"/>
      <path class="cls-1" d="M333.71,17.4h0c-8.66,0-16.35,4.08-21.3,10.41-4.94-6.33-12.64-10.41-21.3-10.41h0c-5.91,0-11.36,1.9-15.81,5.12v-5.87c0-1.14-.92-2.06-2.06-2.06h-7.09c-1.14,0-2.06.92-2.06,2.06v52.69c.01,1.14.93,2.06,2.07,2.06h7.15c1.14,0,2.06-.92,2.06-2.06l-.04-25.21c-.01-8.54,6.91-15.48,15.45-15.48h0c8.54,0,15.46,6.92,15.45,15.46v25.23c0,1.14.91,2.06,2.05,2.06h7.77c1.14,0,2.06-.92,2.06-2.06,0-6.53-.04-26.42-.08-26.98.87-7.71,7.4-13.71,15.35-13.71h0c8.54,0,15.46,6.92,15.45,15.46v25.23c0,1.14.91,2.06,2.05,2.06h7.77c1.14,0,2.06-.92,2.06-2.06v-24.94c0-14.91-12.09-27-27-27Z"/>
      <g>
        <rect class="cls-1" x="236.54" y="14.59" width="11.81" height="56.81" rx="2.06" ry="2.06"/>
        <circle class="cls-1" cx="242.45" cy="5.9" r="5.9"/>
      </g>
      <path class="cls-1" d="M431.2,44.4c0,13.91-9.74,27-27,27s-27-13.09-27-27,9.74-27,27-27,27,13.09,27,27ZM418.98,43.91c0-8.47-5.01-16.18-15.03-16.18s-15.03,7.71-15.03,16.18,5.01,16.18,15.03,16.18,15.03-7.71,15.03-16.18Z"/>
    </g>
  </g>
</svg>