<?xml version="1.0" encoding="UTF-8"?>
<svg id="Calque_2" data-name="Calque 2" xmlns="http://www.w3.org/2000/svg" xmlns:xlink="http://www.w3.org/1999/xlink" viewBox="0 0 146.35 32.4">
  <defs>
    <style>
      .cls-1 {
        fill: #f8b795;
      }

      .cls-2 {
        fill: #432918;
      }

      .cls-3 {
        fill: #7d4e24;
      }

      .cls-4 {
        clip-path: url(#clippath);
      }
    </style>
    <clipPath id="clippath">
      <path class="cls-3" d="M.11,27.55c0-2.67,31.85-6.19,31.85-6.19,0,0-7.55-.73-6.87-4.2s9.23-5.24,8.94-3.76-7.08-2.06-5.31-5.01,8.26-1.47,8.26-1.47c0,0-1.77-1.18,0-3.24s27.72-.29,33.03,2.36C75.31,8.68,145.2.13,145.2.13v32.14s-33.91-5.31-46-5.9c-12.09-.59-21.23,0-24.18,0s-6.89-1.77-12.15-.59c-5.25,1.18-13.22,4.42-15.57,5.01s-4.13-.88-4.13-.88c0,0-43.05,1.47-43.05-2.36Z"/>
    </clipPath>
  </defs>
  <g id="right">
    <g>
      <g>
        <path class="cls-3" d="M.11,27.55c0-2.67,31.85-6.19,31.85-6.19,0,0-7.55-.73-6.87-4.2s9.23-5.24,8.94-3.76-7.08-2.06-5.31-5.01,8.26-1.47,8.26-1.47c0,0-1.77-1.18,0-3.24s27.72-.29,33.03,2.36C75.31,8.68,145.2.13,145.2.13v32.14s-33.91-5.31-46-5.9c-12.09-.59-21.23,0-24.18,0s-6.89-1.77-12.15-.59c-5.25,1.18-13.22,4.42-15.57,5.01s-4.13-.88-4.13-.88c0,0-43.05,1.47-43.05-2.36Z"/>
        <g class="cls-4">
          <g>
            <line class="cls-1" x1="43.17" y1="29.91" x2="47.74" y2="29.27"/>
            <rect class="cls-2" x="43.14" y="29.48" width="4.62" height=".22" transform="translate(-3.66 6.58) rotate(-7.96)"/>
          </g>
          <g>
            <polyline class="cls-3" points="16.48 25.44 16.58 27.31 17.76 25.44 18.15 27.21"/>
            <polygon class="cls-2" points="16.48 27.66 17.71 25.73 18.04 27.23 18.26 27.18 17.81 25.15 16.67 26.95 16.59 25.43 16.37 25.44 16.48 27.66"/>
          </g>
          <g>
            <polyline class="cls-3" points="36.63 26.03 37.66 26.45 38.84 24.58 39.23 26.35"/>
            <polygon class="cls-2" points="37.7 26.59 38.79 24.87 39.12 26.38 39.34 26.33 38.89 24.29 37.62 26.31 36.67 25.92 36.59 26.13 37.7 26.59"/>
          </g>
          <g>
            <polyline class="cls-3" points="37.05 16.2 37.15 18.07 38.33 16.2 36.04 17.57"/>
            <path class="cls-2" d="M36.99,17.13l-.89.54-.11-.19,1-.6-.04-.68h.22s.03.55.03.55l1.48-.89-1.62,2.56-.07-1.29ZM37.21,17l.04.71.74-1.17-.78.47Z"/>
          </g>
          <g>
            <polyline class="cls-3" points="40.66 10.79 38.6 11.87 39.77 10.01 40.17 11.77"/>
            <path class="cls-2" d="M39.83,9.72l.28,1.24.51-.27.1.2-.56.29.13.57-.22.05-.11-.51-1.67.87,1.55-2.45ZM39.72,10.29l-.81,1.29.98-.52-.17-.77Z"/>
          </g>
          <g>
            <polyline class="cls-3" points="39.68 5.01 39.78 6.88 40.96 5.01 39.77 4.21"/>
            <polygon class="cls-2" points="39.69 7.24 41.11 4.98 39.84 4.11 39.71 4.3 40.81 5.04 39.87 6.52 39.79 5.01 39.57 5.02 39.69 7.24"/>
          </g>
        </g>
      </g>
      <path class="cls-2" d="M145.18,32.38c-.34-.05-34.05-5.31-45.99-5.9-9.23-.45-16.65-.22-21.08-.08-1.34.04-2.39.08-3.09.08-.99,0-2.07-.19-3.31-.42-2.37-.43-5.33-.96-8.81-.18-3.27.74-7.54,2.25-10.97,3.47-2.07.74-3.71,1.32-4.6,1.54-2.21.55-3.93-.68-4.19-.88-.71.02-10.28.33-20.12.27-13.68-.09-21.34-.83-22.75-2.2C.09,27.93,0,27.74,0,27.55c0-.43.52-1.13,5.06-2.2,2.64-.63,6.33-1.3,10.96-2.01,6.33-.97,12.73-1.73,15.03-1.99-1.52-.24-4.52-.9-5.66-2.44-.4-.53-.54-1.13-.41-1.77.41-2.08,3.36-3.3,4.61-3.72.5-.17,1.01-.31,1.5-.42-.83-.5-1.64-1.16-2.15-1.89-.7-.98-.81-1.95-.31-2.78.74-1.24,2.43-1.9,4.89-1.9,1.29,0,2.49.18,3.09.29-.2-.22-.44-.57-.5-1.05-.09-.66.18-1.36.8-2.08,1.01-1.18,8.86-1.08,15.28-.63,6.42.45,14.95,1.49,17.88,2.96C75.27,8.53,144.49.1,145.19.02l.13-.02v32.4s-.13-.02-.13-.02ZM109.6,4.18c-24.09,2.4-37.43,3.05-39.65,1.94-2.72-1.36-10.9-2.45-17.8-2.94-8.12-.57-14.33-.34-15.09.55-.57.67-.83,1.31-.74,1.9.1.75.72,1.17.72,1.18l.5.34-.59-.13c-.06-.01-6.43-1.42-8.14,1.42-.57.95-.15,1.9.3,2.53.56.78,1.44,1.47,2.3,1.95.31-.06.61-.1.89-.13.59-.06,1.37-.07,1.69.21.12.11.17.25.14.41-.03.15-.13.34-.45.41-.51.11-1.4-.17-2.31-.67-.53.11-1.12.26-1.72.47-2.53.86-4.19,2.19-4.46,3.55-.11.58.01,1.12.37,1.6,1.47,1.97,6.36,2.46,6.41,2.47l1.07.1-1.07.12c-.08,0-8.05.89-15.92,2.09-4.62.7-8.3,1.38-10.94,2C.86,26.57.22,27.24.22,27.55c0,.13.06.26.19.38,3.29,3.18,42.35,1.88,42.75,1.87h.04s.03.03.03.03c.02.01,1.76,1.43,4.03.86.88-.22,2.59-.83,4.58-1.53,3.44-1.22,7.71-2.74,11-3.48,3.53-.79,6.51-.26,8.9.17,1.23.22,2.3.41,3.27.41.7,0,1.75-.03,3.08-.08,4.44-.14,11.87-.37,21.1.08,11.58.57,43.58,5.52,45.89,5.88V.25c-1.61.2-18.35,2.22-35.49,3.93ZM31.74,13.1c.79.4,1.51.6,1.9.51.16-.03.25-.11.27-.24.02-.08,0-.14-.07-.2-.14-.12-.46-.19-.92-.19-.33,0-.74.04-1.19.11Z"/>
      <polygon class="cls-3" points="146.35 32.27 138.76 30.75 136.79 1.65 146.35 .13 146.35 32.27"/>
    </g>
  </g>
</svg>