<?xml version="1.0" encoding="UTF-8"?>
<svg id="Calque_2" xmlns="http://www.w3.org/2000/svg" xmlns:xlink="http://www.w3.org/1999/xlink" version="1.1" viewBox="0 0 1920 746.2">
  <!-- Generator: Adobe Illustrator 29.7.1, SVG Export Plug-In . SVG Version: 2.1.1 Build 8)  -->
  <defs>
    <style>
      .st0, .st1 {
        fill: none;
      }

      .st2 {
        fill: #1d100a;
      }

      .st3 {
        fill: #f6b3a3;
      }

      .st4 {
        fill: #423a3d;
      }

      .st5 {
        fill: #a26046;
      }

      .st6 {
        fill: #33283f;
      }

      .st1 {
        stroke: #575756;
        stroke-miterlimit: 10;
        stroke-width: .5px;
      }

      .st7 {
        fill: #302f42;
      }

      .st8 {
        fill: #683d14;
      }

      .st9 {
        fill: #cd73ac;
      }

      .st10 {
        fill: #9d1a35;
      }

      .st11 {
        fill: #170a06;
      }

      .st12 {
        fill: #4a4b9a;
      }

      .st13 {
        fill: #585ea7;
      }

      .st14 {
        fill: #442a19;
      }

      .st15 {
        fill: #010101;
        isolation: isolate;
        opacity: .1;
      }

      .st16 {
        fill: #cdcccc;
      }

      .st17 {
        clip-path: url(#clippath);
      }
    </style>
    <clipPath id="clippath">
      <rect class="st0" width="1920" height="746.2"/>
    </clipPath>
  </defs>
  <g id="right">
    <g class="st17">
      <g>
        <line class="st1" x1="58.3" y1="653.1" x2="1861.7" y2="653.1"/>
        <g>
          <g>
            <path class="st3" d="M295.5,431.6c1-6.8-3.7-13.1-10.5-14.1-.7-.1-1.5-.1-2.2-.1l-79.4-80.3-15.7,21.9,83,72c.7,6.9,6.8,11.9,13.6,11.2,5.7-.6,10.3-5,11.1-10.7h0Z"/>
            <path class="st12" d="M257.9,385.2l-20.3,20.3c-2,2-5.3,2-7.3,0l-55.4-54.5c-8-7.9-8.1-20.7-.2-28.7s20.7-8.1,28.7-.2c0,0,.2.2.3.3l54.3,55.6c2,2,2,5.3,0,7.3h0Z"/>
            <circle class="st3" cx="186.8" cy="257.5" r="28.4"/>
            <polygon class="st3" points="91 597.3 98.1 609.5 148.6 587.6 138 569.6 91 597.3"/>
            <path class="st7" d="M93.1,591.8l14.1,24h0c5,8.5,2.2,19.3-6.3,24.3h0l-.5.3-23.2-39.3s15.8-9.3,15.8-9.3Z"/>
            <polygon class="st3" points="174.2 641.2 188.3 641.2 195 586.6 174.2 586.6 174.2 641.2"/>
            <path class="st7" d="M170.5,636.6h27.9c9.8,0,17.8,8,17.8,17.8h0v.6h-45.6v-18.3Z"/>
            <path class="st7" d="M117.3,608.1c-1.7,0-3.2-.8-4.2-2.1l-13.6-18.5c-1.7-2.3-1.2-5.6,1.1-7.3,0,0,.1,0,.2-.1l60.7-40.6-36.7-96.4,78.4,6.5,2.6,82.8c.5,15.4-7.5,29.8-20.8,37.4l-65.1,37.6c-.8.5-1.7.7-2.6.7h0Z"/>
            <path class="st7" d="M174.6,630.1c-2.8,0-5.1-2.2-5.2-5l-2.9-80.7,35.6-1.9-2.8,81.3c0,2.7-2.2,4.8-4.8,5l-19.5,1.3c-.1,0-.2,0-.4,0h0Z"/>
            <path class="st12" d="M212.3,465.6c-9.1,0-40.7-10.2-51.6-13.8-1.6,1.3-10.7,8.1-21.2,6.8-6.5-.8-12.2-4.4-17-10.9-10.6-14.3,2.5-75.8,15.3-124.8,5.3-20.6,26-33.3,46.8-28.7h0c14.8,3.3,26.4,14.6,30.1,29.3,2.4,9.8.3,21.4-1.2,29.8-.7,4-1.3,7.1-1.1,8.6.7,5.9,4.9,99.2,2.2,103.1-.3.4-1.1.6-2.3.6h0Z"/>
            <path class="st3" d="M179.1,465.8c5.5-4.1,6.6-11.9,2.5-17.4-.4-.6-.9-1.1-1.5-1.6l.6-113-26.6,4.4,7.8,109.6c-4.4,5.3-3.6,13.2,1.7,17.6,4.4,3.7,10.8,3.8,15.4.3h0Z"/>
            <path class="st12" d="M185.3,406.4h-28.7c-2.8,0-5.2-2.3-5.2-5.1l-.7-77.7c-.1-11.2,8.9-20.4,20.1-20.5,11.2-.1,20.4,8.9,20.5,20.1v.4l-.9,77.7c0,2.8-2.4,5.1-5.2,5.1h0Z"/>
            <path class="st7" d="M179.6,285.7c-13,0-25.2-10.2-27.5-23-.8-5-.4-10.2,1.1-15,6.3-21.4,28.8-33.6,50.1-27.3,1.8.5,3.5,1.2,5.2,1.9,3.5,1.6,6.9,3.8,8.5,7.3,1.6,3.5.6,8.3-2.9,9.9-2.3,1-5.1.5-7.1,2-2.9,2.1-2.2,6.6-.9,9.9s2.8,7.4.6,10.2c-2,2.6-6.1,2.6-9.2,1.6s-6.3-2.7-9.6-2.3c-4.8.5-8.3,5.3-9,10.1-.6,4.8.9,9.6,2.4,14.3l-1.6.5h0Z"/>
          </g>
          <g>
            <path class="st16" d="M286.2,430.9c18.4-4.2,39.3,10.2,39.9,29.6.2,5.4-1.4,11.2-5.6,14.9-3.5,3.1-8.6,4.6-13.1,3.1-8.6-2.9-9.1-14.9-4.4-21.3,6.2-8.7,18.6-10.1,28.4-9.1,12,1.3,23.4,6.5,33,13.7,19.2,14.4,31.4,36.6,41.2,58,10.1,21.9,17.5,45,21.9,68.8.6,3,1.1,6,1.5,9,.3.9,1.2,1.4,2.1,1.2.9-.3,1.4-1.2,1.2-2.1-4-25.9-11.5-51.2-22.2-75.1-10.3-23.2-23.4-47.2-44.1-62.7-10.3-7.7-22.5-13.1-35.5-14.2-10.9-1-23.8,1.3-30.5,10.8-5.3,7.5-4.8,19.9,3.5,25.1,4.5,2.9,10.3,2.5,15,.3,5.1-2.5,8.8-7.1,10.1-12.6,2.9-10.7-1.5-22.4-9.2-30-7.2-7.2-16.9-11.3-27.1-11.4-2.4,0-4.9.3-7.3.9-2.2.5-1.2,3.8,1,3.3h0Z"/>
            <path class="st14" d="M375.1,643.7l-11.5-19.5,14.1-8.3,11.5,19.5h0c2.3,3.9,1,8.9-2.9,11.2s-8.9,1-11.2-2.9h0Z"/>
            <circle class="st14" cx="337.2" cy="593" r="10.1"/>
            <path class="st14" d="M419.4,643.7l-11.5-19.5,14.1-8.3,11.5,19.5c2.3,3.9,1,8.9-2.9,11.2-3.9,2.3-8.9,1-11.2-2.9h0Z"/>
            <path class="st8" d="M339.1,613.3c0-11.8,9.6-21.4,21.4-21.4h67.7c5,0,9,4.1,9,9v7.7c0,14.4-11.7,26-26,26h-50.7c-11.8,0-21.4-9.6-21.4-21.4h0Z"/>
            <path class="st8" d="M354.7,646.2v-22.7h16.4v22.7c0,4.5-3.7,8.2-8.2,8.2s-8.2-3.7-8.2-8.2h0Z"/>
            <path class="st8" d="M402.2,646.2v-22.7h16.4v22.7c0,4.5-3.7,8.2-8.2,8.2-4.5,0-8.2-3.7-8.2-8.2h0Z"/>
            <path class="st14" d="M468.8,556.6c3.5-4.3,9.8-5,14.2-1.5,4.3,3.5,5,9.8,1.5,14.1l-16.5,20.6-15.7-12.6,16.5-20.6h0Z"/>
            <path class="st8" d="M428.9,597.2l13.3-16.5c6.7-8.3,18.9-9.7,27.3-3l4.1,3.3c9.9,8,11.5,22.5,3.5,32.5l-10.9,13.6c-2.5,3.1-7.1,3.6-10.2,1.1l-26-20.9c-3.1-2.5-3.6-7.1-1.1-10.2h0Z"/>
            <path class="st8" d="M470.7,554.1c2.4-3,6.8-3.5,9.7-1.1,3,2.4,3.5,6.8,1.1,9.7l-18.5,23.1-10.8-8.7,18.5-23.1h0Z"/>
            <path class="st8" d="M444.2,592.7l28.4,22.8c4.3,3.5,5,9.8,1.5,14.2-3.5,4.3-9.8,5-14.1,1.5l-28.4-22.8,12.6-15.7h0Z"/>
            <ellipse class="st14" cx="473.6" cy="628.9" rx="4.2" ry="2.4" transform="translate(-313.3 604.3) rotate(-51.2)"/>
          </g>
        </g>
        <g>
          <g>
            <g>
              <path class="st4" d="M1418,555.7c8,4.8,8.8,7.1,13.7,9.1,2.5,1,7.1,2.4,16,1.1,12.2-1.7,19.8-6.7,41-18.2,15.2-8.2,22.6-11.8,33.1-13.7,7.9-1.4,12.4-.9,16,0,12.2,3,18.9,12.5,20.5,14.8,5.5,8.1,6.2,15.9,6.8,22.8.8,8.6,1.9,21.1-4.6,30.8-8.1,12.1-19.3,6.7-38.8,18.2-21.5,12.7-17.9,25.2-35.3,31.9-22.3,8.5-46.6-5-47.9-5.7-23.1-13.2-27.8-37.3-39.9-35.3-7.2,1.2-7.9,10.1-19.4,12.5-2.1.5-10.9,2.3-17.1-3.4-3.8-3.5-3.7,4.4-1.7-.6,2.5-6.3,7.6-18.7,10.8-25.7,1.8-3.7-.2-4.8,1.1-14.8.7-4.9,1-7.3,2.3-10.3,3.2-7.3,9.3-11,13.7-13.7,5.3-3.2,10.5-6.4,17.1-5.7,3.8.4,6.7,2.2,12.5,5.7h0Z"/>
              <path class="st4" d="M1557.1,583.1c2,1.7,2.5,5,3.4,11.4.8,5.9.3,9.5,0,16-.5,9.7.3,8.8,0,21.7-.2,10.6-.3,15.9-1.1,20.5-1.4,8.2-2.2,5.1-9.1,26.2-1.4,4.3-2.5,7.9-5.7,9.1-4,1.5-8.5-1.8-9.1-2.3-1-.7-4.3-3.3-4.6-6.8-.3-4.5,4.9-5.7,9.1-12.5,2.7-4.3,3.3-8.5,4.6-17.1,1.2-8.1,1.8-12.2,0-16-3.3-6.9-10.9-9-11.4-9.1-4.5-1.2-6,.5-11.4,0-5.1-.5-13.4-2.8-14.8-6.8-4-11,40.5-42.1,50.2-34.2h0Z"/>
              <path class="st4" d="M1538.8,567.1c2,1.7,2.5,5,3.4,11.4.8,5.9.3,9.5,0,16-.5,9.7.3,8.8,0,21.7-.2,10.6-.3,15.9-1.1,20.5-1.4,8.2-2.2,5.1-9.1,26.2-1.4,4.3-2.5,7.9-5.7,9.1-4,1.5-8.5-1.8-9.1-2.3-1-.7-4.3-3.3-4.6-6.8-.3-4.5,4.9-5.7,9.1-12.5,2.7-4.3,3.3-8.5,4.6-17.1,1.2-8.1,1.8-12.2,0-16-3.3-6.9-10.9-9-11.4-9.1-4.5-1.2-6,.5-11.4,0-5.1-.5-13.4-2.8-14.8-6.8-4-11,40.5-42.1,50.2-34.2h0Z"/>
              <path class="st4" d="M1504.6,623c1.3,2,2.8,7,5.7,17.1,1.3,4.5,9.8,34.1,12.5,43.3.8,2.6,1.8,6,4.6,9.1,2.3,2.7,3.6,2.6,4.6,4.6,2.6,5.1-2.5,12.4-3.4,13.7-1.1,1.5-6.3,8.6-13.7,8-.8,0-5.8-.5-6.8-3.4-1.7-4.5,8.1-8.6,8-16,0-4.3-3.5-6.1-8-11.4-9.5-11.3-5.5-17.2-12.5-26.2-10.6-13.4-30.2-13.7-33.1-13.7-7.3,0-17.4,0-23.9,6.8-9.1,9.5-5.3,26.1-9.1,51.3,0,0-.6,4.1-2.3,10.3-2.8,10.2-4.9,12.8-5.7,13.7-1,1.2-4,4.5-9.1,5.7-.7.2-3.9.9-8,0-2.7-.6-5.1-1.2-6.8-3.4-1.7-2.2-2.3-5.4-1.1-8,1.4-3.1,4.2-2.6,8-5.7,2.7-2.2,4.1-5.3,6.8-11.4,1.2-2.7,3.1-6.8,4.6-12.5,1.7-6.6,1.9-11.7,2.3-21.7.3-8.4.2-15.3,0-22.8-.2-8.7-.4-11.5,0-17.1.4-5.8.9-11.6,2.3-14.8,7.6-17.6,67.7-20.9,84.4,4.6h0Z"/>
              <path class="st4" d="M1552.5,545.4c4.9-2.7,5.6-9,6.8-20.5.9-8.4,1.5-13.4-1.1-19.4-3.5-8.1-10.2-11.9-11.4-12.5-1.3-.7-10.2-5.4-19.4-2.3-1.3.4-4.7,3-11.4,8-8,6-9.2,7.1-10.3,9.1-2.8,5.3-2.5,12.5,0,13.7,1.9.9,5.2-1.6,6.8-3.4,1.9-2.2,1.7-3.5,3.4-5.7,1.4-1.8,2.7-2.4,6.8-4.6,10.2-5.4,10.7-6.1,12.5-5.7,4.5.9,6.7,6.4,6.8,6.8,1.4,3.7.4,7-1.1,12.5-.8,2.9-1.8,5.2-3.4,9.1-3,7.1-3.8,7.6-3.4,9.1,1.1,4.8,11.8,9.3,18.2,5.7h0Z"/>
            </g>
            <path class="st13" d="M1435.7,565.4c1.9.3,2.8,11.1,0,20.5-1.9,6.5-5.8,13-6.5,14.1-.5.9-1.1,1.7-2.7,4.1-7.8,11.6-11.7,17.4-13.7,17.1-2.6-.4,4.6-6.6,5.1-12.6,1-11.1,6-12.5,14.8-28.5,4.8-8.7,1.4-15,2.8-14.8h0Z"/>
            <path class="st6" d="M1395.8,562c-.9-4.8,4.5-11.6,10.3-12.5,8.4-1.4,15.8,9.8,18.2,17.1,3.4,10-.4,18.6-2.3,22.8-2.3,5.3-4.1,5.6-4.6,5.7-3.4.4-7.5-5.9-9.1-11.4-1.4-4.8.2-5.5-1.1-9.1-2.7-7.4-10.4-7.4-11.4-12.5h0Z"/>
            <polygon class="st13" points="1434 586.3 1660.2 438.6 1656.9 437.9 1430.6 585.5 1434 586.3"/>
          </g>
          <g>
            <polygon class="st5" points="1714.8 303.9 1709.8 285.8 1732.1 277.5 1734.6 294 1714.8 303.9"/>
            <polygon class="st15" points="1714.8 303.9 1709.8 285.8 1723 280.2 1718.9 301.6 1714.8 303.9"/>
            <g>
              <path class="st5" d="M1649.5,459.6c-4.3-2.5-4.5-10-.5-16.7,1.7-2.9,4-5.2,6.3-6.7l2.3-3.8,29.6-53s12.9-50,18.2-56.1,12.9-4.6,12.9-4.6l6.8,6-24.1,70.8-29.8,41.9-4,5.8c-.2,2.8-1.1,5.8-2.8,8.8-4,6.7-10.7,10.1-14.9,7.5h0Z"/>
              <path class="st9" d="M1713.6,298.8s9.4-.4,15.3,6.9-25.2,89.7-25.2,89.7l-25.3-.9,35.2-95.7h0Z"/>
            </g>
            <circle class="st5" cx="1716" cy="265.5" r="23.1"/>
            <polygon class="st5" points="1661.9 601.2 1646.2 640 1637.2 631 1633.9 613.6 1647.1 597.1 1661.9 601.2"/>
            <polygon class="st5" points="1808.9 587.2 1824.6 605.4 1817.2 620.2 1800.7 617.8 1792.4 594.6 1808.9 587.2"/>
            <polygon class="st5" points="1704.5 370.4 1702.4 403.9 1753.6 394.8 1750.3 374.1 1704.5 370.4"/>
            <polygon class="st11" points="1751.9 435.2 1771.8 522 1813.1 588.8 1791.6 601.2 1733.8 522 1714.8 460.8 1751.9 435.2"/>
            <path class="st2" d="M1702,404.3l51.6-16.9s19,38-1.7,61.9c-20.7,24-89.2,160.2-89.2,160.2l-20.7-9.9,29.7-86.7,33-80.1-2.9-28.5h0Z"/>
            <path class="st10" d="M1626.4,610.3h-14.3s-16.7-6.6-20.6,0,17.4,25.3,17.4,25.3c0,0,29.8,16.8,34,16,4.1-.8,5.8-10.7,5.8-10.7l4.9-11.6-7.4,2.5s-9.9-5.8-7.4-15.7l-12.4-5.8h0Z"/>
            <path class="st10" d="M1821.3,607.8v-8.3l9.6,8.3s16,5.8,3.6,18.2c-12.4,12.4-28.1,25.6-28.1,25.6,0,0-24.8,6.6-26.4-.8s0-10.4,0-10.4l9.1-4.4,8.3-21.5,13.2,1.7,10.7-8.3h0Z"/>
            <path class="st7" d="M1723,270.1l-7.4-.8-13.6-13.6s-12.4,6.6-12.4,1.6c0-23.1,14-22.3,25.6-23.9,11.6-1.6,10.3-2.1,14,4.1,1.7,2.8,7.8,4.5,7.8,4.5,0,0,11.6-15.7,17.3,3.3,5.8,19-1.7,77.6,4.1,82.6s-23.7,9.9-20.5-9.5,9-49.1,5.7-55.7c-3.3-6.6-4.1-5-4.1-5,4.1-1.7,6.8,27.8-8.7,29.2l-.4-14.4s-2.5-7.4-7.4-2.5h0Z"/>
            <path class="st9" d="M1712.7,298.6l24.8-9.9,33,99.1-68-2.5-6.1-29.6s-6-15.4-1-24.5c4.9-9.1,17.3-32.7,17.3-32.7h0Z"/>
            <g>
              <path class="st5" d="M1777.2,464.6c-4.9.4-9.5-5.5-10.2-13.3-.3-3.4.2-6.6,1.3-9.1l-.3-4.5-6.9-60.3s-12.8-49.4-12.1-57.3,1.9-10.1,1.9-10.1l9,.9,21.7,71.6.2,51.4.2,7.1c1.5,2.3,2.5,5.4,2.8,8.8.7,7.8-2.8,14.4-7.7,14.8h0Z"/>
              <path class="st9" d="M1735.4,296.5s7.4-5.8,16.5-3.3c9.1,2.5,31.8,87.5,31.8,87.5l-21.1,14-27.2-98.3h0Z"/>
            </g>
          </g>
        </g>
      </g>
    </g>
  </g>
</svg>